%TF.GenerationSoftware,KiCad,Pcbnew,5.1.6-c6e7f7d~87~ubuntu20.04.1*%
%TF.CreationDate,2020-08-28T13:02:35+02:00*%
%TF.ProjectId,teensy adapter,7465656e-7379-4206-9164-61707465722e,rev?*%
%TF.SameCoordinates,Original*%
%TF.FileFunction,Legend,Top*%
%TF.FilePolarity,Positive*%
%FSLAX46Y46*%
G04 Gerber Fmt 4.6, Leading zero omitted, Abs format (unit mm)*
G04 Created by KiCad (PCBNEW 5.1.6-c6e7f7d~87~ubuntu20.04.1) date 2020-08-28 13:02:35*
%MOMM*%
%LPD*%
G01*
G04 APERTURE LIST*
%ADD10C,0.150000*%
%ADD11C,0.120000*%
G04 APERTURE END LIST*
D10*
X70547619Y-50071428D02*
X69738095Y-50071428D01*
X69642857Y-50119047D01*
X69595238Y-50166666D01*
X69547619Y-50261904D01*
X69547619Y-50452380D01*
X69595238Y-50547619D01*
X69642857Y-50595238D01*
X69738095Y-50642857D01*
X70547619Y-50642857D01*
X69595238Y-51071428D02*
X69547619Y-51214285D01*
X69547619Y-51452380D01*
X69595238Y-51547619D01*
X69642857Y-51595238D01*
X69738095Y-51642857D01*
X69833333Y-51642857D01*
X69928571Y-51595238D01*
X69976190Y-51547619D01*
X70023809Y-51452380D01*
X70071428Y-51261904D01*
X70119047Y-51166666D01*
X70166666Y-51119047D01*
X70261904Y-51071428D01*
X70357142Y-51071428D01*
X70452380Y-51119047D01*
X70500000Y-51166666D01*
X70547619Y-51261904D01*
X70547619Y-51500000D01*
X70500000Y-51642857D01*
X70071428Y-52404761D02*
X70023809Y-52547619D01*
X69976190Y-52595238D01*
X69880952Y-52642857D01*
X69738095Y-52642857D01*
X69642857Y-52595238D01*
X69595238Y-52547619D01*
X69547619Y-52452380D01*
X69547619Y-52071428D01*
X70547619Y-52071428D01*
X70547619Y-52404761D01*
X70500000Y-52500000D01*
X70452380Y-52547619D01*
X70357142Y-52595238D01*
X70261904Y-52595238D01*
X70166666Y-52547619D01*
X70119047Y-52500000D01*
X70071428Y-52404761D01*
X70071428Y-52071428D01*
X69595238Y-54261904D02*
X69547619Y-54166666D01*
X69547619Y-53976190D01*
X69595238Y-53880952D01*
X69642857Y-53833333D01*
X69738095Y-53785714D01*
X70023809Y-53785714D01*
X70119047Y-53833333D01*
X70166666Y-53880952D01*
X70214285Y-53976190D01*
X70214285Y-54166666D01*
X70166666Y-54261904D01*
X69547619Y-54833333D02*
X69595238Y-54738095D01*
X69642857Y-54690476D01*
X69738095Y-54642857D01*
X70023809Y-54642857D01*
X70119047Y-54690476D01*
X70166666Y-54738095D01*
X70214285Y-54833333D01*
X70214285Y-54976190D01*
X70166666Y-55071428D01*
X70119047Y-55119047D01*
X70023809Y-55166666D01*
X69738095Y-55166666D01*
X69642857Y-55119047D01*
X69595238Y-55071428D01*
X69547619Y-54976190D01*
X69547619Y-54833333D01*
X70214285Y-55595238D02*
X69547619Y-55595238D01*
X70119047Y-55595238D02*
X70166666Y-55642857D01*
X70214285Y-55738095D01*
X70214285Y-55880952D01*
X70166666Y-55976190D01*
X70071428Y-56023809D01*
X69547619Y-56023809D01*
X70214285Y-56500000D02*
X69547619Y-56500000D01*
X70119047Y-56500000D02*
X70166666Y-56547619D01*
X70214285Y-56642857D01*
X70214285Y-56785714D01*
X70166666Y-56880952D01*
X70071428Y-56928571D01*
X69547619Y-56928571D01*
X118238095Y-36047619D02*
X118285714Y-36000000D01*
X118380952Y-35952380D01*
X118619047Y-35952380D01*
X118714285Y-36000000D01*
X118761904Y-36047619D01*
X118809523Y-36142857D01*
X118809523Y-36238095D01*
X118761904Y-36380952D01*
X118190476Y-36952380D01*
X118809523Y-36952380D01*
X119666666Y-36285714D02*
X119666666Y-36952380D01*
X119428571Y-35904761D02*
X119190476Y-36619047D01*
X119809523Y-36619047D01*
X70214285Y-36285714D02*
X70214285Y-36952380D01*
X69976190Y-35904761D02*
X69738095Y-36619047D01*
X70357142Y-36619047D01*
X70642857Y-35952380D02*
X71261904Y-35952380D01*
X70928571Y-36333333D01*
X71071428Y-36333333D01*
X71166666Y-36380952D01*
X71214285Y-36428571D01*
X71261904Y-36523809D01*
X71261904Y-36761904D01*
X71214285Y-36857142D01*
X71166666Y-36904761D01*
X71071428Y-36952380D01*
X70785714Y-36952380D01*
X70690476Y-36904761D01*
X70642857Y-36857142D01*
X118238095Y-68047619D02*
X118285714Y-68000000D01*
X118380952Y-67952380D01*
X118619047Y-67952380D01*
X118714285Y-68000000D01*
X118761904Y-68047619D01*
X118809523Y-68142857D01*
X118809523Y-68238095D01*
X118761904Y-68380952D01*
X118190476Y-68952380D01*
X118809523Y-68952380D01*
X119428571Y-67952380D02*
X119523809Y-67952380D01*
X119619047Y-68000000D01*
X119666666Y-68047619D01*
X119714285Y-68142857D01*
X119761904Y-68333333D01*
X119761904Y-68571428D01*
X119714285Y-68761904D01*
X119666666Y-68857142D01*
X119619047Y-68904761D01*
X119523809Y-68952380D01*
X119428571Y-68952380D01*
X119333333Y-68904761D01*
X119285714Y-68857142D01*
X119238095Y-68761904D01*
X119190476Y-68571428D01*
X119190476Y-68333333D01*
X119238095Y-68142857D01*
X119285714Y-68047619D01*
X119333333Y-68000000D01*
X119428571Y-67952380D01*
X70785714Y-69452380D02*
X70214285Y-69452380D01*
X70500000Y-69452380D02*
X70500000Y-68452380D01*
X70404761Y-68595238D01*
X70309523Y-68690476D01*
X70214285Y-68738095D01*
X128714285Y-54785714D02*
X128714285Y-55452380D01*
X128476190Y-54404761D02*
X128238095Y-55119047D01*
X128857142Y-55119047D01*
X129380952Y-54880952D02*
X129285714Y-54833333D01*
X129238095Y-54785714D01*
X129190476Y-54690476D01*
X129190476Y-54642857D01*
X129238095Y-54547619D01*
X129285714Y-54500000D01*
X129380952Y-54452380D01*
X129571428Y-54452380D01*
X129666666Y-54500000D01*
X129714285Y-54547619D01*
X129761904Y-54642857D01*
X129761904Y-54690476D01*
X129714285Y-54785714D01*
X129666666Y-54833333D01*
X129571428Y-54880952D01*
X129380952Y-54880952D01*
X129285714Y-54928571D01*
X129238095Y-54976190D01*
X129190476Y-55071428D01*
X129190476Y-55261904D01*
X129238095Y-55357142D01*
X129285714Y-55404761D01*
X129380952Y-55452380D01*
X129571428Y-55452380D01*
X129666666Y-55404761D01*
X129714285Y-55357142D01*
X129761904Y-55261904D01*
X129761904Y-55071428D01*
X129714285Y-54976190D01*
X129666666Y-54928571D01*
X129571428Y-54880952D01*
X128714285Y-52285714D02*
X128714285Y-52952380D01*
X128476190Y-51904761D02*
X128238095Y-52619047D01*
X128857142Y-52619047D01*
X129285714Y-52952380D02*
X129476190Y-52952380D01*
X129571428Y-52904761D01*
X129619047Y-52857142D01*
X129714285Y-52714285D01*
X129761904Y-52523809D01*
X129761904Y-52142857D01*
X129714285Y-52047619D01*
X129666666Y-52000000D01*
X129571428Y-51952380D01*
X129380952Y-51952380D01*
X129285714Y-52000000D01*
X129238095Y-52047619D01*
X129190476Y-52142857D01*
X129190476Y-52380952D01*
X129238095Y-52476190D01*
X129285714Y-52523809D01*
X129380952Y-52571428D01*
X129571428Y-52571428D01*
X129666666Y-52523809D01*
X129714285Y-52476190D01*
X129761904Y-52380952D01*
X128761904Y-49452380D02*
X128285714Y-49452380D01*
X128238095Y-49928571D01*
X128285714Y-49880952D01*
X128380952Y-49833333D01*
X128619047Y-49833333D01*
X128714285Y-49880952D01*
X128761904Y-49928571D01*
X128809523Y-50023809D01*
X128809523Y-50261904D01*
X128761904Y-50357142D01*
X128714285Y-50404761D01*
X128619047Y-50452380D01*
X128380952Y-50452380D01*
X128285714Y-50404761D01*
X128238095Y-50357142D01*
X129428571Y-49452380D02*
X129523809Y-49452380D01*
X129619047Y-49500000D01*
X129666666Y-49547619D01*
X129714285Y-49642857D01*
X129761904Y-49833333D01*
X129761904Y-50071428D01*
X129714285Y-50261904D01*
X129666666Y-50357142D01*
X129619047Y-50404761D01*
X129523809Y-50452380D01*
X129428571Y-50452380D01*
X129333333Y-50404761D01*
X129285714Y-50357142D01*
X129238095Y-50261904D01*
X129190476Y-50071428D01*
X129190476Y-49833333D01*
X129238095Y-49642857D01*
X129285714Y-49547619D01*
X129333333Y-49500000D01*
X129428571Y-49452380D01*
X135738095Y-54547619D02*
X135785714Y-54500000D01*
X135880952Y-54452380D01*
X136119047Y-54452380D01*
X136214285Y-54500000D01*
X136261904Y-54547619D01*
X136309523Y-54642857D01*
X136309523Y-54738095D01*
X136261904Y-54880952D01*
X135690476Y-55452380D01*
X136309523Y-55452380D01*
X137261904Y-55452380D02*
X136690476Y-55452380D01*
X136976190Y-55452380D02*
X136976190Y-54452380D01*
X136880952Y-54595238D01*
X136785714Y-54690476D01*
X136690476Y-54738095D01*
X135738095Y-52047619D02*
X135785714Y-52000000D01*
X135880952Y-51952380D01*
X136119047Y-51952380D01*
X136214285Y-52000000D01*
X136261904Y-52047619D01*
X136309523Y-52142857D01*
X136309523Y-52238095D01*
X136261904Y-52380952D01*
X135690476Y-52952380D01*
X136309523Y-52952380D01*
X136690476Y-52047619D02*
X136738095Y-52000000D01*
X136833333Y-51952380D01*
X137071428Y-51952380D01*
X137166666Y-52000000D01*
X137214285Y-52047619D01*
X137261904Y-52142857D01*
X137261904Y-52238095D01*
X137214285Y-52380952D01*
X136642857Y-52952380D01*
X137261904Y-52952380D01*
X135738095Y-49547619D02*
X135785714Y-49500000D01*
X135880952Y-49452380D01*
X136119047Y-49452380D01*
X136214285Y-49500000D01*
X136261904Y-49547619D01*
X136309523Y-49642857D01*
X136309523Y-49738095D01*
X136261904Y-49880952D01*
X135690476Y-50452380D01*
X136309523Y-50452380D01*
X136642857Y-49452380D02*
X137261904Y-49452380D01*
X136928571Y-49833333D01*
X137071428Y-49833333D01*
X137166666Y-49880952D01*
X137214285Y-49928571D01*
X137261904Y-50023809D01*
X137261904Y-50261904D01*
X137214285Y-50357142D01*
X137166666Y-50404761D01*
X137071428Y-50452380D01*
X136785714Y-50452380D01*
X136690476Y-50404761D01*
X136642857Y-50357142D01*
X128761904Y-44452380D02*
X128285714Y-44452380D01*
X128238095Y-44928571D01*
X128285714Y-44880952D01*
X128380952Y-44833333D01*
X128619047Y-44833333D01*
X128714285Y-44880952D01*
X128761904Y-44928571D01*
X128809523Y-45023809D01*
X128809523Y-45261904D01*
X128761904Y-45357142D01*
X128714285Y-45404761D01*
X128619047Y-45452380D01*
X128380952Y-45452380D01*
X128285714Y-45404761D01*
X128238095Y-45357142D01*
X129190476Y-44547619D02*
X129238095Y-44500000D01*
X129333333Y-44452380D01*
X129571428Y-44452380D01*
X129666666Y-44500000D01*
X129714285Y-44547619D01*
X129761904Y-44642857D01*
X129761904Y-44738095D01*
X129714285Y-44880952D01*
X129142857Y-45452380D01*
X129761904Y-45452380D01*
X128761904Y-41952380D02*
X128285714Y-41952380D01*
X128238095Y-42428571D01*
X128285714Y-42380952D01*
X128380952Y-42333333D01*
X128619047Y-42333333D01*
X128714285Y-42380952D01*
X128761904Y-42428571D01*
X128809523Y-42523809D01*
X128809523Y-42761904D01*
X128761904Y-42857142D01*
X128714285Y-42904761D01*
X128619047Y-42952380D01*
X128380952Y-42952380D01*
X128285714Y-42904761D01*
X128238095Y-42857142D01*
X129761904Y-42952380D02*
X129190476Y-42952380D01*
X129476190Y-42952380D02*
X129476190Y-41952380D01*
X129380952Y-42095238D01*
X129285714Y-42190476D01*
X129190476Y-42238095D01*
X128714285Y-39785714D02*
X128714285Y-40452380D01*
X128476190Y-39404761D02*
X128238095Y-40119047D01*
X128857142Y-40119047D01*
X129142857Y-39452380D02*
X129809523Y-39452380D01*
X129380952Y-40452380D01*
X128714285Y-60785714D02*
X128714285Y-61452380D01*
X128476190Y-60404761D02*
X128238095Y-61119047D01*
X128857142Y-61119047D01*
X129666666Y-60452380D02*
X129476190Y-60452380D01*
X129380952Y-60500000D01*
X129333333Y-60547619D01*
X129238095Y-60690476D01*
X129190476Y-60880952D01*
X129190476Y-61261904D01*
X129238095Y-61357142D01*
X129285714Y-61404761D01*
X129380952Y-61452380D01*
X129571428Y-61452380D01*
X129666666Y-61404761D01*
X129714285Y-61357142D01*
X129761904Y-61261904D01*
X129761904Y-61023809D01*
X129714285Y-60928571D01*
X129666666Y-60880952D01*
X129571428Y-60833333D01*
X129380952Y-60833333D01*
X129285714Y-60880952D01*
X129238095Y-60928571D01*
X129190476Y-61023809D01*
X128714285Y-63285714D02*
X128714285Y-63952380D01*
X128476190Y-62904761D02*
X128238095Y-63619047D01*
X128857142Y-63619047D01*
X129714285Y-62952380D02*
X129238095Y-62952380D01*
X129190476Y-63428571D01*
X129238095Y-63380952D01*
X129333333Y-63333333D01*
X129571428Y-63333333D01*
X129666666Y-63380952D01*
X129714285Y-63428571D01*
X129761904Y-63523809D01*
X129761904Y-63761904D01*
X129714285Y-63857142D01*
X129666666Y-63904761D01*
X129571428Y-63952380D01*
X129333333Y-63952380D01*
X129238095Y-63904761D01*
X129190476Y-63857142D01*
X128714285Y-65785714D02*
X128714285Y-66452380D01*
X128476190Y-65404761D02*
X128238095Y-66119047D01*
X128857142Y-66119047D01*
X129666666Y-65785714D02*
X129666666Y-66452380D01*
X129428571Y-65404761D02*
X129190476Y-66119047D01*
X129809523Y-66119047D01*
D11*
%TO.C,J2*%
X69350000Y-67330000D02*
X69350000Y-66000000D01*
X70680000Y-67330000D02*
X69350000Y-67330000D01*
X71950000Y-67330000D02*
X71950000Y-64670000D01*
X71950000Y-64670000D02*
X120270000Y-64670000D01*
X71950000Y-67330000D02*
X120270000Y-67330000D01*
X120270000Y-67330000D02*
X120270000Y-64670000D01*
%TO.C,J3*%
X124670000Y-38590000D02*
X126000000Y-38590000D01*
X124670000Y-39920000D02*
X124670000Y-38590000D01*
X124670000Y-41190000D02*
X127330000Y-41190000D01*
X127330000Y-41190000D02*
X127330000Y-46330000D01*
X124670000Y-41190000D02*
X124670000Y-46330000D01*
X124670000Y-46330000D02*
X127330000Y-46330000D01*
%TO.C,J4*%
X124670000Y-59670000D02*
X126000000Y-59670000D01*
X124670000Y-61000000D02*
X124670000Y-59670000D01*
X124670000Y-62270000D02*
X127330000Y-62270000D01*
X127330000Y-62270000D02*
X127330000Y-67410000D01*
X124670000Y-62270000D02*
X124670000Y-67410000D01*
X124670000Y-67410000D02*
X127330000Y-67410000D01*
%TO.C,J5*%
X124670000Y-56410000D02*
X127330000Y-56410000D01*
X124670000Y-51270000D02*
X124670000Y-56410000D01*
X127330000Y-51270000D02*
X127330000Y-56410000D01*
X124670000Y-51270000D02*
X127330000Y-51270000D01*
X124670000Y-50000000D02*
X124670000Y-48670000D01*
X124670000Y-48670000D02*
X126000000Y-48670000D01*
%TO.C,J6*%
X69130000Y-37670000D02*
X69130000Y-40330000D01*
X117450000Y-37670000D02*
X69130000Y-37670000D01*
X117450000Y-40330000D02*
X69130000Y-40330000D01*
X117450000Y-37670000D02*
X117450000Y-40330000D01*
X118720000Y-37670000D02*
X120050000Y-37670000D01*
X120050000Y-37670000D02*
X120050000Y-39000000D01*
%TO.C,U1*%
X109885000Y-51665000D02*
X102265000Y-51665000D01*
X109885000Y-54205000D02*
X102265000Y-54205000D01*
X109885000Y-51665000D02*
X109885000Y-54205000D01*
X102265000Y-54205000D02*
X102265000Y-51665000D01*
X109885000Y-49165000D02*
X102265000Y-49165000D01*
X109885000Y-51705000D02*
X102265000Y-51705000D01*
X109885000Y-49165000D02*
X109885000Y-51705000D01*
X102265000Y-51705000D02*
X102265000Y-49165000D01*
X112475000Y-56775000D02*
X112475000Y-49155000D01*
X109935000Y-56775000D02*
X109935000Y-49155000D01*
X112475000Y-56775000D02*
X109935000Y-56775000D01*
X109935000Y-49155000D02*
X112475000Y-49155000D01*
D10*
X120175000Y-61855000D02*
X69375000Y-61855000D01*
X69375000Y-44075000D02*
X120175000Y-44075000D01*
D11*
X120175000Y-44075000D02*
X120175000Y-46615000D01*
X120175000Y-46615000D02*
X69375000Y-46615000D01*
X69375000Y-46615000D02*
X69375000Y-44075000D01*
X69375000Y-61855000D02*
X69375000Y-59315000D01*
X69375000Y-59315000D02*
X120175000Y-59315000D01*
X120175000Y-61855000D02*
X120175000Y-59315000D01*
X120175000Y-56775000D02*
X117635000Y-56775000D01*
X117635000Y-56775000D02*
X117635000Y-49155000D01*
X117635000Y-49155000D02*
X120175000Y-49155000D01*
X120175000Y-56775000D02*
X120175000Y-49155000D01*
%TO.C,J1*%
X134830000Y-56330000D02*
X133500000Y-56330000D01*
X134830000Y-55000000D02*
X134830000Y-56330000D01*
X134830000Y-53730000D02*
X132170000Y-53730000D01*
X132170000Y-53730000D02*
X132170000Y-48590000D01*
X134830000Y-53730000D02*
X134830000Y-48590000D01*
X134830000Y-48590000D02*
X132170000Y-48590000D01*
%TO.C,REF\u002A\u002A*%
D10*
X130666666Y-26652380D02*
X130333333Y-26176190D01*
X130095238Y-26652380D02*
X130095238Y-25652380D01*
X130476190Y-25652380D01*
X130571428Y-25700000D01*
X130619047Y-25747619D01*
X130666666Y-25842857D01*
X130666666Y-25985714D01*
X130619047Y-26080952D01*
X130571428Y-26128571D01*
X130476190Y-26176190D01*
X130095238Y-26176190D01*
X131095238Y-26128571D02*
X131428571Y-26128571D01*
X131571428Y-26652380D02*
X131095238Y-26652380D01*
X131095238Y-25652380D01*
X131571428Y-25652380D01*
X132333333Y-26128571D02*
X132000000Y-26128571D01*
X132000000Y-26652380D02*
X132000000Y-25652380D01*
X132476190Y-25652380D01*
X133000000Y-25652380D02*
X133000000Y-25890476D01*
X132761904Y-25795238D02*
X133000000Y-25890476D01*
X133238095Y-25795238D01*
X132857142Y-26080952D02*
X133000000Y-25890476D01*
X133142857Y-26080952D01*
X133761904Y-25652380D02*
X133761904Y-25890476D01*
X133523809Y-25795238D02*
X133761904Y-25890476D01*
X134000000Y-25795238D01*
X133619047Y-26080952D02*
X133761904Y-25890476D01*
X133904761Y-26080952D01*
X130666666Y-69652380D02*
X130333333Y-69176190D01*
X130095238Y-69652380D02*
X130095238Y-68652380D01*
X130476190Y-68652380D01*
X130571428Y-68700000D01*
X130619047Y-68747619D01*
X130666666Y-68842857D01*
X130666666Y-68985714D01*
X130619047Y-69080952D01*
X130571428Y-69128571D01*
X130476190Y-69176190D01*
X130095238Y-69176190D01*
X131095238Y-69128571D02*
X131428571Y-69128571D01*
X131571428Y-69652380D02*
X131095238Y-69652380D01*
X131095238Y-68652380D01*
X131571428Y-68652380D01*
X132333333Y-69128571D02*
X132000000Y-69128571D01*
X132000000Y-69652380D02*
X132000000Y-68652380D01*
X132476190Y-68652380D01*
X133000000Y-68652380D02*
X133000000Y-68890476D01*
X132761904Y-68795238D02*
X133000000Y-68890476D01*
X133238095Y-68795238D01*
X132857142Y-69080952D02*
X133000000Y-68890476D01*
X133142857Y-69080952D01*
X133761904Y-68652380D02*
X133761904Y-68890476D01*
X133523809Y-68795238D02*
X133761904Y-68890476D01*
X134000000Y-68795238D01*
X133619047Y-69080952D02*
X133761904Y-68890476D01*
X133904761Y-69080952D01*
X73666666Y-70652380D02*
X73333333Y-70176190D01*
X73095238Y-70652380D02*
X73095238Y-69652380D01*
X73476190Y-69652380D01*
X73571428Y-69700000D01*
X73619047Y-69747619D01*
X73666666Y-69842857D01*
X73666666Y-69985714D01*
X73619047Y-70080952D01*
X73571428Y-70128571D01*
X73476190Y-70176190D01*
X73095238Y-70176190D01*
X74095238Y-70128571D02*
X74428571Y-70128571D01*
X74571428Y-70652380D02*
X74095238Y-70652380D01*
X74095238Y-69652380D01*
X74571428Y-69652380D01*
X75333333Y-70128571D02*
X75000000Y-70128571D01*
X75000000Y-70652380D02*
X75000000Y-69652380D01*
X75476190Y-69652380D01*
X76000000Y-69652380D02*
X76000000Y-69890476D01*
X75761904Y-69795238D02*
X76000000Y-69890476D01*
X76238095Y-69795238D01*
X75857142Y-70080952D02*
X76000000Y-69890476D01*
X76142857Y-70080952D01*
X76761904Y-69652380D02*
X76761904Y-69890476D01*
X76523809Y-69795238D02*
X76761904Y-69890476D01*
X77000000Y-69795238D01*
X76619047Y-70080952D02*
X76761904Y-69890476D01*
X76904761Y-70080952D01*
X73666666Y-26652380D02*
X73333333Y-26176190D01*
X73095238Y-26652380D02*
X73095238Y-25652380D01*
X73476190Y-25652380D01*
X73571428Y-25700000D01*
X73619047Y-25747619D01*
X73666666Y-25842857D01*
X73666666Y-25985714D01*
X73619047Y-26080952D01*
X73571428Y-26128571D01*
X73476190Y-26176190D01*
X73095238Y-26176190D01*
X74095238Y-26128571D02*
X74428571Y-26128571D01*
X74571428Y-26652380D02*
X74095238Y-26652380D01*
X74095238Y-25652380D01*
X74571428Y-25652380D01*
X75333333Y-26128571D02*
X75000000Y-26128571D01*
X75000000Y-26652380D02*
X75000000Y-25652380D01*
X75476190Y-25652380D01*
X76000000Y-25652380D02*
X76000000Y-25890476D01*
X75761904Y-25795238D02*
X76000000Y-25890476D01*
X76238095Y-25795238D01*
X75857142Y-26080952D02*
X76000000Y-25890476D01*
X76142857Y-26080952D01*
X76761904Y-25652380D02*
X76761904Y-25890476D01*
X76523809Y-25795238D02*
X76761904Y-25890476D01*
X77000000Y-25795238D01*
X76619047Y-26080952D02*
X76761904Y-25890476D01*
X76904761Y-26080952D01*
%TO.C,J2*%
X67802380Y-66333333D02*
X68516666Y-66333333D01*
X68659523Y-66380952D01*
X68754761Y-66476190D01*
X68802380Y-66619047D01*
X68802380Y-66714285D01*
X67897619Y-65904761D02*
X67850000Y-65857142D01*
X67802380Y-65761904D01*
X67802380Y-65523809D01*
X67850000Y-65428571D01*
X67897619Y-65380952D01*
X67992857Y-65333333D01*
X68088095Y-65333333D01*
X68230952Y-65380952D01*
X68802380Y-65952380D01*
X68802380Y-65333333D01*
%TO.C,J3*%
X125666666Y-37042380D02*
X125666666Y-37756666D01*
X125619047Y-37899523D01*
X125523809Y-37994761D01*
X125380952Y-38042380D01*
X125285714Y-38042380D01*
X126047619Y-37042380D02*
X126666666Y-37042380D01*
X126333333Y-37423333D01*
X126476190Y-37423333D01*
X126571428Y-37470952D01*
X126619047Y-37518571D01*
X126666666Y-37613809D01*
X126666666Y-37851904D01*
X126619047Y-37947142D01*
X126571428Y-37994761D01*
X126476190Y-38042380D01*
X126190476Y-38042380D01*
X126095238Y-37994761D01*
X126047619Y-37947142D01*
%TO.C,J4*%
X125666666Y-58122380D02*
X125666666Y-58836666D01*
X125619047Y-58979523D01*
X125523809Y-59074761D01*
X125380952Y-59122380D01*
X125285714Y-59122380D01*
X126571428Y-58455714D02*
X126571428Y-59122380D01*
X126333333Y-58074761D02*
X126095238Y-58789047D01*
X126714285Y-58789047D01*
%TO.C,J5*%
X125666666Y-47122380D02*
X125666666Y-47836666D01*
X125619047Y-47979523D01*
X125523809Y-48074761D01*
X125380952Y-48122380D01*
X125285714Y-48122380D01*
X126619047Y-47122380D02*
X126142857Y-47122380D01*
X126095238Y-47598571D01*
X126142857Y-47550952D01*
X126238095Y-47503333D01*
X126476190Y-47503333D01*
X126571428Y-47550952D01*
X126619047Y-47598571D01*
X126666666Y-47693809D01*
X126666666Y-47931904D01*
X126619047Y-48027142D01*
X126571428Y-48074761D01*
X126476190Y-48122380D01*
X126238095Y-48122380D01*
X126142857Y-48074761D01*
X126095238Y-48027142D01*
%TO.C,J6*%
X120502380Y-39333333D02*
X121216666Y-39333333D01*
X121359523Y-39380952D01*
X121454761Y-39476190D01*
X121502380Y-39619047D01*
X121502380Y-39714285D01*
X120502380Y-38428571D02*
X120502380Y-38619047D01*
X120550000Y-38714285D01*
X120597619Y-38761904D01*
X120740476Y-38857142D01*
X120930952Y-38904761D01*
X121311904Y-38904761D01*
X121407142Y-38857142D01*
X121454761Y-38809523D01*
X121502380Y-38714285D01*
X121502380Y-38523809D01*
X121454761Y-38428571D01*
X121407142Y-38380952D01*
X121311904Y-38333333D01*
X121073809Y-38333333D01*
X120978571Y-38380952D01*
X120930952Y-38428571D01*
X120883333Y-38523809D01*
X120883333Y-38714285D01*
X120930952Y-38809523D01*
X120978571Y-38857142D01*
X121073809Y-38904761D01*
%TO.C,U1*%
X94013095Y-42257380D02*
X94013095Y-43066904D01*
X94060714Y-43162142D01*
X94108333Y-43209761D01*
X94203571Y-43257380D01*
X94394047Y-43257380D01*
X94489285Y-43209761D01*
X94536904Y-43162142D01*
X94584523Y-43066904D01*
X94584523Y-42257380D01*
X95584523Y-43257380D02*
X95013095Y-43257380D01*
X95298809Y-43257380D02*
X95298809Y-42257380D01*
X95203571Y-42400238D01*
X95108333Y-42495476D01*
X95013095Y-42543095D01*
%TO.C,J1*%
X133166666Y-56782380D02*
X133166666Y-57496666D01*
X133119047Y-57639523D01*
X133023809Y-57734761D01*
X132880952Y-57782380D01*
X132785714Y-57782380D01*
X134166666Y-57782380D02*
X133595238Y-57782380D01*
X133880952Y-57782380D02*
X133880952Y-56782380D01*
X133785714Y-56925238D01*
X133690476Y-57020476D01*
X133595238Y-57068095D01*
%TD*%
M02*
