%TF.GenerationSoftware,KiCad,Pcbnew,5.1.6-c6e7f7d~87~ubuntu20.04.1*%
%TF.CreationDate,2020-08-28T13:02:35+02:00*%
%TF.ProjectId,teensy adapter,7465656e-7379-4206-9164-61707465722e,rev?*%
%TF.SameCoordinates,Original*%
%TF.FileFunction,Copper,L1,Top*%
%TF.FilePolarity,Positive*%
%FSLAX46Y46*%
G04 Gerber Fmt 4.6, Leading zero omitted, Abs format (unit mm)*
G04 Created by KiCad (PCBNEW 5.1.6-c6e7f7d~87~ubuntu20.04.1) date 2020-08-28 13:02:35*
%MOMM*%
%LPD*%
G01*
G04 APERTURE LIST*
%TA.AperFunction,ComponentPad*%
%ADD10R,1.700000X1.700000*%
%TD*%
%TA.AperFunction,ComponentPad*%
%ADD11O,1.700000X1.700000*%
%TD*%
%TA.AperFunction,ComponentPad*%
%ADD12C,1.600000*%
%TD*%
%TA.AperFunction,ComponentPad*%
%ADD13R,1.600000X1.600000*%
%TD*%
%TA.AperFunction,ViaPad*%
%ADD14C,0.800000*%
%TD*%
%TA.AperFunction,Conductor*%
%ADD15C,0.250000*%
%TD*%
%TA.AperFunction,NonConductor*%
%ADD16C,0.254000*%
%TD*%
G04 APERTURE END LIST*
D10*
%TO.P,J2,1*%
%TO.N,/GND*%
X70680000Y-66000000D03*
D11*
%TO.P,J2,2*%
%TO.N,Net-(J2-Pad2)*%
X73220000Y-66000000D03*
%TO.P,J2,3*%
%TO.N,Net-(J2-Pad3)*%
X75760000Y-66000000D03*
%TO.P,J2,4*%
%TO.N,Net-(J2-Pad4)*%
X78300000Y-66000000D03*
%TO.P,J2,5*%
%TO.N,Net-(J2-Pad5)*%
X80840000Y-66000000D03*
%TO.P,J2,6*%
%TO.N,Net-(J2-Pad6)*%
X83380000Y-66000000D03*
%TO.P,J2,7*%
%TO.N,Net-(J2-Pad7)*%
X85920000Y-66000000D03*
%TO.P,J2,8*%
%TO.N,Net-(J2-Pad8)*%
X88460000Y-66000000D03*
%TO.P,J2,9*%
%TO.N,Net-(J2-Pad9)*%
X91000000Y-66000000D03*
%TO.P,J2,10*%
%TO.N,Net-(J2-Pad10)*%
X93540000Y-66000000D03*
%TO.P,J2,11*%
%TO.N,Net-(J2-Pad11)*%
X96080000Y-66000000D03*
%TO.P,J2,12*%
%TO.N,Net-(J2-Pad12)*%
X98620000Y-66000000D03*
%TO.P,J2,13*%
%TO.N,Net-(J2-Pad13)*%
X101160000Y-66000000D03*
%TO.P,J2,14*%
%TO.N,Net-(J2-Pad14)*%
X103700000Y-66000000D03*
%TO.P,J2,15*%
%TO.N,Net-(J2-Pad15)*%
X106240000Y-66000000D03*
%TO.P,J2,16*%
%TO.N,Net-(J2-Pad16)*%
X108780000Y-66000000D03*
%TO.P,J2,17*%
%TO.N,Net-(J2-Pad17)*%
X111320000Y-66000000D03*
%TO.P,J2,18*%
%TO.N,Net-(J2-Pad18)*%
X113860000Y-66000000D03*
%TO.P,J2,19*%
%TO.N,Net-(J2-Pad19)*%
X116400000Y-66000000D03*
%TO.P,J2,20*%
%TO.N,Net-(J2-Pad20)*%
X118940000Y-66000000D03*
%TD*%
D10*
%TO.P,J3,1*%
%TO.N,Net-(J3-Pad1)*%
X126000000Y-39920000D03*
D11*
%TO.P,J3,2*%
%TO.N,Net-(J3-Pad2)*%
X126000000Y-42460000D03*
%TO.P,J3,3*%
%TO.N,Net-(J3-Pad3)*%
X126000000Y-45000000D03*
%TD*%
D10*
%TO.P,J4,1*%
%TO.N,Net-(J4-Pad1)*%
X126000000Y-61000000D03*
D11*
%TO.P,J4,2*%
%TO.N,Net-(J4-Pad2)*%
X126000000Y-63540000D03*
%TO.P,J4,3*%
%TO.N,Net-(J4-Pad3)*%
X126000000Y-66080000D03*
%TD*%
%TO.P,J5,3*%
%TO.N,Net-(J5-Pad3)*%
X126000000Y-55080000D03*
%TO.P,J5,2*%
%TO.N,Net-(J5-Pad2)*%
X126000000Y-52540000D03*
D10*
%TO.P,J5,1*%
%TO.N,Net-(J5-Pad1)*%
X126000000Y-50000000D03*
%TD*%
D11*
%TO.P,J6,20*%
%TO.N,Net-(J6-Pad20)*%
X70460000Y-39000000D03*
%TO.P,J6,19*%
%TO.N,Net-(J6-Pad19)*%
X73000000Y-39000000D03*
%TO.P,J6,18*%
%TO.N,Net-(J6-Pad18)*%
X75540000Y-39000000D03*
%TO.P,J6,17*%
%TO.N,Net-(J6-Pad17)*%
X78080000Y-39000000D03*
%TO.P,J6,16*%
%TO.N,Net-(J6-Pad16)*%
X80620000Y-39000000D03*
%TO.P,J6,15*%
%TO.N,Net-(J6-Pad15)*%
X83160000Y-39000000D03*
%TO.P,J6,14*%
%TO.N,Net-(J6-Pad14)*%
X85700000Y-39000000D03*
%TO.P,J6,13*%
%TO.N,Net-(J6-Pad13)*%
X88240000Y-39000000D03*
%TO.P,J6,12*%
%TO.N,Net-(J6-Pad12)*%
X90780000Y-39000000D03*
%TO.P,J6,11*%
%TO.N,/GND*%
X93320000Y-39000000D03*
%TO.P,J6,10*%
%TO.N,Net-(J6-Pad10)*%
X95860000Y-39000000D03*
%TO.P,J6,9*%
%TO.N,Net-(J6-Pad9)*%
X98400000Y-39000000D03*
%TO.P,J6,8*%
%TO.N,Net-(J6-Pad8)*%
X100940000Y-39000000D03*
%TO.P,J6,7*%
%TO.N,Net-(J6-Pad7)*%
X103480000Y-39000000D03*
%TO.P,J6,6*%
%TO.N,Net-(J6-Pad6)*%
X106020000Y-39000000D03*
%TO.P,J6,5*%
%TO.N,Net-(J6-Pad5)*%
X108560000Y-39000000D03*
%TO.P,J6,4*%
%TO.N,Net-(J6-Pad4)*%
X111100000Y-39000000D03*
%TO.P,J6,3*%
%TO.N,Net-(J6-Pad3)*%
X113640000Y-39000000D03*
%TO.P,J6,2*%
%TO.N,Net-(J6-Pad2)*%
X116180000Y-39000000D03*
D10*
%TO.P,J6,1*%
%TO.N,Net-(J6-Pad1)*%
X118720000Y-39000000D03*
%TD*%
D12*
%TO.P,U1,9*%
%TO.N,Net-(J2-Pad9)*%
X90965000Y-60585000D03*
%TO.P,U1,10*%
%TO.N,Net-(J2-Pad10)*%
X93505000Y-60585000D03*
%TO.P,U1,11*%
%TO.N,Net-(J2-Pad11)*%
X96045000Y-60585000D03*
%TO.P,U1,8*%
%TO.N,Net-(J2-Pad8)*%
X88425000Y-60585000D03*
%TO.P,U1,7*%
%TO.N,Net-(J2-Pad7)*%
X85885000Y-60585000D03*
%TO.P,U1,6*%
%TO.N,Net-(J2-Pad6)*%
X83345000Y-60585000D03*
%TO.P,U1,5*%
%TO.N,Net-(J2-Pad5)*%
X80805000Y-60585000D03*
%TO.P,U1,4*%
%TO.N,Net-(J2-Pad4)*%
X78265000Y-60585000D03*
%TO.P,U1,3*%
%TO.N,Net-(J2-Pad3)*%
X75725000Y-60585000D03*
%TO.P,U1,2*%
%TO.N,Net-(J2-Pad2)*%
X73185000Y-60585000D03*
D13*
%TO.P,U1,1*%
%TO.N,/GND*%
X70645000Y-60585000D03*
D12*
%TO.P,U1,12*%
%TO.N,Net-(J2-Pad12)*%
X98585000Y-60585000D03*
%TO.P,U1,13*%
%TO.N,Net-(J2-Pad13)*%
X101125000Y-60585000D03*
%TO.P,U1,14*%
%TO.N,Net-(J2-Pad14)*%
X103665000Y-60585000D03*
%TO.P,U1,15*%
%TO.N,Net-(J2-Pad15)*%
X106205000Y-60585000D03*
%TO.P,U1,16*%
%TO.N,Net-(J2-Pad16)*%
X108745000Y-60585000D03*
%TO.P,U1,17*%
%TO.N,Net-(J2-Pad17)*%
X111285000Y-60585000D03*
%TO.P,U1,18*%
%TO.N,Net-(J2-Pad18)*%
X113825000Y-60585000D03*
%TO.P,U1,19*%
%TO.N,Net-(J2-Pad19)*%
X116365000Y-60585000D03*
%TO.P,U1,20*%
%TO.N,Net-(J2-Pad20)*%
X118905000Y-60585000D03*
%TO.P,U1,21*%
%TO.N,Net-(J1-Pad1)*%
X118905000Y-55505000D03*
%TO.P,U1,22*%
%TO.N,/GND*%
X118905000Y-52965000D03*
%TO.P,U1,23*%
%TO.N,Net-(J1-Pad3)*%
X118905000Y-50425000D03*
%TO.P,U1,24*%
%TO.N,Net-(J6-Pad1)*%
X118905000Y-45345000D03*
%TO.P,U1,25*%
%TO.N,Net-(J6-Pad2)*%
X116365000Y-45345000D03*
%TO.P,U1,26*%
%TO.N,Net-(J6-Pad3)*%
X113825000Y-45345000D03*
%TO.P,U1,27*%
%TO.N,Net-(J6-Pad4)*%
X111285000Y-45345000D03*
%TO.P,U1,28*%
%TO.N,Net-(J6-Pad5)*%
X108745000Y-45345000D03*
%TO.P,U1,29*%
%TO.N,Net-(J6-Pad6)*%
X106205000Y-45345000D03*
%TO.P,U1,30*%
%TO.N,Net-(J6-Pad7)*%
X103665000Y-45345000D03*
%TO.P,U1,31*%
%TO.N,Net-(J6-Pad8)*%
X101125000Y-45345000D03*
%TO.P,U1,32*%
%TO.N,Net-(J6-Pad9)*%
X98585000Y-45345000D03*
%TO.P,U1,33*%
%TO.N,Net-(J6-Pad10)*%
X96045000Y-45345000D03*
%TO.P,U1,34*%
%TO.N,/GND*%
X93505000Y-45345000D03*
%TO.P,U1,35*%
%TO.N,Net-(J6-Pad12)*%
X90965000Y-45345000D03*
%TO.P,U1,36*%
%TO.N,Net-(J6-Pad13)*%
X88425000Y-45345000D03*
%TO.P,U1,37*%
%TO.N,Net-(J6-Pad14)*%
X85885000Y-45345000D03*
%TO.P,U1,38*%
%TO.N,Net-(J6-Pad15)*%
X83345000Y-45345000D03*
%TO.P,U1,39*%
%TO.N,Net-(J6-Pad16)*%
X80805000Y-45345000D03*
%TO.P,U1,40*%
%TO.N,Net-(J6-Pad17)*%
X78265000Y-45345000D03*
%TO.P,U1,41*%
%TO.N,Net-(J6-Pad18)*%
X75725000Y-45345000D03*
%TO.P,U1,42*%
%TO.N,Net-(J6-Pad19)*%
X73185000Y-45345000D03*
%TO.P,U1,43*%
%TO.N,Net-(J6-Pad20)*%
X70645000Y-45345000D03*
%TO.P,U1,49*%
%TO.N,Net-(J5-Pad2)*%
X106205000Y-52965000D03*
%TO.P,U1,48*%
%TO.N,Net-(J5-Pad3)*%
X103665000Y-52965000D03*
%TO.P,U1,47*%
%TO.N,Net-(J3-Pad1)*%
X111285000Y-50425000D03*
%TO.P,U1,52*%
%TO.N,Net-(J3-Pad3)*%
X111285000Y-55505000D03*
%TO.P,U1,51*%
%TO.N,Net-(J3-Pad2)*%
X111285000Y-52965000D03*
%TO.P,U1,50*%
%TO.N,Net-(J5-Pad1)*%
X108745000Y-52965000D03*
%TO.P,U1,44*%
%TO.N,Net-(J4-Pad3)*%
X103665000Y-50425000D03*
%TO.P,U1,46*%
%TO.N,Net-(J4-Pad1)*%
X108745000Y-50425000D03*
%TO.P,U1,45*%
%TO.N,Net-(J4-Pad2)*%
X106205000Y-50425000D03*
%TD*%
D10*
%TO.P,J1,1*%
%TO.N,Net-(J1-Pad1)*%
X133500000Y-55000000D03*
D11*
%TO.P,J1,2*%
%TO.N,/GND*%
X133500000Y-52460000D03*
%TO.P,J1,3*%
%TO.N,Net-(J1-Pad3)*%
X133500000Y-49920000D03*
%TD*%
D14*
%TO.N,/GND*%
X113500000Y-51500000D03*
%TD*%
D15*
%TO.N,/GND*%
X133500000Y-52460000D02*
X132324700Y-52460000D01*
X118905000Y-52965000D02*
X119657100Y-53717100D01*
X119657100Y-53717100D02*
X131067600Y-53717100D01*
X131067600Y-53717100D02*
X132324700Y-52460000D01*
%TO.N,Net-(J1-Pad3)*%
X133500000Y-49920000D02*
X132324700Y-49920000D01*
X118905000Y-50425000D02*
X119655400Y-51175400D01*
X119655400Y-51175400D02*
X131069300Y-51175400D01*
X131069300Y-51175400D02*
X132324700Y-49920000D01*
%TO.N,Net-(J3-Pad2)*%
X126000000Y-42460000D02*
X123953200Y-42460000D01*
X123953200Y-42460000D02*
X113448200Y-52965000D01*
X113448200Y-52965000D02*
X111285000Y-52965000D01*
%TO.N,Net-(J3-Pad3)*%
X126000000Y-45000000D02*
X122050100Y-45000000D01*
X122050100Y-45000000D02*
X111545100Y-55505000D01*
X111545100Y-55505000D02*
X111285000Y-55505000D01*
%TO.N,Net-(J5-Pad3)*%
X103665000Y-52965000D02*
X108280100Y-57580100D01*
X108280100Y-57580100D02*
X122324600Y-57580100D01*
X122324600Y-57580100D02*
X124824700Y-55080000D01*
X126000000Y-55080000D02*
X124824700Y-55080000D01*
%TO.N,Net-(J5-Pad2)*%
X126000000Y-52540000D02*
X124824700Y-52540000D01*
X124824700Y-52540000D02*
X124073000Y-51788300D01*
X124073000Y-51788300D02*
X118114700Y-51788300D01*
X118114700Y-51788300D02*
X112773200Y-57129800D01*
X112773200Y-57129800D02*
X110369800Y-57129800D01*
X110369800Y-57129800D02*
X106205000Y-52965000D01*
%TO.N,Net-(J5-Pad1)*%
X126000000Y-50000000D02*
X124824700Y-50000000D01*
X124824700Y-50000000D02*
X124083100Y-49258400D01*
X124083100Y-49258400D02*
X118428600Y-49258400D01*
X118428600Y-49258400D02*
X117328500Y-50358500D01*
X117328500Y-50358500D02*
X117328500Y-51064000D01*
X117328500Y-51064000D02*
X111713100Y-56679400D01*
X111713100Y-56679400D02*
X110839300Y-56679400D01*
X110839300Y-56679400D02*
X108745000Y-54585100D01*
X108745000Y-54585100D02*
X108745000Y-52965000D01*
%TO.N,/GND*%
X93505000Y-45345000D02*
X84850000Y-54000000D01*
X77230000Y-54000000D02*
X70645000Y-60585000D01*
X84850000Y-54000000D02*
X77230000Y-54000000D01*
X113500000Y-51500000D02*
X113000000Y-51000000D01*
X113000000Y-51000000D02*
X113000000Y-49000000D01*
X97160000Y-49000000D02*
X93505000Y-45345000D01*
X113000000Y-49000000D02*
X97160000Y-49000000D01*
%TD*%
D16*
G36*
X137340001Y-28967572D02*
G01*
X137340000Y-28967582D01*
X137340001Y-79340000D01*
X69660000Y-79340000D01*
X69660000Y-74725701D01*
X72215000Y-74725701D01*
X72215000Y-75274299D01*
X72322026Y-75812354D01*
X72531965Y-76319192D01*
X72836750Y-76775334D01*
X73224666Y-77163250D01*
X73680808Y-77468035D01*
X74187646Y-77677974D01*
X74725701Y-77785000D01*
X75274299Y-77785000D01*
X75812354Y-77677974D01*
X76319192Y-77468035D01*
X76775334Y-77163250D01*
X77163250Y-76775334D01*
X77468035Y-76319192D01*
X77677974Y-75812354D01*
X77785000Y-75274299D01*
X77785000Y-74725701D01*
X77677974Y-74187646D01*
X77486631Y-73725701D01*
X129215000Y-73725701D01*
X129215000Y-74274299D01*
X129322026Y-74812354D01*
X129531965Y-75319192D01*
X129836750Y-75775334D01*
X130224666Y-76163250D01*
X130680808Y-76468035D01*
X131187646Y-76677974D01*
X131725701Y-76785000D01*
X132274299Y-76785000D01*
X132812354Y-76677974D01*
X133319192Y-76468035D01*
X133775334Y-76163250D01*
X134163250Y-75775334D01*
X134468035Y-75319192D01*
X134677974Y-74812354D01*
X134785000Y-74274299D01*
X134785000Y-73725701D01*
X134677974Y-73187646D01*
X134468035Y-72680808D01*
X134163250Y-72224666D01*
X133775334Y-71836750D01*
X133319192Y-71531965D01*
X132812354Y-71322026D01*
X132274299Y-71215000D01*
X131725701Y-71215000D01*
X131187646Y-71322026D01*
X130680808Y-71531965D01*
X130224666Y-71836750D01*
X129836750Y-72224666D01*
X129531965Y-72680808D01*
X129322026Y-73187646D01*
X129215000Y-73725701D01*
X77486631Y-73725701D01*
X77468035Y-73680808D01*
X77163250Y-73224666D01*
X76775334Y-72836750D01*
X76319192Y-72531965D01*
X75812354Y-72322026D01*
X75274299Y-72215000D01*
X74725701Y-72215000D01*
X74187646Y-72322026D01*
X73680808Y-72531965D01*
X73224666Y-72836750D01*
X72836750Y-73224666D01*
X72531965Y-73680808D01*
X72322026Y-74187646D01*
X72215000Y-74725701D01*
X69660000Y-74725701D01*
X69660000Y-67462004D01*
X69705518Y-67475812D01*
X69830000Y-67488072D01*
X71530000Y-67488072D01*
X71654482Y-67475812D01*
X71774180Y-67439502D01*
X71884494Y-67380537D01*
X71981185Y-67301185D01*
X72060537Y-67204494D01*
X72119502Y-67094180D01*
X72141513Y-67021620D01*
X72273368Y-67153475D01*
X72516589Y-67315990D01*
X72786842Y-67427932D01*
X73073740Y-67485000D01*
X73366260Y-67485000D01*
X73653158Y-67427932D01*
X73923411Y-67315990D01*
X74166632Y-67153475D01*
X74373475Y-66946632D01*
X74490000Y-66772240D01*
X74606525Y-66946632D01*
X74813368Y-67153475D01*
X75056589Y-67315990D01*
X75326842Y-67427932D01*
X75613740Y-67485000D01*
X75906260Y-67485000D01*
X76193158Y-67427932D01*
X76463411Y-67315990D01*
X76706632Y-67153475D01*
X76913475Y-66946632D01*
X77030000Y-66772240D01*
X77146525Y-66946632D01*
X77353368Y-67153475D01*
X77596589Y-67315990D01*
X77866842Y-67427932D01*
X78153740Y-67485000D01*
X78446260Y-67485000D01*
X78733158Y-67427932D01*
X79003411Y-67315990D01*
X79246632Y-67153475D01*
X79453475Y-66946632D01*
X79570000Y-66772240D01*
X79686525Y-66946632D01*
X79893368Y-67153475D01*
X80136589Y-67315990D01*
X80406842Y-67427932D01*
X80693740Y-67485000D01*
X80986260Y-67485000D01*
X81273158Y-67427932D01*
X81543411Y-67315990D01*
X81786632Y-67153475D01*
X81993475Y-66946632D01*
X82110000Y-66772240D01*
X82226525Y-66946632D01*
X82433368Y-67153475D01*
X82676589Y-67315990D01*
X82946842Y-67427932D01*
X83233740Y-67485000D01*
X83526260Y-67485000D01*
X83813158Y-67427932D01*
X84083411Y-67315990D01*
X84326632Y-67153475D01*
X84533475Y-66946632D01*
X84650000Y-66772240D01*
X84766525Y-66946632D01*
X84973368Y-67153475D01*
X85216589Y-67315990D01*
X85486842Y-67427932D01*
X85773740Y-67485000D01*
X86066260Y-67485000D01*
X86353158Y-67427932D01*
X86623411Y-67315990D01*
X86866632Y-67153475D01*
X87073475Y-66946632D01*
X87190000Y-66772240D01*
X87306525Y-66946632D01*
X87513368Y-67153475D01*
X87756589Y-67315990D01*
X88026842Y-67427932D01*
X88313740Y-67485000D01*
X88606260Y-67485000D01*
X88893158Y-67427932D01*
X89163411Y-67315990D01*
X89406632Y-67153475D01*
X89613475Y-66946632D01*
X89730000Y-66772240D01*
X89846525Y-66946632D01*
X90053368Y-67153475D01*
X90296589Y-67315990D01*
X90566842Y-67427932D01*
X90853740Y-67485000D01*
X91146260Y-67485000D01*
X91433158Y-67427932D01*
X91703411Y-67315990D01*
X91946632Y-67153475D01*
X92153475Y-66946632D01*
X92270000Y-66772240D01*
X92386525Y-66946632D01*
X92593368Y-67153475D01*
X92836589Y-67315990D01*
X93106842Y-67427932D01*
X93393740Y-67485000D01*
X93686260Y-67485000D01*
X93973158Y-67427932D01*
X94243411Y-67315990D01*
X94486632Y-67153475D01*
X94693475Y-66946632D01*
X94810000Y-66772240D01*
X94926525Y-66946632D01*
X95133368Y-67153475D01*
X95376589Y-67315990D01*
X95646842Y-67427932D01*
X95933740Y-67485000D01*
X96226260Y-67485000D01*
X96513158Y-67427932D01*
X96783411Y-67315990D01*
X97026632Y-67153475D01*
X97233475Y-66946632D01*
X97350000Y-66772240D01*
X97466525Y-66946632D01*
X97673368Y-67153475D01*
X97916589Y-67315990D01*
X98186842Y-67427932D01*
X98473740Y-67485000D01*
X98766260Y-67485000D01*
X99053158Y-67427932D01*
X99323411Y-67315990D01*
X99566632Y-67153475D01*
X99773475Y-66946632D01*
X99890000Y-66772240D01*
X100006525Y-66946632D01*
X100213368Y-67153475D01*
X100456589Y-67315990D01*
X100726842Y-67427932D01*
X101013740Y-67485000D01*
X101306260Y-67485000D01*
X101593158Y-67427932D01*
X101863411Y-67315990D01*
X102106632Y-67153475D01*
X102313475Y-66946632D01*
X102430000Y-66772240D01*
X102546525Y-66946632D01*
X102753368Y-67153475D01*
X102996589Y-67315990D01*
X103266842Y-67427932D01*
X103553740Y-67485000D01*
X103846260Y-67485000D01*
X104133158Y-67427932D01*
X104403411Y-67315990D01*
X104646632Y-67153475D01*
X104853475Y-66946632D01*
X104970000Y-66772240D01*
X105086525Y-66946632D01*
X105293368Y-67153475D01*
X105536589Y-67315990D01*
X105806842Y-67427932D01*
X106093740Y-67485000D01*
X106386260Y-67485000D01*
X106673158Y-67427932D01*
X106943411Y-67315990D01*
X107186632Y-67153475D01*
X107393475Y-66946632D01*
X107510000Y-66772240D01*
X107626525Y-66946632D01*
X107833368Y-67153475D01*
X108076589Y-67315990D01*
X108346842Y-67427932D01*
X108633740Y-67485000D01*
X108926260Y-67485000D01*
X109213158Y-67427932D01*
X109483411Y-67315990D01*
X109726632Y-67153475D01*
X109933475Y-66946632D01*
X110050000Y-66772240D01*
X110166525Y-66946632D01*
X110373368Y-67153475D01*
X110616589Y-67315990D01*
X110886842Y-67427932D01*
X111173740Y-67485000D01*
X111466260Y-67485000D01*
X111753158Y-67427932D01*
X112023411Y-67315990D01*
X112266632Y-67153475D01*
X112473475Y-66946632D01*
X112590000Y-66772240D01*
X112706525Y-66946632D01*
X112913368Y-67153475D01*
X113156589Y-67315990D01*
X113426842Y-67427932D01*
X113713740Y-67485000D01*
X114006260Y-67485000D01*
X114293158Y-67427932D01*
X114563411Y-67315990D01*
X114806632Y-67153475D01*
X115013475Y-66946632D01*
X115130000Y-66772240D01*
X115246525Y-66946632D01*
X115453368Y-67153475D01*
X115696589Y-67315990D01*
X115966842Y-67427932D01*
X116253740Y-67485000D01*
X116546260Y-67485000D01*
X116833158Y-67427932D01*
X117103411Y-67315990D01*
X117346632Y-67153475D01*
X117553475Y-66946632D01*
X117670000Y-66772240D01*
X117786525Y-66946632D01*
X117993368Y-67153475D01*
X118236589Y-67315990D01*
X118506842Y-67427932D01*
X118793740Y-67485000D01*
X119086260Y-67485000D01*
X119373158Y-67427932D01*
X119643411Y-67315990D01*
X119886632Y-67153475D01*
X120093475Y-66946632D01*
X120255990Y-66703411D01*
X120367932Y-66433158D01*
X120425000Y-66146260D01*
X120425000Y-65853740D01*
X120367932Y-65566842D01*
X120255990Y-65296589D01*
X120093475Y-65053368D01*
X119886632Y-64846525D01*
X119643411Y-64684010D01*
X119373158Y-64572068D01*
X119086260Y-64515000D01*
X118793740Y-64515000D01*
X118506842Y-64572068D01*
X118236589Y-64684010D01*
X117993368Y-64846525D01*
X117786525Y-65053368D01*
X117670000Y-65227760D01*
X117553475Y-65053368D01*
X117346632Y-64846525D01*
X117103411Y-64684010D01*
X116833158Y-64572068D01*
X116546260Y-64515000D01*
X116253740Y-64515000D01*
X115966842Y-64572068D01*
X115696589Y-64684010D01*
X115453368Y-64846525D01*
X115246525Y-65053368D01*
X115130000Y-65227760D01*
X115013475Y-65053368D01*
X114806632Y-64846525D01*
X114563411Y-64684010D01*
X114293158Y-64572068D01*
X114006260Y-64515000D01*
X113713740Y-64515000D01*
X113426842Y-64572068D01*
X113156589Y-64684010D01*
X112913368Y-64846525D01*
X112706525Y-65053368D01*
X112590000Y-65227760D01*
X112473475Y-65053368D01*
X112266632Y-64846525D01*
X112023411Y-64684010D01*
X111753158Y-64572068D01*
X111466260Y-64515000D01*
X111173740Y-64515000D01*
X110886842Y-64572068D01*
X110616589Y-64684010D01*
X110373368Y-64846525D01*
X110166525Y-65053368D01*
X110050000Y-65227760D01*
X109933475Y-65053368D01*
X109726632Y-64846525D01*
X109483411Y-64684010D01*
X109213158Y-64572068D01*
X108926260Y-64515000D01*
X108633740Y-64515000D01*
X108346842Y-64572068D01*
X108076589Y-64684010D01*
X107833368Y-64846525D01*
X107626525Y-65053368D01*
X107510000Y-65227760D01*
X107393475Y-65053368D01*
X107186632Y-64846525D01*
X106943411Y-64684010D01*
X106673158Y-64572068D01*
X106386260Y-64515000D01*
X106093740Y-64515000D01*
X105806842Y-64572068D01*
X105536589Y-64684010D01*
X105293368Y-64846525D01*
X105086525Y-65053368D01*
X104970000Y-65227760D01*
X104853475Y-65053368D01*
X104646632Y-64846525D01*
X104403411Y-64684010D01*
X104133158Y-64572068D01*
X103846260Y-64515000D01*
X103553740Y-64515000D01*
X103266842Y-64572068D01*
X102996589Y-64684010D01*
X102753368Y-64846525D01*
X102546525Y-65053368D01*
X102430000Y-65227760D01*
X102313475Y-65053368D01*
X102106632Y-64846525D01*
X101863411Y-64684010D01*
X101593158Y-64572068D01*
X101306260Y-64515000D01*
X101013740Y-64515000D01*
X100726842Y-64572068D01*
X100456589Y-64684010D01*
X100213368Y-64846525D01*
X100006525Y-65053368D01*
X99890000Y-65227760D01*
X99773475Y-65053368D01*
X99566632Y-64846525D01*
X99323411Y-64684010D01*
X99053158Y-64572068D01*
X98766260Y-64515000D01*
X98473740Y-64515000D01*
X98186842Y-64572068D01*
X97916589Y-64684010D01*
X97673368Y-64846525D01*
X97466525Y-65053368D01*
X97350000Y-65227760D01*
X97233475Y-65053368D01*
X97026632Y-64846525D01*
X96783411Y-64684010D01*
X96513158Y-64572068D01*
X96226260Y-64515000D01*
X95933740Y-64515000D01*
X95646842Y-64572068D01*
X95376589Y-64684010D01*
X95133368Y-64846525D01*
X94926525Y-65053368D01*
X94810000Y-65227760D01*
X94693475Y-65053368D01*
X94486632Y-64846525D01*
X94243411Y-64684010D01*
X93973158Y-64572068D01*
X93686260Y-64515000D01*
X93393740Y-64515000D01*
X93106842Y-64572068D01*
X92836589Y-64684010D01*
X92593368Y-64846525D01*
X92386525Y-65053368D01*
X92270000Y-65227760D01*
X92153475Y-65053368D01*
X91946632Y-64846525D01*
X91703411Y-64684010D01*
X91433158Y-64572068D01*
X91146260Y-64515000D01*
X90853740Y-64515000D01*
X90566842Y-64572068D01*
X90296589Y-64684010D01*
X90053368Y-64846525D01*
X89846525Y-65053368D01*
X89730000Y-65227760D01*
X89613475Y-65053368D01*
X89406632Y-64846525D01*
X89163411Y-64684010D01*
X88893158Y-64572068D01*
X88606260Y-64515000D01*
X88313740Y-64515000D01*
X88026842Y-64572068D01*
X87756589Y-64684010D01*
X87513368Y-64846525D01*
X87306525Y-65053368D01*
X87190000Y-65227760D01*
X87073475Y-65053368D01*
X86866632Y-64846525D01*
X86623411Y-64684010D01*
X86353158Y-64572068D01*
X86066260Y-64515000D01*
X85773740Y-64515000D01*
X85486842Y-64572068D01*
X85216589Y-64684010D01*
X84973368Y-64846525D01*
X84766525Y-65053368D01*
X84650000Y-65227760D01*
X84533475Y-65053368D01*
X84326632Y-64846525D01*
X84083411Y-64684010D01*
X83813158Y-64572068D01*
X83526260Y-64515000D01*
X83233740Y-64515000D01*
X82946842Y-64572068D01*
X82676589Y-64684010D01*
X82433368Y-64846525D01*
X82226525Y-65053368D01*
X82110000Y-65227760D01*
X81993475Y-65053368D01*
X81786632Y-64846525D01*
X81543411Y-64684010D01*
X81273158Y-64572068D01*
X80986260Y-64515000D01*
X80693740Y-64515000D01*
X80406842Y-64572068D01*
X80136589Y-64684010D01*
X79893368Y-64846525D01*
X79686525Y-65053368D01*
X79570000Y-65227760D01*
X79453475Y-65053368D01*
X79246632Y-64846525D01*
X79003411Y-64684010D01*
X78733158Y-64572068D01*
X78446260Y-64515000D01*
X78153740Y-64515000D01*
X77866842Y-64572068D01*
X77596589Y-64684010D01*
X77353368Y-64846525D01*
X77146525Y-65053368D01*
X77030000Y-65227760D01*
X76913475Y-65053368D01*
X76706632Y-64846525D01*
X76463411Y-64684010D01*
X76193158Y-64572068D01*
X75906260Y-64515000D01*
X75613740Y-64515000D01*
X75326842Y-64572068D01*
X75056589Y-64684010D01*
X74813368Y-64846525D01*
X74606525Y-65053368D01*
X74490000Y-65227760D01*
X74373475Y-65053368D01*
X74166632Y-64846525D01*
X73923411Y-64684010D01*
X73653158Y-64572068D01*
X73366260Y-64515000D01*
X73073740Y-64515000D01*
X72786842Y-64572068D01*
X72516589Y-64684010D01*
X72273368Y-64846525D01*
X72141513Y-64978380D01*
X72119502Y-64905820D01*
X72060537Y-64795506D01*
X71981185Y-64698815D01*
X71884494Y-64619463D01*
X71774180Y-64560498D01*
X71654482Y-64524188D01*
X71530000Y-64511928D01*
X69830000Y-64511928D01*
X69705518Y-64524188D01*
X69660000Y-64537996D01*
X69660000Y-61992454D01*
X69720518Y-62010812D01*
X69845000Y-62023072D01*
X71445000Y-62023072D01*
X71569482Y-62010812D01*
X71689180Y-61974502D01*
X71799494Y-61915537D01*
X71896185Y-61836185D01*
X71975537Y-61739494D01*
X72034502Y-61629180D01*
X72070812Y-61509482D01*
X72071643Y-61501039D01*
X72270241Y-61699637D01*
X72505273Y-61856680D01*
X72766426Y-61964853D01*
X73043665Y-62020000D01*
X73326335Y-62020000D01*
X73603574Y-61964853D01*
X73864727Y-61856680D01*
X74099759Y-61699637D01*
X74299637Y-61499759D01*
X74455000Y-61267241D01*
X74610363Y-61499759D01*
X74810241Y-61699637D01*
X75045273Y-61856680D01*
X75306426Y-61964853D01*
X75583665Y-62020000D01*
X75866335Y-62020000D01*
X76143574Y-61964853D01*
X76404727Y-61856680D01*
X76639759Y-61699637D01*
X76839637Y-61499759D01*
X76995000Y-61267241D01*
X77150363Y-61499759D01*
X77350241Y-61699637D01*
X77585273Y-61856680D01*
X77846426Y-61964853D01*
X78123665Y-62020000D01*
X78406335Y-62020000D01*
X78683574Y-61964853D01*
X78944727Y-61856680D01*
X79179759Y-61699637D01*
X79379637Y-61499759D01*
X79535000Y-61267241D01*
X79690363Y-61499759D01*
X79890241Y-61699637D01*
X80125273Y-61856680D01*
X80386426Y-61964853D01*
X80663665Y-62020000D01*
X80946335Y-62020000D01*
X81223574Y-61964853D01*
X81484727Y-61856680D01*
X81719759Y-61699637D01*
X81919637Y-61499759D01*
X82075000Y-61267241D01*
X82230363Y-61499759D01*
X82430241Y-61699637D01*
X82665273Y-61856680D01*
X82926426Y-61964853D01*
X83203665Y-62020000D01*
X83486335Y-62020000D01*
X83763574Y-61964853D01*
X84024727Y-61856680D01*
X84259759Y-61699637D01*
X84459637Y-61499759D01*
X84615000Y-61267241D01*
X84770363Y-61499759D01*
X84970241Y-61699637D01*
X85205273Y-61856680D01*
X85466426Y-61964853D01*
X85743665Y-62020000D01*
X86026335Y-62020000D01*
X86303574Y-61964853D01*
X86564727Y-61856680D01*
X86799759Y-61699637D01*
X86999637Y-61499759D01*
X87155000Y-61267241D01*
X87310363Y-61499759D01*
X87510241Y-61699637D01*
X87745273Y-61856680D01*
X88006426Y-61964853D01*
X88283665Y-62020000D01*
X88566335Y-62020000D01*
X88843574Y-61964853D01*
X89104727Y-61856680D01*
X89339759Y-61699637D01*
X89539637Y-61499759D01*
X89695000Y-61267241D01*
X89850363Y-61499759D01*
X90050241Y-61699637D01*
X90285273Y-61856680D01*
X90546426Y-61964853D01*
X90823665Y-62020000D01*
X91106335Y-62020000D01*
X91383574Y-61964853D01*
X91644727Y-61856680D01*
X91879759Y-61699637D01*
X92079637Y-61499759D01*
X92235000Y-61267241D01*
X92390363Y-61499759D01*
X92590241Y-61699637D01*
X92825273Y-61856680D01*
X93086426Y-61964853D01*
X93363665Y-62020000D01*
X93646335Y-62020000D01*
X93923574Y-61964853D01*
X94184727Y-61856680D01*
X94419759Y-61699637D01*
X94619637Y-61499759D01*
X94775000Y-61267241D01*
X94930363Y-61499759D01*
X95130241Y-61699637D01*
X95365273Y-61856680D01*
X95626426Y-61964853D01*
X95903665Y-62020000D01*
X96186335Y-62020000D01*
X96463574Y-61964853D01*
X96724727Y-61856680D01*
X96959759Y-61699637D01*
X97159637Y-61499759D01*
X97315000Y-61267241D01*
X97470363Y-61499759D01*
X97670241Y-61699637D01*
X97905273Y-61856680D01*
X98166426Y-61964853D01*
X98443665Y-62020000D01*
X98726335Y-62020000D01*
X99003574Y-61964853D01*
X99264727Y-61856680D01*
X99499759Y-61699637D01*
X99699637Y-61499759D01*
X99855000Y-61267241D01*
X100010363Y-61499759D01*
X100210241Y-61699637D01*
X100445273Y-61856680D01*
X100706426Y-61964853D01*
X100983665Y-62020000D01*
X101266335Y-62020000D01*
X101543574Y-61964853D01*
X101804727Y-61856680D01*
X102039759Y-61699637D01*
X102239637Y-61499759D01*
X102395000Y-61267241D01*
X102550363Y-61499759D01*
X102750241Y-61699637D01*
X102985273Y-61856680D01*
X103246426Y-61964853D01*
X103523665Y-62020000D01*
X103806335Y-62020000D01*
X104083574Y-61964853D01*
X104344727Y-61856680D01*
X104579759Y-61699637D01*
X104779637Y-61499759D01*
X104935000Y-61267241D01*
X105090363Y-61499759D01*
X105290241Y-61699637D01*
X105525273Y-61856680D01*
X105786426Y-61964853D01*
X106063665Y-62020000D01*
X106346335Y-62020000D01*
X106623574Y-61964853D01*
X106884727Y-61856680D01*
X107119759Y-61699637D01*
X107319637Y-61499759D01*
X107475000Y-61267241D01*
X107630363Y-61499759D01*
X107830241Y-61699637D01*
X108065273Y-61856680D01*
X108326426Y-61964853D01*
X108603665Y-62020000D01*
X108886335Y-62020000D01*
X109163574Y-61964853D01*
X109424727Y-61856680D01*
X109659759Y-61699637D01*
X109859637Y-61499759D01*
X110015000Y-61267241D01*
X110170363Y-61499759D01*
X110370241Y-61699637D01*
X110605273Y-61856680D01*
X110866426Y-61964853D01*
X111143665Y-62020000D01*
X111426335Y-62020000D01*
X111703574Y-61964853D01*
X111964727Y-61856680D01*
X112199759Y-61699637D01*
X112399637Y-61499759D01*
X112555000Y-61267241D01*
X112710363Y-61499759D01*
X112910241Y-61699637D01*
X113145273Y-61856680D01*
X113406426Y-61964853D01*
X113683665Y-62020000D01*
X113966335Y-62020000D01*
X114243574Y-61964853D01*
X114504727Y-61856680D01*
X114739759Y-61699637D01*
X114939637Y-61499759D01*
X115095000Y-61267241D01*
X115250363Y-61499759D01*
X115450241Y-61699637D01*
X115685273Y-61856680D01*
X115946426Y-61964853D01*
X116223665Y-62020000D01*
X116506335Y-62020000D01*
X116783574Y-61964853D01*
X117044727Y-61856680D01*
X117279759Y-61699637D01*
X117479637Y-61499759D01*
X117635000Y-61267241D01*
X117790363Y-61499759D01*
X117990241Y-61699637D01*
X118225273Y-61856680D01*
X118486426Y-61964853D01*
X118763665Y-62020000D01*
X119046335Y-62020000D01*
X119323574Y-61964853D01*
X119584727Y-61856680D01*
X119819759Y-61699637D01*
X120019637Y-61499759D01*
X120176680Y-61264727D01*
X120284853Y-61003574D01*
X120340000Y-60726335D01*
X120340000Y-60443665D01*
X120284853Y-60166426D01*
X120278050Y-60150000D01*
X124511928Y-60150000D01*
X124511928Y-61850000D01*
X124524188Y-61974482D01*
X124560498Y-62094180D01*
X124619463Y-62204494D01*
X124698815Y-62301185D01*
X124795506Y-62380537D01*
X124905820Y-62439502D01*
X124978380Y-62461513D01*
X124846525Y-62593368D01*
X124684010Y-62836589D01*
X124572068Y-63106842D01*
X124515000Y-63393740D01*
X124515000Y-63686260D01*
X124572068Y-63973158D01*
X124684010Y-64243411D01*
X124846525Y-64486632D01*
X125053368Y-64693475D01*
X125227760Y-64810000D01*
X125053368Y-64926525D01*
X124846525Y-65133368D01*
X124684010Y-65376589D01*
X124572068Y-65646842D01*
X124515000Y-65933740D01*
X124515000Y-66226260D01*
X124572068Y-66513158D01*
X124684010Y-66783411D01*
X124846525Y-67026632D01*
X125053368Y-67233475D01*
X125296589Y-67395990D01*
X125566842Y-67507932D01*
X125853740Y-67565000D01*
X126146260Y-67565000D01*
X126433158Y-67507932D01*
X126703411Y-67395990D01*
X126946632Y-67233475D01*
X127153475Y-67026632D01*
X127315990Y-66783411D01*
X127427932Y-66513158D01*
X127485000Y-66226260D01*
X127485000Y-65933740D01*
X127427932Y-65646842D01*
X127315990Y-65376589D01*
X127153475Y-65133368D01*
X126946632Y-64926525D01*
X126772240Y-64810000D01*
X126946632Y-64693475D01*
X127153475Y-64486632D01*
X127315990Y-64243411D01*
X127427932Y-63973158D01*
X127485000Y-63686260D01*
X127485000Y-63393740D01*
X127427932Y-63106842D01*
X127315990Y-62836589D01*
X127153475Y-62593368D01*
X127021620Y-62461513D01*
X127094180Y-62439502D01*
X127204494Y-62380537D01*
X127301185Y-62301185D01*
X127380537Y-62204494D01*
X127439502Y-62094180D01*
X127475812Y-61974482D01*
X127488072Y-61850000D01*
X127488072Y-60150000D01*
X127475812Y-60025518D01*
X127439502Y-59905820D01*
X127380537Y-59795506D01*
X127301185Y-59698815D01*
X127204494Y-59619463D01*
X127094180Y-59560498D01*
X126974482Y-59524188D01*
X126850000Y-59511928D01*
X125150000Y-59511928D01*
X125025518Y-59524188D01*
X124905820Y-59560498D01*
X124795506Y-59619463D01*
X124698815Y-59698815D01*
X124619463Y-59795506D01*
X124560498Y-59905820D01*
X124524188Y-60025518D01*
X124511928Y-60150000D01*
X120278050Y-60150000D01*
X120176680Y-59905273D01*
X120019637Y-59670241D01*
X119819759Y-59470363D01*
X119584727Y-59313320D01*
X119323574Y-59205147D01*
X119046335Y-59150000D01*
X118763665Y-59150000D01*
X118486426Y-59205147D01*
X118225273Y-59313320D01*
X117990241Y-59470363D01*
X117790363Y-59670241D01*
X117635000Y-59902759D01*
X117479637Y-59670241D01*
X117279759Y-59470363D01*
X117044727Y-59313320D01*
X116783574Y-59205147D01*
X116506335Y-59150000D01*
X116223665Y-59150000D01*
X115946426Y-59205147D01*
X115685273Y-59313320D01*
X115450241Y-59470363D01*
X115250363Y-59670241D01*
X115095000Y-59902759D01*
X114939637Y-59670241D01*
X114739759Y-59470363D01*
X114504727Y-59313320D01*
X114243574Y-59205147D01*
X113966335Y-59150000D01*
X113683665Y-59150000D01*
X113406426Y-59205147D01*
X113145273Y-59313320D01*
X112910241Y-59470363D01*
X112710363Y-59670241D01*
X112555000Y-59902759D01*
X112399637Y-59670241D01*
X112199759Y-59470363D01*
X111964727Y-59313320D01*
X111703574Y-59205147D01*
X111426335Y-59150000D01*
X111143665Y-59150000D01*
X110866426Y-59205147D01*
X110605273Y-59313320D01*
X110370241Y-59470363D01*
X110170363Y-59670241D01*
X110015000Y-59902759D01*
X109859637Y-59670241D01*
X109659759Y-59470363D01*
X109424727Y-59313320D01*
X109163574Y-59205147D01*
X108886335Y-59150000D01*
X108603665Y-59150000D01*
X108326426Y-59205147D01*
X108065273Y-59313320D01*
X107830241Y-59470363D01*
X107630363Y-59670241D01*
X107475000Y-59902759D01*
X107319637Y-59670241D01*
X107119759Y-59470363D01*
X106884727Y-59313320D01*
X106623574Y-59205147D01*
X106346335Y-59150000D01*
X106063665Y-59150000D01*
X105786426Y-59205147D01*
X105525273Y-59313320D01*
X105290241Y-59470363D01*
X105090363Y-59670241D01*
X104935000Y-59902759D01*
X104779637Y-59670241D01*
X104579759Y-59470363D01*
X104344727Y-59313320D01*
X104083574Y-59205147D01*
X103806335Y-59150000D01*
X103523665Y-59150000D01*
X103246426Y-59205147D01*
X102985273Y-59313320D01*
X102750241Y-59470363D01*
X102550363Y-59670241D01*
X102395000Y-59902759D01*
X102239637Y-59670241D01*
X102039759Y-59470363D01*
X101804727Y-59313320D01*
X101543574Y-59205147D01*
X101266335Y-59150000D01*
X100983665Y-59150000D01*
X100706426Y-59205147D01*
X100445273Y-59313320D01*
X100210241Y-59470363D01*
X100010363Y-59670241D01*
X99855000Y-59902759D01*
X99699637Y-59670241D01*
X99499759Y-59470363D01*
X99264727Y-59313320D01*
X99003574Y-59205147D01*
X98726335Y-59150000D01*
X98443665Y-59150000D01*
X98166426Y-59205147D01*
X97905273Y-59313320D01*
X97670241Y-59470363D01*
X97470363Y-59670241D01*
X97315000Y-59902759D01*
X97159637Y-59670241D01*
X96959759Y-59470363D01*
X96724727Y-59313320D01*
X96463574Y-59205147D01*
X96186335Y-59150000D01*
X95903665Y-59150000D01*
X95626426Y-59205147D01*
X95365273Y-59313320D01*
X95130241Y-59470363D01*
X94930363Y-59670241D01*
X94775000Y-59902759D01*
X94619637Y-59670241D01*
X94419759Y-59470363D01*
X94184727Y-59313320D01*
X93923574Y-59205147D01*
X93646335Y-59150000D01*
X93363665Y-59150000D01*
X93086426Y-59205147D01*
X92825273Y-59313320D01*
X92590241Y-59470363D01*
X92390363Y-59670241D01*
X92235000Y-59902759D01*
X92079637Y-59670241D01*
X91879759Y-59470363D01*
X91644727Y-59313320D01*
X91383574Y-59205147D01*
X91106335Y-59150000D01*
X90823665Y-59150000D01*
X90546426Y-59205147D01*
X90285273Y-59313320D01*
X90050241Y-59470363D01*
X89850363Y-59670241D01*
X89695000Y-59902759D01*
X89539637Y-59670241D01*
X89339759Y-59470363D01*
X89104727Y-59313320D01*
X88843574Y-59205147D01*
X88566335Y-59150000D01*
X88283665Y-59150000D01*
X88006426Y-59205147D01*
X87745273Y-59313320D01*
X87510241Y-59470363D01*
X87310363Y-59670241D01*
X87155000Y-59902759D01*
X86999637Y-59670241D01*
X86799759Y-59470363D01*
X86564727Y-59313320D01*
X86303574Y-59205147D01*
X86026335Y-59150000D01*
X85743665Y-59150000D01*
X85466426Y-59205147D01*
X85205273Y-59313320D01*
X84970241Y-59470363D01*
X84770363Y-59670241D01*
X84615000Y-59902759D01*
X84459637Y-59670241D01*
X84259759Y-59470363D01*
X84024727Y-59313320D01*
X83763574Y-59205147D01*
X83486335Y-59150000D01*
X83203665Y-59150000D01*
X82926426Y-59205147D01*
X82665273Y-59313320D01*
X82430241Y-59470363D01*
X82230363Y-59670241D01*
X82075000Y-59902759D01*
X81919637Y-59670241D01*
X81719759Y-59470363D01*
X81484727Y-59313320D01*
X81223574Y-59205147D01*
X80946335Y-59150000D01*
X80663665Y-59150000D01*
X80386426Y-59205147D01*
X80125273Y-59313320D01*
X79890241Y-59470363D01*
X79690363Y-59670241D01*
X79535000Y-59902759D01*
X79379637Y-59670241D01*
X79179759Y-59470363D01*
X78944727Y-59313320D01*
X78683574Y-59205147D01*
X78406335Y-59150000D01*
X78123665Y-59150000D01*
X77846426Y-59205147D01*
X77585273Y-59313320D01*
X77350241Y-59470363D01*
X77150363Y-59670241D01*
X76995000Y-59902759D01*
X76839637Y-59670241D01*
X76639759Y-59470363D01*
X76404727Y-59313320D01*
X76143574Y-59205147D01*
X75866335Y-59150000D01*
X75583665Y-59150000D01*
X75306426Y-59205147D01*
X75045273Y-59313320D01*
X74810241Y-59470363D01*
X74610363Y-59670241D01*
X74455000Y-59902759D01*
X74299637Y-59670241D01*
X74099759Y-59470363D01*
X73864727Y-59313320D01*
X73603574Y-59205147D01*
X73326335Y-59150000D01*
X73154801Y-59150000D01*
X77544802Y-54760000D01*
X84812678Y-54760000D01*
X84850000Y-54763676D01*
X84887322Y-54760000D01*
X84887333Y-54760000D01*
X84998986Y-54749003D01*
X85142247Y-54705546D01*
X85274276Y-54634974D01*
X85390001Y-54540001D01*
X85413804Y-54510997D01*
X93181115Y-46743688D01*
X93363665Y-46780000D01*
X93646335Y-46780000D01*
X93828887Y-46743688D01*
X96596201Y-49511003D01*
X96619999Y-49540001D01*
X96648997Y-49563799D01*
X96735724Y-49634974D01*
X96867753Y-49705546D01*
X97011014Y-49749003D01*
X97160000Y-49763677D01*
X97197333Y-49760000D01*
X102387220Y-49760000D01*
X102285147Y-50006426D01*
X102230000Y-50283665D01*
X102230000Y-50566335D01*
X102285147Y-50843574D01*
X102393320Y-51104727D01*
X102550363Y-51339759D01*
X102750241Y-51539637D01*
X102982759Y-51695000D01*
X102750241Y-51850363D01*
X102550363Y-52050241D01*
X102393320Y-52285273D01*
X102285147Y-52546426D01*
X102230000Y-52823665D01*
X102230000Y-53106335D01*
X102285147Y-53383574D01*
X102393320Y-53644727D01*
X102550363Y-53879759D01*
X102750241Y-54079637D01*
X102985273Y-54236680D01*
X103246426Y-54344853D01*
X103523665Y-54400000D01*
X103806335Y-54400000D01*
X103988887Y-54363688D01*
X107716301Y-58091103D01*
X107740099Y-58120101D01*
X107769097Y-58143899D01*
X107855823Y-58215074D01*
X107987853Y-58285646D01*
X108131114Y-58329103D01*
X108242767Y-58340100D01*
X108242777Y-58340100D01*
X108280099Y-58343776D01*
X108317422Y-58340100D01*
X122287278Y-58340100D01*
X122324600Y-58343776D01*
X122361922Y-58340100D01*
X122361933Y-58340100D01*
X122473586Y-58329103D01*
X122616847Y-58285646D01*
X122748876Y-58215074D01*
X122864601Y-58120101D01*
X122888404Y-58091097D01*
X124899697Y-56079804D01*
X125053368Y-56233475D01*
X125296589Y-56395990D01*
X125566842Y-56507932D01*
X125853740Y-56565000D01*
X126146260Y-56565000D01*
X126433158Y-56507932D01*
X126703411Y-56395990D01*
X126946632Y-56233475D01*
X127153475Y-56026632D01*
X127315990Y-55783411D01*
X127427932Y-55513158D01*
X127485000Y-55226260D01*
X127485000Y-54933740D01*
X127427932Y-54646842D01*
X127357623Y-54477100D01*
X131030278Y-54477100D01*
X131067600Y-54480776D01*
X131104922Y-54477100D01*
X131104933Y-54477100D01*
X131216586Y-54466103D01*
X131359847Y-54422646D01*
X131491876Y-54352074D01*
X131607601Y-54257101D01*
X131631404Y-54228097D01*
X132399697Y-53459804D01*
X132478380Y-53538487D01*
X132405820Y-53560498D01*
X132295506Y-53619463D01*
X132198815Y-53698815D01*
X132119463Y-53795506D01*
X132060498Y-53905820D01*
X132024188Y-54025518D01*
X132011928Y-54150000D01*
X132011928Y-55850000D01*
X132024188Y-55974482D01*
X132060498Y-56094180D01*
X132119463Y-56204494D01*
X132198815Y-56301185D01*
X132295506Y-56380537D01*
X132405820Y-56439502D01*
X132525518Y-56475812D01*
X132650000Y-56488072D01*
X134350000Y-56488072D01*
X134474482Y-56475812D01*
X134594180Y-56439502D01*
X134704494Y-56380537D01*
X134801185Y-56301185D01*
X134880537Y-56204494D01*
X134939502Y-56094180D01*
X134975812Y-55974482D01*
X134988072Y-55850000D01*
X134988072Y-54150000D01*
X134975812Y-54025518D01*
X134939502Y-53905820D01*
X134880537Y-53795506D01*
X134801185Y-53698815D01*
X134704494Y-53619463D01*
X134594180Y-53560498D01*
X134521620Y-53538487D01*
X134653475Y-53406632D01*
X134815990Y-53163411D01*
X134927932Y-52893158D01*
X134985000Y-52606260D01*
X134985000Y-52313740D01*
X134927932Y-52026842D01*
X134815990Y-51756589D01*
X134653475Y-51513368D01*
X134446632Y-51306525D01*
X134272240Y-51190000D01*
X134446632Y-51073475D01*
X134653475Y-50866632D01*
X134815990Y-50623411D01*
X134927932Y-50353158D01*
X134985000Y-50066260D01*
X134985000Y-49773740D01*
X134927932Y-49486842D01*
X134815990Y-49216589D01*
X134653475Y-48973368D01*
X134446632Y-48766525D01*
X134203411Y-48604010D01*
X133933158Y-48492068D01*
X133646260Y-48435000D01*
X133353740Y-48435000D01*
X133066842Y-48492068D01*
X132796589Y-48604010D01*
X132553368Y-48766525D01*
X132346525Y-48973368D01*
X132217204Y-49166911D01*
X132175714Y-49170997D01*
X132032453Y-49214454D01*
X131900424Y-49285026D01*
X131784699Y-49379999D01*
X131760901Y-49408997D01*
X130754499Y-50415400D01*
X127488072Y-50415400D01*
X127488072Y-49150000D01*
X127475812Y-49025518D01*
X127439502Y-48905820D01*
X127380537Y-48795506D01*
X127301185Y-48698815D01*
X127204494Y-48619463D01*
X127094180Y-48560498D01*
X126974482Y-48524188D01*
X126850000Y-48511928D01*
X125150000Y-48511928D01*
X125025518Y-48524188D01*
X124905820Y-48560498D01*
X124795506Y-48619463D01*
X124698815Y-48698815D01*
X124653515Y-48754014D01*
X124646903Y-48747402D01*
X124623101Y-48718399D01*
X124507376Y-48623426D01*
X124375347Y-48552854D01*
X124232086Y-48509397D01*
X124120433Y-48498400D01*
X124120422Y-48498400D01*
X124083100Y-48494724D01*
X124045778Y-48498400D01*
X119626502Y-48498400D01*
X122364903Y-45760000D01*
X124721822Y-45760000D01*
X124846525Y-45946632D01*
X125053368Y-46153475D01*
X125296589Y-46315990D01*
X125566842Y-46427932D01*
X125853740Y-46485000D01*
X126146260Y-46485000D01*
X126433158Y-46427932D01*
X126703411Y-46315990D01*
X126946632Y-46153475D01*
X127153475Y-45946632D01*
X127315990Y-45703411D01*
X127427932Y-45433158D01*
X127485000Y-45146260D01*
X127485000Y-44853740D01*
X127427932Y-44566842D01*
X127315990Y-44296589D01*
X127153475Y-44053368D01*
X126946632Y-43846525D01*
X126772240Y-43730000D01*
X126946632Y-43613475D01*
X127153475Y-43406632D01*
X127315990Y-43163411D01*
X127427932Y-42893158D01*
X127485000Y-42606260D01*
X127485000Y-42313740D01*
X127427932Y-42026842D01*
X127315990Y-41756589D01*
X127153475Y-41513368D01*
X127021620Y-41381513D01*
X127094180Y-41359502D01*
X127204494Y-41300537D01*
X127301185Y-41221185D01*
X127380537Y-41124494D01*
X127439502Y-41014180D01*
X127475812Y-40894482D01*
X127488072Y-40770000D01*
X127488072Y-39070000D01*
X127475812Y-38945518D01*
X127439502Y-38825820D01*
X127380537Y-38715506D01*
X127301185Y-38618815D01*
X127204494Y-38539463D01*
X127094180Y-38480498D01*
X126974482Y-38444188D01*
X126850000Y-38431928D01*
X125150000Y-38431928D01*
X125025518Y-38444188D01*
X124905820Y-38480498D01*
X124795506Y-38539463D01*
X124698815Y-38618815D01*
X124619463Y-38715506D01*
X124560498Y-38825820D01*
X124524188Y-38945518D01*
X124511928Y-39070000D01*
X124511928Y-40770000D01*
X124524188Y-40894482D01*
X124560498Y-41014180D01*
X124619463Y-41124494D01*
X124698815Y-41221185D01*
X124795506Y-41300537D01*
X124905820Y-41359502D01*
X124978380Y-41381513D01*
X124846525Y-41513368D01*
X124721822Y-41700000D01*
X123990522Y-41700000D01*
X123953199Y-41696324D01*
X123915876Y-41700000D01*
X123915867Y-41700000D01*
X123804214Y-41710997D01*
X123660953Y-41754454D01*
X123528924Y-41825026D01*
X123528922Y-41825027D01*
X123528923Y-41825027D01*
X123442196Y-41896201D01*
X123442192Y-41896205D01*
X123413199Y-41919999D01*
X123389405Y-41948992D01*
X120305944Y-45032454D01*
X120284853Y-44926426D01*
X120176680Y-44665273D01*
X120019637Y-44430241D01*
X119819759Y-44230363D01*
X119584727Y-44073320D01*
X119323574Y-43965147D01*
X119046335Y-43910000D01*
X118763665Y-43910000D01*
X118486426Y-43965147D01*
X118225273Y-44073320D01*
X117990241Y-44230363D01*
X117790363Y-44430241D01*
X117635000Y-44662759D01*
X117479637Y-44430241D01*
X117279759Y-44230363D01*
X117044727Y-44073320D01*
X116783574Y-43965147D01*
X116506335Y-43910000D01*
X116223665Y-43910000D01*
X115946426Y-43965147D01*
X115685273Y-44073320D01*
X115450241Y-44230363D01*
X115250363Y-44430241D01*
X115095000Y-44662759D01*
X114939637Y-44430241D01*
X114739759Y-44230363D01*
X114504727Y-44073320D01*
X114243574Y-43965147D01*
X113966335Y-43910000D01*
X113683665Y-43910000D01*
X113406426Y-43965147D01*
X113145273Y-44073320D01*
X112910241Y-44230363D01*
X112710363Y-44430241D01*
X112555000Y-44662759D01*
X112399637Y-44430241D01*
X112199759Y-44230363D01*
X111964727Y-44073320D01*
X111703574Y-43965147D01*
X111426335Y-43910000D01*
X111143665Y-43910000D01*
X110866426Y-43965147D01*
X110605273Y-44073320D01*
X110370241Y-44230363D01*
X110170363Y-44430241D01*
X110015000Y-44662759D01*
X109859637Y-44430241D01*
X109659759Y-44230363D01*
X109424727Y-44073320D01*
X109163574Y-43965147D01*
X108886335Y-43910000D01*
X108603665Y-43910000D01*
X108326426Y-43965147D01*
X108065273Y-44073320D01*
X107830241Y-44230363D01*
X107630363Y-44430241D01*
X107475000Y-44662759D01*
X107319637Y-44430241D01*
X107119759Y-44230363D01*
X106884727Y-44073320D01*
X106623574Y-43965147D01*
X106346335Y-43910000D01*
X106063665Y-43910000D01*
X105786426Y-43965147D01*
X105525273Y-44073320D01*
X105290241Y-44230363D01*
X105090363Y-44430241D01*
X104935000Y-44662759D01*
X104779637Y-44430241D01*
X104579759Y-44230363D01*
X104344727Y-44073320D01*
X104083574Y-43965147D01*
X103806335Y-43910000D01*
X103523665Y-43910000D01*
X103246426Y-43965147D01*
X102985273Y-44073320D01*
X102750241Y-44230363D01*
X102550363Y-44430241D01*
X102395000Y-44662759D01*
X102239637Y-44430241D01*
X102039759Y-44230363D01*
X101804727Y-44073320D01*
X101543574Y-43965147D01*
X101266335Y-43910000D01*
X100983665Y-43910000D01*
X100706426Y-43965147D01*
X100445273Y-44073320D01*
X100210241Y-44230363D01*
X100010363Y-44430241D01*
X99855000Y-44662759D01*
X99699637Y-44430241D01*
X99499759Y-44230363D01*
X99264727Y-44073320D01*
X99003574Y-43965147D01*
X98726335Y-43910000D01*
X98443665Y-43910000D01*
X98166426Y-43965147D01*
X97905273Y-44073320D01*
X97670241Y-44230363D01*
X97470363Y-44430241D01*
X97315000Y-44662759D01*
X97159637Y-44430241D01*
X96959759Y-44230363D01*
X96724727Y-44073320D01*
X96463574Y-43965147D01*
X96186335Y-43910000D01*
X95903665Y-43910000D01*
X95626426Y-43965147D01*
X95365273Y-44073320D01*
X95130241Y-44230363D01*
X94930363Y-44430241D01*
X94775000Y-44662759D01*
X94619637Y-44430241D01*
X94419759Y-44230363D01*
X94184727Y-44073320D01*
X93923574Y-43965147D01*
X93646335Y-43910000D01*
X93363665Y-43910000D01*
X93086426Y-43965147D01*
X92825273Y-44073320D01*
X92590241Y-44230363D01*
X92390363Y-44430241D01*
X92235000Y-44662759D01*
X92079637Y-44430241D01*
X91879759Y-44230363D01*
X91644727Y-44073320D01*
X91383574Y-43965147D01*
X91106335Y-43910000D01*
X90823665Y-43910000D01*
X90546426Y-43965147D01*
X90285273Y-44073320D01*
X90050241Y-44230363D01*
X89850363Y-44430241D01*
X89695000Y-44662759D01*
X89539637Y-44430241D01*
X89339759Y-44230363D01*
X89104727Y-44073320D01*
X88843574Y-43965147D01*
X88566335Y-43910000D01*
X88283665Y-43910000D01*
X88006426Y-43965147D01*
X87745273Y-44073320D01*
X87510241Y-44230363D01*
X87310363Y-44430241D01*
X87155000Y-44662759D01*
X86999637Y-44430241D01*
X86799759Y-44230363D01*
X86564727Y-44073320D01*
X86303574Y-43965147D01*
X86026335Y-43910000D01*
X85743665Y-43910000D01*
X85466426Y-43965147D01*
X85205273Y-44073320D01*
X84970241Y-44230363D01*
X84770363Y-44430241D01*
X84615000Y-44662759D01*
X84459637Y-44430241D01*
X84259759Y-44230363D01*
X84024727Y-44073320D01*
X83763574Y-43965147D01*
X83486335Y-43910000D01*
X83203665Y-43910000D01*
X82926426Y-43965147D01*
X82665273Y-44073320D01*
X82430241Y-44230363D01*
X82230363Y-44430241D01*
X82075000Y-44662759D01*
X81919637Y-44430241D01*
X81719759Y-44230363D01*
X81484727Y-44073320D01*
X81223574Y-43965147D01*
X80946335Y-43910000D01*
X80663665Y-43910000D01*
X80386426Y-43965147D01*
X80125273Y-44073320D01*
X79890241Y-44230363D01*
X79690363Y-44430241D01*
X79535000Y-44662759D01*
X79379637Y-44430241D01*
X79179759Y-44230363D01*
X78944727Y-44073320D01*
X78683574Y-43965147D01*
X78406335Y-43910000D01*
X78123665Y-43910000D01*
X77846426Y-43965147D01*
X77585273Y-44073320D01*
X77350241Y-44230363D01*
X77150363Y-44430241D01*
X76995000Y-44662759D01*
X76839637Y-44430241D01*
X76639759Y-44230363D01*
X76404727Y-44073320D01*
X76143574Y-43965147D01*
X75866335Y-43910000D01*
X75583665Y-43910000D01*
X75306426Y-43965147D01*
X75045273Y-44073320D01*
X74810241Y-44230363D01*
X74610363Y-44430241D01*
X74455000Y-44662759D01*
X74299637Y-44430241D01*
X74099759Y-44230363D01*
X73864727Y-44073320D01*
X73603574Y-43965147D01*
X73326335Y-43910000D01*
X73043665Y-43910000D01*
X72766426Y-43965147D01*
X72505273Y-44073320D01*
X72270241Y-44230363D01*
X72070363Y-44430241D01*
X71915000Y-44662759D01*
X71759637Y-44430241D01*
X71559759Y-44230363D01*
X71324727Y-44073320D01*
X71063574Y-43965147D01*
X70786335Y-43910000D01*
X70503665Y-43910000D01*
X70226426Y-43965147D01*
X69965273Y-44073320D01*
X69730241Y-44230363D01*
X69660000Y-44300604D01*
X69660000Y-40251451D01*
X69756589Y-40315990D01*
X70026842Y-40427932D01*
X70313740Y-40485000D01*
X70606260Y-40485000D01*
X70893158Y-40427932D01*
X71163411Y-40315990D01*
X71406632Y-40153475D01*
X71613475Y-39946632D01*
X71730000Y-39772240D01*
X71846525Y-39946632D01*
X72053368Y-40153475D01*
X72296589Y-40315990D01*
X72566842Y-40427932D01*
X72853740Y-40485000D01*
X73146260Y-40485000D01*
X73433158Y-40427932D01*
X73703411Y-40315990D01*
X73946632Y-40153475D01*
X74153475Y-39946632D01*
X74270000Y-39772240D01*
X74386525Y-39946632D01*
X74593368Y-40153475D01*
X74836589Y-40315990D01*
X75106842Y-40427932D01*
X75393740Y-40485000D01*
X75686260Y-40485000D01*
X75973158Y-40427932D01*
X76243411Y-40315990D01*
X76486632Y-40153475D01*
X76693475Y-39946632D01*
X76810000Y-39772240D01*
X76926525Y-39946632D01*
X77133368Y-40153475D01*
X77376589Y-40315990D01*
X77646842Y-40427932D01*
X77933740Y-40485000D01*
X78226260Y-40485000D01*
X78513158Y-40427932D01*
X78783411Y-40315990D01*
X79026632Y-40153475D01*
X79233475Y-39946632D01*
X79350000Y-39772240D01*
X79466525Y-39946632D01*
X79673368Y-40153475D01*
X79916589Y-40315990D01*
X80186842Y-40427932D01*
X80473740Y-40485000D01*
X80766260Y-40485000D01*
X81053158Y-40427932D01*
X81323411Y-40315990D01*
X81566632Y-40153475D01*
X81773475Y-39946632D01*
X81890000Y-39772240D01*
X82006525Y-39946632D01*
X82213368Y-40153475D01*
X82456589Y-40315990D01*
X82726842Y-40427932D01*
X83013740Y-40485000D01*
X83306260Y-40485000D01*
X83593158Y-40427932D01*
X83863411Y-40315990D01*
X84106632Y-40153475D01*
X84313475Y-39946632D01*
X84430000Y-39772240D01*
X84546525Y-39946632D01*
X84753368Y-40153475D01*
X84996589Y-40315990D01*
X85266842Y-40427932D01*
X85553740Y-40485000D01*
X85846260Y-40485000D01*
X86133158Y-40427932D01*
X86403411Y-40315990D01*
X86646632Y-40153475D01*
X86853475Y-39946632D01*
X86970000Y-39772240D01*
X87086525Y-39946632D01*
X87293368Y-40153475D01*
X87536589Y-40315990D01*
X87806842Y-40427932D01*
X88093740Y-40485000D01*
X88386260Y-40485000D01*
X88673158Y-40427932D01*
X88943411Y-40315990D01*
X89186632Y-40153475D01*
X89393475Y-39946632D01*
X89510000Y-39772240D01*
X89626525Y-39946632D01*
X89833368Y-40153475D01*
X90076589Y-40315990D01*
X90346842Y-40427932D01*
X90633740Y-40485000D01*
X90926260Y-40485000D01*
X91213158Y-40427932D01*
X91483411Y-40315990D01*
X91726632Y-40153475D01*
X91933475Y-39946632D01*
X92050000Y-39772240D01*
X92166525Y-39946632D01*
X92373368Y-40153475D01*
X92616589Y-40315990D01*
X92886842Y-40427932D01*
X93173740Y-40485000D01*
X93466260Y-40485000D01*
X93753158Y-40427932D01*
X94023411Y-40315990D01*
X94266632Y-40153475D01*
X94473475Y-39946632D01*
X94590000Y-39772240D01*
X94706525Y-39946632D01*
X94913368Y-40153475D01*
X95156589Y-40315990D01*
X95426842Y-40427932D01*
X95713740Y-40485000D01*
X96006260Y-40485000D01*
X96293158Y-40427932D01*
X96563411Y-40315990D01*
X96806632Y-40153475D01*
X97013475Y-39946632D01*
X97130000Y-39772240D01*
X97246525Y-39946632D01*
X97453368Y-40153475D01*
X97696589Y-40315990D01*
X97966842Y-40427932D01*
X98253740Y-40485000D01*
X98546260Y-40485000D01*
X98833158Y-40427932D01*
X99103411Y-40315990D01*
X99346632Y-40153475D01*
X99553475Y-39946632D01*
X99670000Y-39772240D01*
X99786525Y-39946632D01*
X99993368Y-40153475D01*
X100236589Y-40315990D01*
X100506842Y-40427932D01*
X100793740Y-40485000D01*
X101086260Y-40485000D01*
X101373158Y-40427932D01*
X101643411Y-40315990D01*
X101886632Y-40153475D01*
X102093475Y-39946632D01*
X102210000Y-39772240D01*
X102326525Y-39946632D01*
X102533368Y-40153475D01*
X102776589Y-40315990D01*
X103046842Y-40427932D01*
X103333740Y-40485000D01*
X103626260Y-40485000D01*
X103913158Y-40427932D01*
X104183411Y-40315990D01*
X104426632Y-40153475D01*
X104633475Y-39946632D01*
X104750000Y-39772240D01*
X104866525Y-39946632D01*
X105073368Y-40153475D01*
X105316589Y-40315990D01*
X105586842Y-40427932D01*
X105873740Y-40485000D01*
X106166260Y-40485000D01*
X106453158Y-40427932D01*
X106723411Y-40315990D01*
X106966632Y-40153475D01*
X107173475Y-39946632D01*
X107290000Y-39772240D01*
X107406525Y-39946632D01*
X107613368Y-40153475D01*
X107856589Y-40315990D01*
X108126842Y-40427932D01*
X108413740Y-40485000D01*
X108706260Y-40485000D01*
X108993158Y-40427932D01*
X109263411Y-40315990D01*
X109506632Y-40153475D01*
X109713475Y-39946632D01*
X109830000Y-39772240D01*
X109946525Y-39946632D01*
X110153368Y-40153475D01*
X110396589Y-40315990D01*
X110666842Y-40427932D01*
X110953740Y-40485000D01*
X111246260Y-40485000D01*
X111533158Y-40427932D01*
X111803411Y-40315990D01*
X112046632Y-40153475D01*
X112253475Y-39946632D01*
X112370000Y-39772240D01*
X112486525Y-39946632D01*
X112693368Y-40153475D01*
X112936589Y-40315990D01*
X113206842Y-40427932D01*
X113493740Y-40485000D01*
X113786260Y-40485000D01*
X114073158Y-40427932D01*
X114343411Y-40315990D01*
X114586632Y-40153475D01*
X114793475Y-39946632D01*
X114910000Y-39772240D01*
X115026525Y-39946632D01*
X115233368Y-40153475D01*
X115476589Y-40315990D01*
X115746842Y-40427932D01*
X116033740Y-40485000D01*
X116326260Y-40485000D01*
X116613158Y-40427932D01*
X116883411Y-40315990D01*
X117126632Y-40153475D01*
X117258487Y-40021620D01*
X117280498Y-40094180D01*
X117339463Y-40204494D01*
X117418815Y-40301185D01*
X117515506Y-40380537D01*
X117625820Y-40439502D01*
X117745518Y-40475812D01*
X117870000Y-40488072D01*
X119570000Y-40488072D01*
X119694482Y-40475812D01*
X119814180Y-40439502D01*
X119924494Y-40380537D01*
X120021185Y-40301185D01*
X120100537Y-40204494D01*
X120159502Y-40094180D01*
X120195812Y-39974482D01*
X120208072Y-39850000D01*
X120208072Y-38150000D01*
X120195812Y-38025518D01*
X120159502Y-37905820D01*
X120100537Y-37795506D01*
X120021185Y-37698815D01*
X119924494Y-37619463D01*
X119814180Y-37560498D01*
X119694482Y-37524188D01*
X119570000Y-37511928D01*
X117870000Y-37511928D01*
X117745518Y-37524188D01*
X117625820Y-37560498D01*
X117515506Y-37619463D01*
X117418815Y-37698815D01*
X117339463Y-37795506D01*
X117280498Y-37905820D01*
X117258487Y-37978380D01*
X117126632Y-37846525D01*
X116883411Y-37684010D01*
X116613158Y-37572068D01*
X116326260Y-37515000D01*
X116033740Y-37515000D01*
X115746842Y-37572068D01*
X115476589Y-37684010D01*
X115233368Y-37846525D01*
X115026525Y-38053368D01*
X114910000Y-38227760D01*
X114793475Y-38053368D01*
X114586632Y-37846525D01*
X114343411Y-37684010D01*
X114073158Y-37572068D01*
X113786260Y-37515000D01*
X113493740Y-37515000D01*
X113206842Y-37572068D01*
X112936589Y-37684010D01*
X112693368Y-37846525D01*
X112486525Y-38053368D01*
X112370000Y-38227760D01*
X112253475Y-38053368D01*
X112046632Y-37846525D01*
X111803411Y-37684010D01*
X111533158Y-37572068D01*
X111246260Y-37515000D01*
X110953740Y-37515000D01*
X110666842Y-37572068D01*
X110396589Y-37684010D01*
X110153368Y-37846525D01*
X109946525Y-38053368D01*
X109830000Y-38227760D01*
X109713475Y-38053368D01*
X109506632Y-37846525D01*
X109263411Y-37684010D01*
X108993158Y-37572068D01*
X108706260Y-37515000D01*
X108413740Y-37515000D01*
X108126842Y-37572068D01*
X107856589Y-37684010D01*
X107613368Y-37846525D01*
X107406525Y-38053368D01*
X107290000Y-38227760D01*
X107173475Y-38053368D01*
X106966632Y-37846525D01*
X106723411Y-37684010D01*
X106453158Y-37572068D01*
X106166260Y-37515000D01*
X105873740Y-37515000D01*
X105586842Y-37572068D01*
X105316589Y-37684010D01*
X105073368Y-37846525D01*
X104866525Y-38053368D01*
X104750000Y-38227760D01*
X104633475Y-38053368D01*
X104426632Y-37846525D01*
X104183411Y-37684010D01*
X103913158Y-37572068D01*
X103626260Y-37515000D01*
X103333740Y-37515000D01*
X103046842Y-37572068D01*
X102776589Y-37684010D01*
X102533368Y-37846525D01*
X102326525Y-38053368D01*
X102210000Y-38227760D01*
X102093475Y-38053368D01*
X101886632Y-37846525D01*
X101643411Y-37684010D01*
X101373158Y-37572068D01*
X101086260Y-37515000D01*
X100793740Y-37515000D01*
X100506842Y-37572068D01*
X100236589Y-37684010D01*
X99993368Y-37846525D01*
X99786525Y-38053368D01*
X99670000Y-38227760D01*
X99553475Y-38053368D01*
X99346632Y-37846525D01*
X99103411Y-37684010D01*
X98833158Y-37572068D01*
X98546260Y-37515000D01*
X98253740Y-37515000D01*
X97966842Y-37572068D01*
X97696589Y-37684010D01*
X97453368Y-37846525D01*
X97246525Y-38053368D01*
X97130000Y-38227760D01*
X97013475Y-38053368D01*
X96806632Y-37846525D01*
X96563411Y-37684010D01*
X96293158Y-37572068D01*
X96006260Y-37515000D01*
X95713740Y-37515000D01*
X95426842Y-37572068D01*
X95156589Y-37684010D01*
X94913368Y-37846525D01*
X94706525Y-38053368D01*
X94590000Y-38227760D01*
X94473475Y-38053368D01*
X94266632Y-37846525D01*
X94023411Y-37684010D01*
X93753158Y-37572068D01*
X93466260Y-37515000D01*
X93173740Y-37515000D01*
X92886842Y-37572068D01*
X92616589Y-37684010D01*
X92373368Y-37846525D01*
X92166525Y-38053368D01*
X92050000Y-38227760D01*
X91933475Y-38053368D01*
X91726632Y-37846525D01*
X91483411Y-37684010D01*
X91213158Y-37572068D01*
X90926260Y-37515000D01*
X90633740Y-37515000D01*
X90346842Y-37572068D01*
X90076589Y-37684010D01*
X89833368Y-37846525D01*
X89626525Y-38053368D01*
X89510000Y-38227760D01*
X89393475Y-38053368D01*
X89186632Y-37846525D01*
X88943411Y-37684010D01*
X88673158Y-37572068D01*
X88386260Y-37515000D01*
X88093740Y-37515000D01*
X87806842Y-37572068D01*
X87536589Y-37684010D01*
X87293368Y-37846525D01*
X87086525Y-38053368D01*
X86970000Y-38227760D01*
X86853475Y-38053368D01*
X86646632Y-37846525D01*
X86403411Y-37684010D01*
X86133158Y-37572068D01*
X85846260Y-37515000D01*
X85553740Y-37515000D01*
X85266842Y-37572068D01*
X84996589Y-37684010D01*
X84753368Y-37846525D01*
X84546525Y-38053368D01*
X84430000Y-38227760D01*
X84313475Y-38053368D01*
X84106632Y-37846525D01*
X83863411Y-37684010D01*
X83593158Y-37572068D01*
X83306260Y-37515000D01*
X83013740Y-37515000D01*
X82726842Y-37572068D01*
X82456589Y-37684010D01*
X82213368Y-37846525D01*
X82006525Y-38053368D01*
X81890000Y-38227760D01*
X81773475Y-38053368D01*
X81566632Y-37846525D01*
X81323411Y-37684010D01*
X81053158Y-37572068D01*
X80766260Y-37515000D01*
X80473740Y-37515000D01*
X80186842Y-37572068D01*
X79916589Y-37684010D01*
X79673368Y-37846525D01*
X79466525Y-38053368D01*
X79350000Y-38227760D01*
X79233475Y-38053368D01*
X79026632Y-37846525D01*
X78783411Y-37684010D01*
X78513158Y-37572068D01*
X78226260Y-37515000D01*
X77933740Y-37515000D01*
X77646842Y-37572068D01*
X77376589Y-37684010D01*
X77133368Y-37846525D01*
X76926525Y-38053368D01*
X76810000Y-38227760D01*
X76693475Y-38053368D01*
X76486632Y-37846525D01*
X76243411Y-37684010D01*
X75973158Y-37572068D01*
X75686260Y-37515000D01*
X75393740Y-37515000D01*
X75106842Y-37572068D01*
X74836589Y-37684010D01*
X74593368Y-37846525D01*
X74386525Y-38053368D01*
X74270000Y-38227760D01*
X74153475Y-38053368D01*
X73946632Y-37846525D01*
X73703411Y-37684010D01*
X73433158Y-37572068D01*
X73146260Y-37515000D01*
X72853740Y-37515000D01*
X72566842Y-37572068D01*
X72296589Y-37684010D01*
X72053368Y-37846525D01*
X71846525Y-38053368D01*
X71730000Y-38227760D01*
X71613475Y-38053368D01*
X71406632Y-37846525D01*
X71163411Y-37684010D01*
X70893158Y-37572068D01*
X70606260Y-37515000D01*
X70313740Y-37515000D01*
X70026842Y-37572068D01*
X69756589Y-37684010D01*
X69660000Y-37748549D01*
X69660000Y-30725701D01*
X72215000Y-30725701D01*
X72215000Y-31274299D01*
X72322026Y-31812354D01*
X72531965Y-32319192D01*
X72836750Y-32775334D01*
X73224666Y-33163250D01*
X73680808Y-33468035D01*
X74187646Y-33677974D01*
X74725701Y-33785000D01*
X75274299Y-33785000D01*
X75812354Y-33677974D01*
X76319192Y-33468035D01*
X76775334Y-33163250D01*
X77163250Y-32775334D01*
X77468035Y-32319192D01*
X77677974Y-31812354D01*
X77785000Y-31274299D01*
X77785000Y-30725701D01*
X129215000Y-30725701D01*
X129215000Y-31274299D01*
X129322026Y-31812354D01*
X129531965Y-32319192D01*
X129836750Y-32775334D01*
X130224666Y-33163250D01*
X130680808Y-33468035D01*
X131187646Y-33677974D01*
X131725701Y-33785000D01*
X132274299Y-33785000D01*
X132812354Y-33677974D01*
X133319192Y-33468035D01*
X133775334Y-33163250D01*
X134163250Y-32775334D01*
X134468035Y-32319192D01*
X134677974Y-31812354D01*
X134785000Y-31274299D01*
X134785000Y-30725701D01*
X134677974Y-30187646D01*
X134468035Y-29680808D01*
X134163250Y-29224666D01*
X133775334Y-28836750D01*
X133319192Y-28531965D01*
X132812354Y-28322026D01*
X132274299Y-28215000D01*
X131725701Y-28215000D01*
X131187646Y-28322026D01*
X130680808Y-28531965D01*
X130224666Y-28836750D01*
X129836750Y-29224666D01*
X129531965Y-29680808D01*
X129322026Y-30187646D01*
X129215000Y-30725701D01*
X77785000Y-30725701D01*
X77677974Y-30187646D01*
X77468035Y-29680808D01*
X77163250Y-29224666D01*
X76775334Y-28836750D01*
X76319192Y-28531965D01*
X75812354Y-28322026D01*
X75274299Y-28215000D01*
X74725701Y-28215000D01*
X74187646Y-28322026D01*
X73680808Y-28531965D01*
X73224666Y-28836750D01*
X72836750Y-29224666D01*
X72531965Y-29680808D01*
X72322026Y-30187646D01*
X72215000Y-30725701D01*
X69660000Y-30725701D01*
X69660000Y-25660000D01*
X137340000Y-25660000D01*
X137340001Y-28967572D01*
G37*
X137340001Y-28967572D02*
X137340000Y-28967582D01*
X137340001Y-79340000D01*
X69660000Y-79340000D01*
X69660000Y-74725701D01*
X72215000Y-74725701D01*
X72215000Y-75274299D01*
X72322026Y-75812354D01*
X72531965Y-76319192D01*
X72836750Y-76775334D01*
X73224666Y-77163250D01*
X73680808Y-77468035D01*
X74187646Y-77677974D01*
X74725701Y-77785000D01*
X75274299Y-77785000D01*
X75812354Y-77677974D01*
X76319192Y-77468035D01*
X76775334Y-77163250D01*
X77163250Y-76775334D01*
X77468035Y-76319192D01*
X77677974Y-75812354D01*
X77785000Y-75274299D01*
X77785000Y-74725701D01*
X77677974Y-74187646D01*
X77486631Y-73725701D01*
X129215000Y-73725701D01*
X129215000Y-74274299D01*
X129322026Y-74812354D01*
X129531965Y-75319192D01*
X129836750Y-75775334D01*
X130224666Y-76163250D01*
X130680808Y-76468035D01*
X131187646Y-76677974D01*
X131725701Y-76785000D01*
X132274299Y-76785000D01*
X132812354Y-76677974D01*
X133319192Y-76468035D01*
X133775334Y-76163250D01*
X134163250Y-75775334D01*
X134468035Y-75319192D01*
X134677974Y-74812354D01*
X134785000Y-74274299D01*
X134785000Y-73725701D01*
X134677974Y-73187646D01*
X134468035Y-72680808D01*
X134163250Y-72224666D01*
X133775334Y-71836750D01*
X133319192Y-71531965D01*
X132812354Y-71322026D01*
X132274299Y-71215000D01*
X131725701Y-71215000D01*
X131187646Y-71322026D01*
X130680808Y-71531965D01*
X130224666Y-71836750D01*
X129836750Y-72224666D01*
X129531965Y-72680808D01*
X129322026Y-73187646D01*
X129215000Y-73725701D01*
X77486631Y-73725701D01*
X77468035Y-73680808D01*
X77163250Y-73224666D01*
X76775334Y-72836750D01*
X76319192Y-72531965D01*
X75812354Y-72322026D01*
X75274299Y-72215000D01*
X74725701Y-72215000D01*
X74187646Y-72322026D01*
X73680808Y-72531965D01*
X73224666Y-72836750D01*
X72836750Y-73224666D01*
X72531965Y-73680808D01*
X72322026Y-74187646D01*
X72215000Y-74725701D01*
X69660000Y-74725701D01*
X69660000Y-67462004D01*
X69705518Y-67475812D01*
X69830000Y-67488072D01*
X71530000Y-67488072D01*
X71654482Y-67475812D01*
X71774180Y-67439502D01*
X71884494Y-67380537D01*
X71981185Y-67301185D01*
X72060537Y-67204494D01*
X72119502Y-67094180D01*
X72141513Y-67021620D01*
X72273368Y-67153475D01*
X72516589Y-67315990D01*
X72786842Y-67427932D01*
X73073740Y-67485000D01*
X73366260Y-67485000D01*
X73653158Y-67427932D01*
X73923411Y-67315990D01*
X74166632Y-67153475D01*
X74373475Y-66946632D01*
X74490000Y-66772240D01*
X74606525Y-66946632D01*
X74813368Y-67153475D01*
X75056589Y-67315990D01*
X75326842Y-67427932D01*
X75613740Y-67485000D01*
X75906260Y-67485000D01*
X76193158Y-67427932D01*
X76463411Y-67315990D01*
X76706632Y-67153475D01*
X76913475Y-66946632D01*
X77030000Y-66772240D01*
X77146525Y-66946632D01*
X77353368Y-67153475D01*
X77596589Y-67315990D01*
X77866842Y-67427932D01*
X78153740Y-67485000D01*
X78446260Y-67485000D01*
X78733158Y-67427932D01*
X79003411Y-67315990D01*
X79246632Y-67153475D01*
X79453475Y-66946632D01*
X79570000Y-66772240D01*
X79686525Y-66946632D01*
X79893368Y-67153475D01*
X80136589Y-67315990D01*
X80406842Y-67427932D01*
X80693740Y-67485000D01*
X80986260Y-67485000D01*
X81273158Y-67427932D01*
X81543411Y-67315990D01*
X81786632Y-67153475D01*
X81993475Y-66946632D01*
X82110000Y-66772240D01*
X82226525Y-66946632D01*
X82433368Y-67153475D01*
X82676589Y-67315990D01*
X82946842Y-67427932D01*
X83233740Y-67485000D01*
X83526260Y-67485000D01*
X83813158Y-67427932D01*
X84083411Y-67315990D01*
X84326632Y-67153475D01*
X84533475Y-66946632D01*
X84650000Y-66772240D01*
X84766525Y-66946632D01*
X84973368Y-67153475D01*
X85216589Y-67315990D01*
X85486842Y-67427932D01*
X85773740Y-67485000D01*
X86066260Y-67485000D01*
X86353158Y-67427932D01*
X86623411Y-67315990D01*
X86866632Y-67153475D01*
X87073475Y-66946632D01*
X87190000Y-66772240D01*
X87306525Y-66946632D01*
X87513368Y-67153475D01*
X87756589Y-67315990D01*
X88026842Y-67427932D01*
X88313740Y-67485000D01*
X88606260Y-67485000D01*
X88893158Y-67427932D01*
X89163411Y-67315990D01*
X89406632Y-67153475D01*
X89613475Y-66946632D01*
X89730000Y-66772240D01*
X89846525Y-66946632D01*
X90053368Y-67153475D01*
X90296589Y-67315990D01*
X90566842Y-67427932D01*
X90853740Y-67485000D01*
X91146260Y-67485000D01*
X91433158Y-67427932D01*
X91703411Y-67315990D01*
X91946632Y-67153475D01*
X92153475Y-66946632D01*
X92270000Y-66772240D01*
X92386525Y-66946632D01*
X92593368Y-67153475D01*
X92836589Y-67315990D01*
X93106842Y-67427932D01*
X93393740Y-67485000D01*
X93686260Y-67485000D01*
X93973158Y-67427932D01*
X94243411Y-67315990D01*
X94486632Y-67153475D01*
X94693475Y-66946632D01*
X94810000Y-66772240D01*
X94926525Y-66946632D01*
X95133368Y-67153475D01*
X95376589Y-67315990D01*
X95646842Y-67427932D01*
X95933740Y-67485000D01*
X96226260Y-67485000D01*
X96513158Y-67427932D01*
X96783411Y-67315990D01*
X97026632Y-67153475D01*
X97233475Y-66946632D01*
X97350000Y-66772240D01*
X97466525Y-66946632D01*
X97673368Y-67153475D01*
X97916589Y-67315990D01*
X98186842Y-67427932D01*
X98473740Y-67485000D01*
X98766260Y-67485000D01*
X99053158Y-67427932D01*
X99323411Y-67315990D01*
X99566632Y-67153475D01*
X99773475Y-66946632D01*
X99890000Y-66772240D01*
X100006525Y-66946632D01*
X100213368Y-67153475D01*
X100456589Y-67315990D01*
X100726842Y-67427932D01*
X101013740Y-67485000D01*
X101306260Y-67485000D01*
X101593158Y-67427932D01*
X101863411Y-67315990D01*
X102106632Y-67153475D01*
X102313475Y-66946632D01*
X102430000Y-66772240D01*
X102546525Y-66946632D01*
X102753368Y-67153475D01*
X102996589Y-67315990D01*
X103266842Y-67427932D01*
X103553740Y-67485000D01*
X103846260Y-67485000D01*
X104133158Y-67427932D01*
X104403411Y-67315990D01*
X104646632Y-67153475D01*
X104853475Y-66946632D01*
X104970000Y-66772240D01*
X105086525Y-66946632D01*
X105293368Y-67153475D01*
X105536589Y-67315990D01*
X105806842Y-67427932D01*
X106093740Y-67485000D01*
X106386260Y-67485000D01*
X106673158Y-67427932D01*
X106943411Y-67315990D01*
X107186632Y-67153475D01*
X107393475Y-66946632D01*
X107510000Y-66772240D01*
X107626525Y-66946632D01*
X107833368Y-67153475D01*
X108076589Y-67315990D01*
X108346842Y-67427932D01*
X108633740Y-67485000D01*
X108926260Y-67485000D01*
X109213158Y-67427932D01*
X109483411Y-67315990D01*
X109726632Y-67153475D01*
X109933475Y-66946632D01*
X110050000Y-66772240D01*
X110166525Y-66946632D01*
X110373368Y-67153475D01*
X110616589Y-67315990D01*
X110886842Y-67427932D01*
X111173740Y-67485000D01*
X111466260Y-67485000D01*
X111753158Y-67427932D01*
X112023411Y-67315990D01*
X112266632Y-67153475D01*
X112473475Y-66946632D01*
X112590000Y-66772240D01*
X112706525Y-66946632D01*
X112913368Y-67153475D01*
X113156589Y-67315990D01*
X113426842Y-67427932D01*
X113713740Y-67485000D01*
X114006260Y-67485000D01*
X114293158Y-67427932D01*
X114563411Y-67315990D01*
X114806632Y-67153475D01*
X115013475Y-66946632D01*
X115130000Y-66772240D01*
X115246525Y-66946632D01*
X115453368Y-67153475D01*
X115696589Y-67315990D01*
X115966842Y-67427932D01*
X116253740Y-67485000D01*
X116546260Y-67485000D01*
X116833158Y-67427932D01*
X117103411Y-67315990D01*
X117346632Y-67153475D01*
X117553475Y-66946632D01*
X117670000Y-66772240D01*
X117786525Y-66946632D01*
X117993368Y-67153475D01*
X118236589Y-67315990D01*
X118506842Y-67427932D01*
X118793740Y-67485000D01*
X119086260Y-67485000D01*
X119373158Y-67427932D01*
X119643411Y-67315990D01*
X119886632Y-67153475D01*
X120093475Y-66946632D01*
X120255990Y-66703411D01*
X120367932Y-66433158D01*
X120425000Y-66146260D01*
X120425000Y-65853740D01*
X120367932Y-65566842D01*
X120255990Y-65296589D01*
X120093475Y-65053368D01*
X119886632Y-64846525D01*
X119643411Y-64684010D01*
X119373158Y-64572068D01*
X119086260Y-64515000D01*
X118793740Y-64515000D01*
X118506842Y-64572068D01*
X118236589Y-64684010D01*
X117993368Y-64846525D01*
X117786525Y-65053368D01*
X117670000Y-65227760D01*
X117553475Y-65053368D01*
X117346632Y-64846525D01*
X117103411Y-64684010D01*
X116833158Y-64572068D01*
X116546260Y-64515000D01*
X116253740Y-64515000D01*
X115966842Y-64572068D01*
X115696589Y-64684010D01*
X115453368Y-64846525D01*
X115246525Y-65053368D01*
X115130000Y-65227760D01*
X115013475Y-65053368D01*
X114806632Y-64846525D01*
X114563411Y-64684010D01*
X114293158Y-64572068D01*
X114006260Y-64515000D01*
X113713740Y-64515000D01*
X113426842Y-64572068D01*
X113156589Y-64684010D01*
X112913368Y-64846525D01*
X112706525Y-65053368D01*
X112590000Y-65227760D01*
X112473475Y-65053368D01*
X112266632Y-64846525D01*
X112023411Y-64684010D01*
X111753158Y-64572068D01*
X111466260Y-64515000D01*
X111173740Y-64515000D01*
X110886842Y-64572068D01*
X110616589Y-64684010D01*
X110373368Y-64846525D01*
X110166525Y-65053368D01*
X110050000Y-65227760D01*
X109933475Y-65053368D01*
X109726632Y-64846525D01*
X109483411Y-64684010D01*
X109213158Y-64572068D01*
X108926260Y-64515000D01*
X108633740Y-64515000D01*
X108346842Y-64572068D01*
X108076589Y-64684010D01*
X107833368Y-64846525D01*
X107626525Y-65053368D01*
X107510000Y-65227760D01*
X107393475Y-65053368D01*
X107186632Y-64846525D01*
X106943411Y-64684010D01*
X106673158Y-64572068D01*
X106386260Y-64515000D01*
X106093740Y-64515000D01*
X105806842Y-64572068D01*
X105536589Y-64684010D01*
X105293368Y-64846525D01*
X105086525Y-65053368D01*
X104970000Y-65227760D01*
X104853475Y-65053368D01*
X104646632Y-64846525D01*
X104403411Y-64684010D01*
X104133158Y-64572068D01*
X103846260Y-64515000D01*
X103553740Y-64515000D01*
X103266842Y-64572068D01*
X102996589Y-64684010D01*
X102753368Y-64846525D01*
X102546525Y-65053368D01*
X102430000Y-65227760D01*
X102313475Y-65053368D01*
X102106632Y-64846525D01*
X101863411Y-64684010D01*
X101593158Y-64572068D01*
X101306260Y-64515000D01*
X101013740Y-64515000D01*
X100726842Y-64572068D01*
X100456589Y-64684010D01*
X100213368Y-64846525D01*
X100006525Y-65053368D01*
X99890000Y-65227760D01*
X99773475Y-65053368D01*
X99566632Y-64846525D01*
X99323411Y-64684010D01*
X99053158Y-64572068D01*
X98766260Y-64515000D01*
X98473740Y-64515000D01*
X98186842Y-64572068D01*
X97916589Y-64684010D01*
X97673368Y-64846525D01*
X97466525Y-65053368D01*
X97350000Y-65227760D01*
X97233475Y-65053368D01*
X97026632Y-64846525D01*
X96783411Y-64684010D01*
X96513158Y-64572068D01*
X96226260Y-64515000D01*
X95933740Y-64515000D01*
X95646842Y-64572068D01*
X95376589Y-64684010D01*
X95133368Y-64846525D01*
X94926525Y-65053368D01*
X94810000Y-65227760D01*
X94693475Y-65053368D01*
X94486632Y-64846525D01*
X94243411Y-64684010D01*
X93973158Y-64572068D01*
X93686260Y-64515000D01*
X93393740Y-64515000D01*
X93106842Y-64572068D01*
X92836589Y-64684010D01*
X92593368Y-64846525D01*
X92386525Y-65053368D01*
X92270000Y-65227760D01*
X92153475Y-65053368D01*
X91946632Y-64846525D01*
X91703411Y-64684010D01*
X91433158Y-64572068D01*
X91146260Y-64515000D01*
X90853740Y-64515000D01*
X90566842Y-64572068D01*
X90296589Y-64684010D01*
X90053368Y-64846525D01*
X89846525Y-65053368D01*
X89730000Y-65227760D01*
X89613475Y-65053368D01*
X89406632Y-64846525D01*
X89163411Y-64684010D01*
X88893158Y-64572068D01*
X88606260Y-64515000D01*
X88313740Y-64515000D01*
X88026842Y-64572068D01*
X87756589Y-64684010D01*
X87513368Y-64846525D01*
X87306525Y-65053368D01*
X87190000Y-65227760D01*
X87073475Y-65053368D01*
X86866632Y-64846525D01*
X86623411Y-64684010D01*
X86353158Y-64572068D01*
X86066260Y-64515000D01*
X85773740Y-64515000D01*
X85486842Y-64572068D01*
X85216589Y-64684010D01*
X84973368Y-64846525D01*
X84766525Y-65053368D01*
X84650000Y-65227760D01*
X84533475Y-65053368D01*
X84326632Y-64846525D01*
X84083411Y-64684010D01*
X83813158Y-64572068D01*
X83526260Y-64515000D01*
X83233740Y-64515000D01*
X82946842Y-64572068D01*
X82676589Y-64684010D01*
X82433368Y-64846525D01*
X82226525Y-65053368D01*
X82110000Y-65227760D01*
X81993475Y-65053368D01*
X81786632Y-64846525D01*
X81543411Y-64684010D01*
X81273158Y-64572068D01*
X80986260Y-64515000D01*
X80693740Y-64515000D01*
X80406842Y-64572068D01*
X80136589Y-64684010D01*
X79893368Y-64846525D01*
X79686525Y-65053368D01*
X79570000Y-65227760D01*
X79453475Y-65053368D01*
X79246632Y-64846525D01*
X79003411Y-64684010D01*
X78733158Y-64572068D01*
X78446260Y-64515000D01*
X78153740Y-64515000D01*
X77866842Y-64572068D01*
X77596589Y-64684010D01*
X77353368Y-64846525D01*
X77146525Y-65053368D01*
X77030000Y-65227760D01*
X76913475Y-65053368D01*
X76706632Y-64846525D01*
X76463411Y-64684010D01*
X76193158Y-64572068D01*
X75906260Y-64515000D01*
X75613740Y-64515000D01*
X75326842Y-64572068D01*
X75056589Y-64684010D01*
X74813368Y-64846525D01*
X74606525Y-65053368D01*
X74490000Y-65227760D01*
X74373475Y-65053368D01*
X74166632Y-64846525D01*
X73923411Y-64684010D01*
X73653158Y-64572068D01*
X73366260Y-64515000D01*
X73073740Y-64515000D01*
X72786842Y-64572068D01*
X72516589Y-64684010D01*
X72273368Y-64846525D01*
X72141513Y-64978380D01*
X72119502Y-64905820D01*
X72060537Y-64795506D01*
X71981185Y-64698815D01*
X71884494Y-64619463D01*
X71774180Y-64560498D01*
X71654482Y-64524188D01*
X71530000Y-64511928D01*
X69830000Y-64511928D01*
X69705518Y-64524188D01*
X69660000Y-64537996D01*
X69660000Y-61992454D01*
X69720518Y-62010812D01*
X69845000Y-62023072D01*
X71445000Y-62023072D01*
X71569482Y-62010812D01*
X71689180Y-61974502D01*
X71799494Y-61915537D01*
X71896185Y-61836185D01*
X71975537Y-61739494D01*
X72034502Y-61629180D01*
X72070812Y-61509482D01*
X72071643Y-61501039D01*
X72270241Y-61699637D01*
X72505273Y-61856680D01*
X72766426Y-61964853D01*
X73043665Y-62020000D01*
X73326335Y-62020000D01*
X73603574Y-61964853D01*
X73864727Y-61856680D01*
X74099759Y-61699637D01*
X74299637Y-61499759D01*
X74455000Y-61267241D01*
X74610363Y-61499759D01*
X74810241Y-61699637D01*
X75045273Y-61856680D01*
X75306426Y-61964853D01*
X75583665Y-62020000D01*
X75866335Y-62020000D01*
X76143574Y-61964853D01*
X76404727Y-61856680D01*
X76639759Y-61699637D01*
X76839637Y-61499759D01*
X76995000Y-61267241D01*
X77150363Y-61499759D01*
X77350241Y-61699637D01*
X77585273Y-61856680D01*
X77846426Y-61964853D01*
X78123665Y-62020000D01*
X78406335Y-62020000D01*
X78683574Y-61964853D01*
X78944727Y-61856680D01*
X79179759Y-61699637D01*
X79379637Y-61499759D01*
X79535000Y-61267241D01*
X79690363Y-61499759D01*
X79890241Y-61699637D01*
X80125273Y-61856680D01*
X80386426Y-61964853D01*
X80663665Y-62020000D01*
X80946335Y-62020000D01*
X81223574Y-61964853D01*
X81484727Y-61856680D01*
X81719759Y-61699637D01*
X81919637Y-61499759D01*
X82075000Y-61267241D01*
X82230363Y-61499759D01*
X82430241Y-61699637D01*
X82665273Y-61856680D01*
X82926426Y-61964853D01*
X83203665Y-62020000D01*
X83486335Y-62020000D01*
X83763574Y-61964853D01*
X84024727Y-61856680D01*
X84259759Y-61699637D01*
X84459637Y-61499759D01*
X84615000Y-61267241D01*
X84770363Y-61499759D01*
X84970241Y-61699637D01*
X85205273Y-61856680D01*
X85466426Y-61964853D01*
X85743665Y-62020000D01*
X86026335Y-62020000D01*
X86303574Y-61964853D01*
X86564727Y-61856680D01*
X86799759Y-61699637D01*
X86999637Y-61499759D01*
X87155000Y-61267241D01*
X87310363Y-61499759D01*
X87510241Y-61699637D01*
X87745273Y-61856680D01*
X88006426Y-61964853D01*
X88283665Y-62020000D01*
X88566335Y-62020000D01*
X88843574Y-61964853D01*
X89104727Y-61856680D01*
X89339759Y-61699637D01*
X89539637Y-61499759D01*
X89695000Y-61267241D01*
X89850363Y-61499759D01*
X90050241Y-61699637D01*
X90285273Y-61856680D01*
X90546426Y-61964853D01*
X90823665Y-62020000D01*
X91106335Y-62020000D01*
X91383574Y-61964853D01*
X91644727Y-61856680D01*
X91879759Y-61699637D01*
X92079637Y-61499759D01*
X92235000Y-61267241D01*
X92390363Y-61499759D01*
X92590241Y-61699637D01*
X92825273Y-61856680D01*
X93086426Y-61964853D01*
X93363665Y-62020000D01*
X93646335Y-62020000D01*
X93923574Y-61964853D01*
X94184727Y-61856680D01*
X94419759Y-61699637D01*
X94619637Y-61499759D01*
X94775000Y-61267241D01*
X94930363Y-61499759D01*
X95130241Y-61699637D01*
X95365273Y-61856680D01*
X95626426Y-61964853D01*
X95903665Y-62020000D01*
X96186335Y-62020000D01*
X96463574Y-61964853D01*
X96724727Y-61856680D01*
X96959759Y-61699637D01*
X97159637Y-61499759D01*
X97315000Y-61267241D01*
X97470363Y-61499759D01*
X97670241Y-61699637D01*
X97905273Y-61856680D01*
X98166426Y-61964853D01*
X98443665Y-62020000D01*
X98726335Y-62020000D01*
X99003574Y-61964853D01*
X99264727Y-61856680D01*
X99499759Y-61699637D01*
X99699637Y-61499759D01*
X99855000Y-61267241D01*
X100010363Y-61499759D01*
X100210241Y-61699637D01*
X100445273Y-61856680D01*
X100706426Y-61964853D01*
X100983665Y-62020000D01*
X101266335Y-62020000D01*
X101543574Y-61964853D01*
X101804727Y-61856680D01*
X102039759Y-61699637D01*
X102239637Y-61499759D01*
X102395000Y-61267241D01*
X102550363Y-61499759D01*
X102750241Y-61699637D01*
X102985273Y-61856680D01*
X103246426Y-61964853D01*
X103523665Y-62020000D01*
X103806335Y-62020000D01*
X104083574Y-61964853D01*
X104344727Y-61856680D01*
X104579759Y-61699637D01*
X104779637Y-61499759D01*
X104935000Y-61267241D01*
X105090363Y-61499759D01*
X105290241Y-61699637D01*
X105525273Y-61856680D01*
X105786426Y-61964853D01*
X106063665Y-62020000D01*
X106346335Y-62020000D01*
X106623574Y-61964853D01*
X106884727Y-61856680D01*
X107119759Y-61699637D01*
X107319637Y-61499759D01*
X107475000Y-61267241D01*
X107630363Y-61499759D01*
X107830241Y-61699637D01*
X108065273Y-61856680D01*
X108326426Y-61964853D01*
X108603665Y-62020000D01*
X108886335Y-62020000D01*
X109163574Y-61964853D01*
X109424727Y-61856680D01*
X109659759Y-61699637D01*
X109859637Y-61499759D01*
X110015000Y-61267241D01*
X110170363Y-61499759D01*
X110370241Y-61699637D01*
X110605273Y-61856680D01*
X110866426Y-61964853D01*
X111143665Y-62020000D01*
X111426335Y-62020000D01*
X111703574Y-61964853D01*
X111964727Y-61856680D01*
X112199759Y-61699637D01*
X112399637Y-61499759D01*
X112555000Y-61267241D01*
X112710363Y-61499759D01*
X112910241Y-61699637D01*
X113145273Y-61856680D01*
X113406426Y-61964853D01*
X113683665Y-62020000D01*
X113966335Y-62020000D01*
X114243574Y-61964853D01*
X114504727Y-61856680D01*
X114739759Y-61699637D01*
X114939637Y-61499759D01*
X115095000Y-61267241D01*
X115250363Y-61499759D01*
X115450241Y-61699637D01*
X115685273Y-61856680D01*
X115946426Y-61964853D01*
X116223665Y-62020000D01*
X116506335Y-62020000D01*
X116783574Y-61964853D01*
X117044727Y-61856680D01*
X117279759Y-61699637D01*
X117479637Y-61499759D01*
X117635000Y-61267241D01*
X117790363Y-61499759D01*
X117990241Y-61699637D01*
X118225273Y-61856680D01*
X118486426Y-61964853D01*
X118763665Y-62020000D01*
X119046335Y-62020000D01*
X119323574Y-61964853D01*
X119584727Y-61856680D01*
X119819759Y-61699637D01*
X120019637Y-61499759D01*
X120176680Y-61264727D01*
X120284853Y-61003574D01*
X120340000Y-60726335D01*
X120340000Y-60443665D01*
X120284853Y-60166426D01*
X120278050Y-60150000D01*
X124511928Y-60150000D01*
X124511928Y-61850000D01*
X124524188Y-61974482D01*
X124560498Y-62094180D01*
X124619463Y-62204494D01*
X124698815Y-62301185D01*
X124795506Y-62380537D01*
X124905820Y-62439502D01*
X124978380Y-62461513D01*
X124846525Y-62593368D01*
X124684010Y-62836589D01*
X124572068Y-63106842D01*
X124515000Y-63393740D01*
X124515000Y-63686260D01*
X124572068Y-63973158D01*
X124684010Y-64243411D01*
X124846525Y-64486632D01*
X125053368Y-64693475D01*
X125227760Y-64810000D01*
X125053368Y-64926525D01*
X124846525Y-65133368D01*
X124684010Y-65376589D01*
X124572068Y-65646842D01*
X124515000Y-65933740D01*
X124515000Y-66226260D01*
X124572068Y-66513158D01*
X124684010Y-66783411D01*
X124846525Y-67026632D01*
X125053368Y-67233475D01*
X125296589Y-67395990D01*
X125566842Y-67507932D01*
X125853740Y-67565000D01*
X126146260Y-67565000D01*
X126433158Y-67507932D01*
X126703411Y-67395990D01*
X126946632Y-67233475D01*
X127153475Y-67026632D01*
X127315990Y-66783411D01*
X127427932Y-66513158D01*
X127485000Y-66226260D01*
X127485000Y-65933740D01*
X127427932Y-65646842D01*
X127315990Y-65376589D01*
X127153475Y-65133368D01*
X126946632Y-64926525D01*
X126772240Y-64810000D01*
X126946632Y-64693475D01*
X127153475Y-64486632D01*
X127315990Y-64243411D01*
X127427932Y-63973158D01*
X127485000Y-63686260D01*
X127485000Y-63393740D01*
X127427932Y-63106842D01*
X127315990Y-62836589D01*
X127153475Y-62593368D01*
X127021620Y-62461513D01*
X127094180Y-62439502D01*
X127204494Y-62380537D01*
X127301185Y-62301185D01*
X127380537Y-62204494D01*
X127439502Y-62094180D01*
X127475812Y-61974482D01*
X127488072Y-61850000D01*
X127488072Y-60150000D01*
X127475812Y-60025518D01*
X127439502Y-59905820D01*
X127380537Y-59795506D01*
X127301185Y-59698815D01*
X127204494Y-59619463D01*
X127094180Y-59560498D01*
X126974482Y-59524188D01*
X126850000Y-59511928D01*
X125150000Y-59511928D01*
X125025518Y-59524188D01*
X124905820Y-59560498D01*
X124795506Y-59619463D01*
X124698815Y-59698815D01*
X124619463Y-59795506D01*
X124560498Y-59905820D01*
X124524188Y-60025518D01*
X124511928Y-60150000D01*
X120278050Y-60150000D01*
X120176680Y-59905273D01*
X120019637Y-59670241D01*
X119819759Y-59470363D01*
X119584727Y-59313320D01*
X119323574Y-59205147D01*
X119046335Y-59150000D01*
X118763665Y-59150000D01*
X118486426Y-59205147D01*
X118225273Y-59313320D01*
X117990241Y-59470363D01*
X117790363Y-59670241D01*
X117635000Y-59902759D01*
X117479637Y-59670241D01*
X117279759Y-59470363D01*
X117044727Y-59313320D01*
X116783574Y-59205147D01*
X116506335Y-59150000D01*
X116223665Y-59150000D01*
X115946426Y-59205147D01*
X115685273Y-59313320D01*
X115450241Y-59470363D01*
X115250363Y-59670241D01*
X115095000Y-59902759D01*
X114939637Y-59670241D01*
X114739759Y-59470363D01*
X114504727Y-59313320D01*
X114243574Y-59205147D01*
X113966335Y-59150000D01*
X113683665Y-59150000D01*
X113406426Y-59205147D01*
X113145273Y-59313320D01*
X112910241Y-59470363D01*
X112710363Y-59670241D01*
X112555000Y-59902759D01*
X112399637Y-59670241D01*
X112199759Y-59470363D01*
X111964727Y-59313320D01*
X111703574Y-59205147D01*
X111426335Y-59150000D01*
X111143665Y-59150000D01*
X110866426Y-59205147D01*
X110605273Y-59313320D01*
X110370241Y-59470363D01*
X110170363Y-59670241D01*
X110015000Y-59902759D01*
X109859637Y-59670241D01*
X109659759Y-59470363D01*
X109424727Y-59313320D01*
X109163574Y-59205147D01*
X108886335Y-59150000D01*
X108603665Y-59150000D01*
X108326426Y-59205147D01*
X108065273Y-59313320D01*
X107830241Y-59470363D01*
X107630363Y-59670241D01*
X107475000Y-59902759D01*
X107319637Y-59670241D01*
X107119759Y-59470363D01*
X106884727Y-59313320D01*
X106623574Y-59205147D01*
X106346335Y-59150000D01*
X106063665Y-59150000D01*
X105786426Y-59205147D01*
X105525273Y-59313320D01*
X105290241Y-59470363D01*
X105090363Y-59670241D01*
X104935000Y-59902759D01*
X104779637Y-59670241D01*
X104579759Y-59470363D01*
X104344727Y-59313320D01*
X104083574Y-59205147D01*
X103806335Y-59150000D01*
X103523665Y-59150000D01*
X103246426Y-59205147D01*
X102985273Y-59313320D01*
X102750241Y-59470363D01*
X102550363Y-59670241D01*
X102395000Y-59902759D01*
X102239637Y-59670241D01*
X102039759Y-59470363D01*
X101804727Y-59313320D01*
X101543574Y-59205147D01*
X101266335Y-59150000D01*
X100983665Y-59150000D01*
X100706426Y-59205147D01*
X100445273Y-59313320D01*
X100210241Y-59470363D01*
X100010363Y-59670241D01*
X99855000Y-59902759D01*
X99699637Y-59670241D01*
X99499759Y-59470363D01*
X99264727Y-59313320D01*
X99003574Y-59205147D01*
X98726335Y-59150000D01*
X98443665Y-59150000D01*
X98166426Y-59205147D01*
X97905273Y-59313320D01*
X97670241Y-59470363D01*
X97470363Y-59670241D01*
X97315000Y-59902759D01*
X97159637Y-59670241D01*
X96959759Y-59470363D01*
X96724727Y-59313320D01*
X96463574Y-59205147D01*
X96186335Y-59150000D01*
X95903665Y-59150000D01*
X95626426Y-59205147D01*
X95365273Y-59313320D01*
X95130241Y-59470363D01*
X94930363Y-59670241D01*
X94775000Y-59902759D01*
X94619637Y-59670241D01*
X94419759Y-59470363D01*
X94184727Y-59313320D01*
X93923574Y-59205147D01*
X93646335Y-59150000D01*
X93363665Y-59150000D01*
X93086426Y-59205147D01*
X92825273Y-59313320D01*
X92590241Y-59470363D01*
X92390363Y-59670241D01*
X92235000Y-59902759D01*
X92079637Y-59670241D01*
X91879759Y-59470363D01*
X91644727Y-59313320D01*
X91383574Y-59205147D01*
X91106335Y-59150000D01*
X90823665Y-59150000D01*
X90546426Y-59205147D01*
X90285273Y-59313320D01*
X90050241Y-59470363D01*
X89850363Y-59670241D01*
X89695000Y-59902759D01*
X89539637Y-59670241D01*
X89339759Y-59470363D01*
X89104727Y-59313320D01*
X88843574Y-59205147D01*
X88566335Y-59150000D01*
X88283665Y-59150000D01*
X88006426Y-59205147D01*
X87745273Y-59313320D01*
X87510241Y-59470363D01*
X87310363Y-59670241D01*
X87155000Y-59902759D01*
X86999637Y-59670241D01*
X86799759Y-59470363D01*
X86564727Y-59313320D01*
X86303574Y-59205147D01*
X86026335Y-59150000D01*
X85743665Y-59150000D01*
X85466426Y-59205147D01*
X85205273Y-59313320D01*
X84970241Y-59470363D01*
X84770363Y-59670241D01*
X84615000Y-59902759D01*
X84459637Y-59670241D01*
X84259759Y-59470363D01*
X84024727Y-59313320D01*
X83763574Y-59205147D01*
X83486335Y-59150000D01*
X83203665Y-59150000D01*
X82926426Y-59205147D01*
X82665273Y-59313320D01*
X82430241Y-59470363D01*
X82230363Y-59670241D01*
X82075000Y-59902759D01*
X81919637Y-59670241D01*
X81719759Y-59470363D01*
X81484727Y-59313320D01*
X81223574Y-59205147D01*
X80946335Y-59150000D01*
X80663665Y-59150000D01*
X80386426Y-59205147D01*
X80125273Y-59313320D01*
X79890241Y-59470363D01*
X79690363Y-59670241D01*
X79535000Y-59902759D01*
X79379637Y-59670241D01*
X79179759Y-59470363D01*
X78944727Y-59313320D01*
X78683574Y-59205147D01*
X78406335Y-59150000D01*
X78123665Y-59150000D01*
X77846426Y-59205147D01*
X77585273Y-59313320D01*
X77350241Y-59470363D01*
X77150363Y-59670241D01*
X76995000Y-59902759D01*
X76839637Y-59670241D01*
X76639759Y-59470363D01*
X76404727Y-59313320D01*
X76143574Y-59205147D01*
X75866335Y-59150000D01*
X75583665Y-59150000D01*
X75306426Y-59205147D01*
X75045273Y-59313320D01*
X74810241Y-59470363D01*
X74610363Y-59670241D01*
X74455000Y-59902759D01*
X74299637Y-59670241D01*
X74099759Y-59470363D01*
X73864727Y-59313320D01*
X73603574Y-59205147D01*
X73326335Y-59150000D01*
X73154801Y-59150000D01*
X77544802Y-54760000D01*
X84812678Y-54760000D01*
X84850000Y-54763676D01*
X84887322Y-54760000D01*
X84887333Y-54760000D01*
X84998986Y-54749003D01*
X85142247Y-54705546D01*
X85274276Y-54634974D01*
X85390001Y-54540001D01*
X85413804Y-54510997D01*
X93181115Y-46743688D01*
X93363665Y-46780000D01*
X93646335Y-46780000D01*
X93828887Y-46743688D01*
X96596201Y-49511003D01*
X96619999Y-49540001D01*
X96648997Y-49563799D01*
X96735724Y-49634974D01*
X96867753Y-49705546D01*
X97011014Y-49749003D01*
X97160000Y-49763677D01*
X97197333Y-49760000D01*
X102387220Y-49760000D01*
X102285147Y-50006426D01*
X102230000Y-50283665D01*
X102230000Y-50566335D01*
X102285147Y-50843574D01*
X102393320Y-51104727D01*
X102550363Y-51339759D01*
X102750241Y-51539637D01*
X102982759Y-51695000D01*
X102750241Y-51850363D01*
X102550363Y-52050241D01*
X102393320Y-52285273D01*
X102285147Y-52546426D01*
X102230000Y-52823665D01*
X102230000Y-53106335D01*
X102285147Y-53383574D01*
X102393320Y-53644727D01*
X102550363Y-53879759D01*
X102750241Y-54079637D01*
X102985273Y-54236680D01*
X103246426Y-54344853D01*
X103523665Y-54400000D01*
X103806335Y-54400000D01*
X103988887Y-54363688D01*
X107716301Y-58091103D01*
X107740099Y-58120101D01*
X107769097Y-58143899D01*
X107855823Y-58215074D01*
X107987853Y-58285646D01*
X108131114Y-58329103D01*
X108242767Y-58340100D01*
X108242777Y-58340100D01*
X108280099Y-58343776D01*
X108317422Y-58340100D01*
X122287278Y-58340100D01*
X122324600Y-58343776D01*
X122361922Y-58340100D01*
X122361933Y-58340100D01*
X122473586Y-58329103D01*
X122616847Y-58285646D01*
X122748876Y-58215074D01*
X122864601Y-58120101D01*
X122888404Y-58091097D01*
X124899697Y-56079804D01*
X125053368Y-56233475D01*
X125296589Y-56395990D01*
X125566842Y-56507932D01*
X125853740Y-56565000D01*
X126146260Y-56565000D01*
X126433158Y-56507932D01*
X126703411Y-56395990D01*
X126946632Y-56233475D01*
X127153475Y-56026632D01*
X127315990Y-55783411D01*
X127427932Y-55513158D01*
X127485000Y-55226260D01*
X127485000Y-54933740D01*
X127427932Y-54646842D01*
X127357623Y-54477100D01*
X131030278Y-54477100D01*
X131067600Y-54480776D01*
X131104922Y-54477100D01*
X131104933Y-54477100D01*
X131216586Y-54466103D01*
X131359847Y-54422646D01*
X131491876Y-54352074D01*
X131607601Y-54257101D01*
X131631404Y-54228097D01*
X132399697Y-53459804D01*
X132478380Y-53538487D01*
X132405820Y-53560498D01*
X132295506Y-53619463D01*
X132198815Y-53698815D01*
X132119463Y-53795506D01*
X132060498Y-53905820D01*
X132024188Y-54025518D01*
X132011928Y-54150000D01*
X132011928Y-55850000D01*
X132024188Y-55974482D01*
X132060498Y-56094180D01*
X132119463Y-56204494D01*
X132198815Y-56301185D01*
X132295506Y-56380537D01*
X132405820Y-56439502D01*
X132525518Y-56475812D01*
X132650000Y-56488072D01*
X134350000Y-56488072D01*
X134474482Y-56475812D01*
X134594180Y-56439502D01*
X134704494Y-56380537D01*
X134801185Y-56301185D01*
X134880537Y-56204494D01*
X134939502Y-56094180D01*
X134975812Y-55974482D01*
X134988072Y-55850000D01*
X134988072Y-54150000D01*
X134975812Y-54025518D01*
X134939502Y-53905820D01*
X134880537Y-53795506D01*
X134801185Y-53698815D01*
X134704494Y-53619463D01*
X134594180Y-53560498D01*
X134521620Y-53538487D01*
X134653475Y-53406632D01*
X134815990Y-53163411D01*
X134927932Y-52893158D01*
X134985000Y-52606260D01*
X134985000Y-52313740D01*
X134927932Y-52026842D01*
X134815990Y-51756589D01*
X134653475Y-51513368D01*
X134446632Y-51306525D01*
X134272240Y-51190000D01*
X134446632Y-51073475D01*
X134653475Y-50866632D01*
X134815990Y-50623411D01*
X134927932Y-50353158D01*
X134985000Y-50066260D01*
X134985000Y-49773740D01*
X134927932Y-49486842D01*
X134815990Y-49216589D01*
X134653475Y-48973368D01*
X134446632Y-48766525D01*
X134203411Y-48604010D01*
X133933158Y-48492068D01*
X133646260Y-48435000D01*
X133353740Y-48435000D01*
X133066842Y-48492068D01*
X132796589Y-48604010D01*
X132553368Y-48766525D01*
X132346525Y-48973368D01*
X132217204Y-49166911D01*
X132175714Y-49170997D01*
X132032453Y-49214454D01*
X131900424Y-49285026D01*
X131784699Y-49379999D01*
X131760901Y-49408997D01*
X130754499Y-50415400D01*
X127488072Y-50415400D01*
X127488072Y-49150000D01*
X127475812Y-49025518D01*
X127439502Y-48905820D01*
X127380537Y-48795506D01*
X127301185Y-48698815D01*
X127204494Y-48619463D01*
X127094180Y-48560498D01*
X126974482Y-48524188D01*
X126850000Y-48511928D01*
X125150000Y-48511928D01*
X125025518Y-48524188D01*
X124905820Y-48560498D01*
X124795506Y-48619463D01*
X124698815Y-48698815D01*
X124653515Y-48754014D01*
X124646903Y-48747402D01*
X124623101Y-48718399D01*
X124507376Y-48623426D01*
X124375347Y-48552854D01*
X124232086Y-48509397D01*
X124120433Y-48498400D01*
X124120422Y-48498400D01*
X124083100Y-48494724D01*
X124045778Y-48498400D01*
X119626502Y-48498400D01*
X122364903Y-45760000D01*
X124721822Y-45760000D01*
X124846525Y-45946632D01*
X125053368Y-46153475D01*
X125296589Y-46315990D01*
X125566842Y-46427932D01*
X125853740Y-46485000D01*
X126146260Y-46485000D01*
X126433158Y-46427932D01*
X126703411Y-46315990D01*
X126946632Y-46153475D01*
X127153475Y-45946632D01*
X127315990Y-45703411D01*
X127427932Y-45433158D01*
X127485000Y-45146260D01*
X127485000Y-44853740D01*
X127427932Y-44566842D01*
X127315990Y-44296589D01*
X127153475Y-44053368D01*
X126946632Y-43846525D01*
X126772240Y-43730000D01*
X126946632Y-43613475D01*
X127153475Y-43406632D01*
X127315990Y-43163411D01*
X127427932Y-42893158D01*
X127485000Y-42606260D01*
X127485000Y-42313740D01*
X127427932Y-42026842D01*
X127315990Y-41756589D01*
X127153475Y-41513368D01*
X127021620Y-41381513D01*
X127094180Y-41359502D01*
X127204494Y-41300537D01*
X127301185Y-41221185D01*
X127380537Y-41124494D01*
X127439502Y-41014180D01*
X127475812Y-40894482D01*
X127488072Y-40770000D01*
X127488072Y-39070000D01*
X127475812Y-38945518D01*
X127439502Y-38825820D01*
X127380537Y-38715506D01*
X127301185Y-38618815D01*
X127204494Y-38539463D01*
X127094180Y-38480498D01*
X126974482Y-38444188D01*
X126850000Y-38431928D01*
X125150000Y-38431928D01*
X125025518Y-38444188D01*
X124905820Y-38480498D01*
X124795506Y-38539463D01*
X124698815Y-38618815D01*
X124619463Y-38715506D01*
X124560498Y-38825820D01*
X124524188Y-38945518D01*
X124511928Y-39070000D01*
X124511928Y-40770000D01*
X124524188Y-40894482D01*
X124560498Y-41014180D01*
X124619463Y-41124494D01*
X124698815Y-41221185D01*
X124795506Y-41300537D01*
X124905820Y-41359502D01*
X124978380Y-41381513D01*
X124846525Y-41513368D01*
X124721822Y-41700000D01*
X123990522Y-41700000D01*
X123953199Y-41696324D01*
X123915876Y-41700000D01*
X123915867Y-41700000D01*
X123804214Y-41710997D01*
X123660953Y-41754454D01*
X123528924Y-41825026D01*
X123528922Y-41825027D01*
X123528923Y-41825027D01*
X123442196Y-41896201D01*
X123442192Y-41896205D01*
X123413199Y-41919999D01*
X123389405Y-41948992D01*
X120305944Y-45032454D01*
X120284853Y-44926426D01*
X120176680Y-44665273D01*
X120019637Y-44430241D01*
X119819759Y-44230363D01*
X119584727Y-44073320D01*
X119323574Y-43965147D01*
X119046335Y-43910000D01*
X118763665Y-43910000D01*
X118486426Y-43965147D01*
X118225273Y-44073320D01*
X117990241Y-44230363D01*
X117790363Y-44430241D01*
X117635000Y-44662759D01*
X117479637Y-44430241D01*
X117279759Y-44230363D01*
X117044727Y-44073320D01*
X116783574Y-43965147D01*
X116506335Y-43910000D01*
X116223665Y-43910000D01*
X115946426Y-43965147D01*
X115685273Y-44073320D01*
X115450241Y-44230363D01*
X115250363Y-44430241D01*
X115095000Y-44662759D01*
X114939637Y-44430241D01*
X114739759Y-44230363D01*
X114504727Y-44073320D01*
X114243574Y-43965147D01*
X113966335Y-43910000D01*
X113683665Y-43910000D01*
X113406426Y-43965147D01*
X113145273Y-44073320D01*
X112910241Y-44230363D01*
X112710363Y-44430241D01*
X112555000Y-44662759D01*
X112399637Y-44430241D01*
X112199759Y-44230363D01*
X111964727Y-44073320D01*
X111703574Y-43965147D01*
X111426335Y-43910000D01*
X111143665Y-43910000D01*
X110866426Y-43965147D01*
X110605273Y-44073320D01*
X110370241Y-44230363D01*
X110170363Y-44430241D01*
X110015000Y-44662759D01*
X109859637Y-44430241D01*
X109659759Y-44230363D01*
X109424727Y-44073320D01*
X109163574Y-43965147D01*
X108886335Y-43910000D01*
X108603665Y-43910000D01*
X108326426Y-43965147D01*
X108065273Y-44073320D01*
X107830241Y-44230363D01*
X107630363Y-44430241D01*
X107475000Y-44662759D01*
X107319637Y-44430241D01*
X107119759Y-44230363D01*
X106884727Y-44073320D01*
X106623574Y-43965147D01*
X106346335Y-43910000D01*
X106063665Y-43910000D01*
X105786426Y-43965147D01*
X105525273Y-44073320D01*
X105290241Y-44230363D01*
X105090363Y-44430241D01*
X104935000Y-44662759D01*
X104779637Y-44430241D01*
X104579759Y-44230363D01*
X104344727Y-44073320D01*
X104083574Y-43965147D01*
X103806335Y-43910000D01*
X103523665Y-43910000D01*
X103246426Y-43965147D01*
X102985273Y-44073320D01*
X102750241Y-44230363D01*
X102550363Y-44430241D01*
X102395000Y-44662759D01*
X102239637Y-44430241D01*
X102039759Y-44230363D01*
X101804727Y-44073320D01*
X101543574Y-43965147D01*
X101266335Y-43910000D01*
X100983665Y-43910000D01*
X100706426Y-43965147D01*
X100445273Y-44073320D01*
X100210241Y-44230363D01*
X100010363Y-44430241D01*
X99855000Y-44662759D01*
X99699637Y-44430241D01*
X99499759Y-44230363D01*
X99264727Y-44073320D01*
X99003574Y-43965147D01*
X98726335Y-43910000D01*
X98443665Y-43910000D01*
X98166426Y-43965147D01*
X97905273Y-44073320D01*
X97670241Y-44230363D01*
X97470363Y-44430241D01*
X97315000Y-44662759D01*
X97159637Y-44430241D01*
X96959759Y-44230363D01*
X96724727Y-44073320D01*
X96463574Y-43965147D01*
X96186335Y-43910000D01*
X95903665Y-43910000D01*
X95626426Y-43965147D01*
X95365273Y-44073320D01*
X95130241Y-44230363D01*
X94930363Y-44430241D01*
X94775000Y-44662759D01*
X94619637Y-44430241D01*
X94419759Y-44230363D01*
X94184727Y-44073320D01*
X93923574Y-43965147D01*
X93646335Y-43910000D01*
X93363665Y-43910000D01*
X93086426Y-43965147D01*
X92825273Y-44073320D01*
X92590241Y-44230363D01*
X92390363Y-44430241D01*
X92235000Y-44662759D01*
X92079637Y-44430241D01*
X91879759Y-44230363D01*
X91644727Y-44073320D01*
X91383574Y-43965147D01*
X91106335Y-43910000D01*
X90823665Y-43910000D01*
X90546426Y-43965147D01*
X90285273Y-44073320D01*
X90050241Y-44230363D01*
X89850363Y-44430241D01*
X89695000Y-44662759D01*
X89539637Y-44430241D01*
X89339759Y-44230363D01*
X89104727Y-44073320D01*
X88843574Y-43965147D01*
X88566335Y-43910000D01*
X88283665Y-43910000D01*
X88006426Y-43965147D01*
X87745273Y-44073320D01*
X87510241Y-44230363D01*
X87310363Y-44430241D01*
X87155000Y-44662759D01*
X86999637Y-44430241D01*
X86799759Y-44230363D01*
X86564727Y-44073320D01*
X86303574Y-43965147D01*
X86026335Y-43910000D01*
X85743665Y-43910000D01*
X85466426Y-43965147D01*
X85205273Y-44073320D01*
X84970241Y-44230363D01*
X84770363Y-44430241D01*
X84615000Y-44662759D01*
X84459637Y-44430241D01*
X84259759Y-44230363D01*
X84024727Y-44073320D01*
X83763574Y-43965147D01*
X83486335Y-43910000D01*
X83203665Y-43910000D01*
X82926426Y-43965147D01*
X82665273Y-44073320D01*
X82430241Y-44230363D01*
X82230363Y-44430241D01*
X82075000Y-44662759D01*
X81919637Y-44430241D01*
X81719759Y-44230363D01*
X81484727Y-44073320D01*
X81223574Y-43965147D01*
X80946335Y-43910000D01*
X80663665Y-43910000D01*
X80386426Y-43965147D01*
X80125273Y-44073320D01*
X79890241Y-44230363D01*
X79690363Y-44430241D01*
X79535000Y-44662759D01*
X79379637Y-44430241D01*
X79179759Y-44230363D01*
X78944727Y-44073320D01*
X78683574Y-43965147D01*
X78406335Y-43910000D01*
X78123665Y-43910000D01*
X77846426Y-43965147D01*
X77585273Y-44073320D01*
X77350241Y-44230363D01*
X77150363Y-44430241D01*
X76995000Y-44662759D01*
X76839637Y-44430241D01*
X76639759Y-44230363D01*
X76404727Y-44073320D01*
X76143574Y-43965147D01*
X75866335Y-43910000D01*
X75583665Y-43910000D01*
X75306426Y-43965147D01*
X75045273Y-44073320D01*
X74810241Y-44230363D01*
X74610363Y-44430241D01*
X74455000Y-44662759D01*
X74299637Y-44430241D01*
X74099759Y-44230363D01*
X73864727Y-44073320D01*
X73603574Y-43965147D01*
X73326335Y-43910000D01*
X73043665Y-43910000D01*
X72766426Y-43965147D01*
X72505273Y-44073320D01*
X72270241Y-44230363D01*
X72070363Y-44430241D01*
X71915000Y-44662759D01*
X71759637Y-44430241D01*
X71559759Y-44230363D01*
X71324727Y-44073320D01*
X71063574Y-43965147D01*
X70786335Y-43910000D01*
X70503665Y-43910000D01*
X70226426Y-43965147D01*
X69965273Y-44073320D01*
X69730241Y-44230363D01*
X69660000Y-44300604D01*
X69660000Y-40251451D01*
X69756589Y-40315990D01*
X70026842Y-40427932D01*
X70313740Y-40485000D01*
X70606260Y-40485000D01*
X70893158Y-40427932D01*
X71163411Y-40315990D01*
X71406632Y-40153475D01*
X71613475Y-39946632D01*
X71730000Y-39772240D01*
X71846525Y-39946632D01*
X72053368Y-40153475D01*
X72296589Y-40315990D01*
X72566842Y-40427932D01*
X72853740Y-40485000D01*
X73146260Y-40485000D01*
X73433158Y-40427932D01*
X73703411Y-40315990D01*
X73946632Y-40153475D01*
X74153475Y-39946632D01*
X74270000Y-39772240D01*
X74386525Y-39946632D01*
X74593368Y-40153475D01*
X74836589Y-40315990D01*
X75106842Y-40427932D01*
X75393740Y-40485000D01*
X75686260Y-40485000D01*
X75973158Y-40427932D01*
X76243411Y-40315990D01*
X76486632Y-40153475D01*
X76693475Y-39946632D01*
X76810000Y-39772240D01*
X76926525Y-39946632D01*
X77133368Y-40153475D01*
X77376589Y-40315990D01*
X77646842Y-40427932D01*
X77933740Y-40485000D01*
X78226260Y-40485000D01*
X78513158Y-40427932D01*
X78783411Y-40315990D01*
X79026632Y-40153475D01*
X79233475Y-39946632D01*
X79350000Y-39772240D01*
X79466525Y-39946632D01*
X79673368Y-40153475D01*
X79916589Y-40315990D01*
X80186842Y-40427932D01*
X80473740Y-40485000D01*
X80766260Y-40485000D01*
X81053158Y-40427932D01*
X81323411Y-40315990D01*
X81566632Y-40153475D01*
X81773475Y-39946632D01*
X81890000Y-39772240D01*
X82006525Y-39946632D01*
X82213368Y-40153475D01*
X82456589Y-40315990D01*
X82726842Y-40427932D01*
X83013740Y-40485000D01*
X83306260Y-40485000D01*
X83593158Y-40427932D01*
X83863411Y-40315990D01*
X84106632Y-40153475D01*
X84313475Y-39946632D01*
X84430000Y-39772240D01*
X84546525Y-39946632D01*
X84753368Y-40153475D01*
X84996589Y-40315990D01*
X85266842Y-40427932D01*
X85553740Y-40485000D01*
X85846260Y-40485000D01*
X86133158Y-40427932D01*
X86403411Y-40315990D01*
X86646632Y-40153475D01*
X86853475Y-39946632D01*
X86970000Y-39772240D01*
X87086525Y-39946632D01*
X87293368Y-40153475D01*
X87536589Y-40315990D01*
X87806842Y-40427932D01*
X88093740Y-40485000D01*
X88386260Y-40485000D01*
X88673158Y-40427932D01*
X88943411Y-40315990D01*
X89186632Y-40153475D01*
X89393475Y-39946632D01*
X89510000Y-39772240D01*
X89626525Y-39946632D01*
X89833368Y-40153475D01*
X90076589Y-40315990D01*
X90346842Y-40427932D01*
X90633740Y-40485000D01*
X90926260Y-40485000D01*
X91213158Y-40427932D01*
X91483411Y-40315990D01*
X91726632Y-40153475D01*
X91933475Y-39946632D01*
X92050000Y-39772240D01*
X92166525Y-39946632D01*
X92373368Y-40153475D01*
X92616589Y-40315990D01*
X92886842Y-40427932D01*
X93173740Y-40485000D01*
X93466260Y-40485000D01*
X93753158Y-40427932D01*
X94023411Y-40315990D01*
X94266632Y-40153475D01*
X94473475Y-39946632D01*
X94590000Y-39772240D01*
X94706525Y-39946632D01*
X94913368Y-40153475D01*
X95156589Y-40315990D01*
X95426842Y-40427932D01*
X95713740Y-40485000D01*
X96006260Y-40485000D01*
X96293158Y-40427932D01*
X96563411Y-40315990D01*
X96806632Y-40153475D01*
X97013475Y-39946632D01*
X97130000Y-39772240D01*
X97246525Y-39946632D01*
X97453368Y-40153475D01*
X97696589Y-40315990D01*
X97966842Y-40427932D01*
X98253740Y-40485000D01*
X98546260Y-40485000D01*
X98833158Y-40427932D01*
X99103411Y-40315990D01*
X99346632Y-40153475D01*
X99553475Y-39946632D01*
X99670000Y-39772240D01*
X99786525Y-39946632D01*
X99993368Y-40153475D01*
X100236589Y-40315990D01*
X100506842Y-40427932D01*
X100793740Y-40485000D01*
X101086260Y-40485000D01*
X101373158Y-40427932D01*
X101643411Y-40315990D01*
X101886632Y-40153475D01*
X102093475Y-39946632D01*
X102210000Y-39772240D01*
X102326525Y-39946632D01*
X102533368Y-40153475D01*
X102776589Y-40315990D01*
X103046842Y-40427932D01*
X103333740Y-40485000D01*
X103626260Y-40485000D01*
X103913158Y-40427932D01*
X104183411Y-40315990D01*
X104426632Y-40153475D01*
X104633475Y-39946632D01*
X104750000Y-39772240D01*
X104866525Y-39946632D01*
X105073368Y-40153475D01*
X105316589Y-40315990D01*
X105586842Y-40427932D01*
X105873740Y-40485000D01*
X106166260Y-40485000D01*
X106453158Y-40427932D01*
X106723411Y-40315990D01*
X106966632Y-40153475D01*
X107173475Y-39946632D01*
X107290000Y-39772240D01*
X107406525Y-39946632D01*
X107613368Y-40153475D01*
X107856589Y-40315990D01*
X108126842Y-40427932D01*
X108413740Y-40485000D01*
X108706260Y-40485000D01*
X108993158Y-40427932D01*
X109263411Y-40315990D01*
X109506632Y-40153475D01*
X109713475Y-39946632D01*
X109830000Y-39772240D01*
X109946525Y-39946632D01*
X110153368Y-40153475D01*
X110396589Y-40315990D01*
X110666842Y-40427932D01*
X110953740Y-40485000D01*
X111246260Y-40485000D01*
X111533158Y-40427932D01*
X111803411Y-40315990D01*
X112046632Y-40153475D01*
X112253475Y-39946632D01*
X112370000Y-39772240D01*
X112486525Y-39946632D01*
X112693368Y-40153475D01*
X112936589Y-40315990D01*
X113206842Y-40427932D01*
X113493740Y-40485000D01*
X113786260Y-40485000D01*
X114073158Y-40427932D01*
X114343411Y-40315990D01*
X114586632Y-40153475D01*
X114793475Y-39946632D01*
X114910000Y-39772240D01*
X115026525Y-39946632D01*
X115233368Y-40153475D01*
X115476589Y-40315990D01*
X115746842Y-40427932D01*
X116033740Y-40485000D01*
X116326260Y-40485000D01*
X116613158Y-40427932D01*
X116883411Y-40315990D01*
X117126632Y-40153475D01*
X117258487Y-40021620D01*
X117280498Y-40094180D01*
X117339463Y-40204494D01*
X117418815Y-40301185D01*
X117515506Y-40380537D01*
X117625820Y-40439502D01*
X117745518Y-40475812D01*
X117870000Y-40488072D01*
X119570000Y-40488072D01*
X119694482Y-40475812D01*
X119814180Y-40439502D01*
X119924494Y-40380537D01*
X120021185Y-40301185D01*
X120100537Y-40204494D01*
X120159502Y-40094180D01*
X120195812Y-39974482D01*
X120208072Y-39850000D01*
X120208072Y-38150000D01*
X120195812Y-38025518D01*
X120159502Y-37905820D01*
X120100537Y-37795506D01*
X120021185Y-37698815D01*
X119924494Y-37619463D01*
X119814180Y-37560498D01*
X119694482Y-37524188D01*
X119570000Y-37511928D01*
X117870000Y-37511928D01*
X117745518Y-37524188D01*
X117625820Y-37560498D01*
X117515506Y-37619463D01*
X117418815Y-37698815D01*
X117339463Y-37795506D01*
X117280498Y-37905820D01*
X117258487Y-37978380D01*
X117126632Y-37846525D01*
X116883411Y-37684010D01*
X116613158Y-37572068D01*
X116326260Y-37515000D01*
X116033740Y-37515000D01*
X115746842Y-37572068D01*
X115476589Y-37684010D01*
X115233368Y-37846525D01*
X115026525Y-38053368D01*
X114910000Y-38227760D01*
X114793475Y-38053368D01*
X114586632Y-37846525D01*
X114343411Y-37684010D01*
X114073158Y-37572068D01*
X113786260Y-37515000D01*
X113493740Y-37515000D01*
X113206842Y-37572068D01*
X112936589Y-37684010D01*
X112693368Y-37846525D01*
X112486525Y-38053368D01*
X112370000Y-38227760D01*
X112253475Y-38053368D01*
X112046632Y-37846525D01*
X111803411Y-37684010D01*
X111533158Y-37572068D01*
X111246260Y-37515000D01*
X110953740Y-37515000D01*
X110666842Y-37572068D01*
X110396589Y-37684010D01*
X110153368Y-37846525D01*
X109946525Y-38053368D01*
X109830000Y-38227760D01*
X109713475Y-38053368D01*
X109506632Y-37846525D01*
X109263411Y-37684010D01*
X108993158Y-37572068D01*
X108706260Y-37515000D01*
X108413740Y-37515000D01*
X108126842Y-37572068D01*
X107856589Y-37684010D01*
X107613368Y-37846525D01*
X107406525Y-38053368D01*
X107290000Y-38227760D01*
X107173475Y-38053368D01*
X106966632Y-37846525D01*
X106723411Y-37684010D01*
X106453158Y-37572068D01*
X106166260Y-37515000D01*
X105873740Y-37515000D01*
X105586842Y-37572068D01*
X105316589Y-37684010D01*
X105073368Y-37846525D01*
X104866525Y-38053368D01*
X104750000Y-38227760D01*
X104633475Y-38053368D01*
X104426632Y-37846525D01*
X104183411Y-37684010D01*
X103913158Y-37572068D01*
X103626260Y-37515000D01*
X103333740Y-37515000D01*
X103046842Y-37572068D01*
X102776589Y-37684010D01*
X102533368Y-37846525D01*
X102326525Y-38053368D01*
X102210000Y-38227760D01*
X102093475Y-38053368D01*
X101886632Y-37846525D01*
X101643411Y-37684010D01*
X101373158Y-37572068D01*
X101086260Y-37515000D01*
X100793740Y-37515000D01*
X100506842Y-37572068D01*
X100236589Y-37684010D01*
X99993368Y-37846525D01*
X99786525Y-38053368D01*
X99670000Y-38227760D01*
X99553475Y-38053368D01*
X99346632Y-37846525D01*
X99103411Y-37684010D01*
X98833158Y-37572068D01*
X98546260Y-37515000D01*
X98253740Y-37515000D01*
X97966842Y-37572068D01*
X97696589Y-37684010D01*
X97453368Y-37846525D01*
X97246525Y-38053368D01*
X97130000Y-38227760D01*
X97013475Y-38053368D01*
X96806632Y-37846525D01*
X96563411Y-37684010D01*
X96293158Y-37572068D01*
X96006260Y-37515000D01*
X95713740Y-37515000D01*
X95426842Y-37572068D01*
X95156589Y-37684010D01*
X94913368Y-37846525D01*
X94706525Y-38053368D01*
X94590000Y-38227760D01*
X94473475Y-38053368D01*
X94266632Y-37846525D01*
X94023411Y-37684010D01*
X93753158Y-37572068D01*
X93466260Y-37515000D01*
X93173740Y-37515000D01*
X92886842Y-37572068D01*
X92616589Y-37684010D01*
X92373368Y-37846525D01*
X92166525Y-38053368D01*
X92050000Y-38227760D01*
X91933475Y-38053368D01*
X91726632Y-37846525D01*
X91483411Y-37684010D01*
X91213158Y-37572068D01*
X90926260Y-37515000D01*
X90633740Y-37515000D01*
X90346842Y-37572068D01*
X90076589Y-37684010D01*
X89833368Y-37846525D01*
X89626525Y-38053368D01*
X89510000Y-38227760D01*
X89393475Y-38053368D01*
X89186632Y-37846525D01*
X88943411Y-37684010D01*
X88673158Y-37572068D01*
X88386260Y-37515000D01*
X88093740Y-37515000D01*
X87806842Y-37572068D01*
X87536589Y-37684010D01*
X87293368Y-37846525D01*
X87086525Y-38053368D01*
X86970000Y-38227760D01*
X86853475Y-38053368D01*
X86646632Y-37846525D01*
X86403411Y-37684010D01*
X86133158Y-37572068D01*
X85846260Y-37515000D01*
X85553740Y-37515000D01*
X85266842Y-37572068D01*
X84996589Y-37684010D01*
X84753368Y-37846525D01*
X84546525Y-38053368D01*
X84430000Y-38227760D01*
X84313475Y-38053368D01*
X84106632Y-37846525D01*
X83863411Y-37684010D01*
X83593158Y-37572068D01*
X83306260Y-37515000D01*
X83013740Y-37515000D01*
X82726842Y-37572068D01*
X82456589Y-37684010D01*
X82213368Y-37846525D01*
X82006525Y-38053368D01*
X81890000Y-38227760D01*
X81773475Y-38053368D01*
X81566632Y-37846525D01*
X81323411Y-37684010D01*
X81053158Y-37572068D01*
X80766260Y-37515000D01*
X80473740Y-37515000D01*
X80186842Y-37572068D01*
X79916589Y-37684010D01*
X79673368Y-37846525D01*
X79466525Y-38053368D01*
X79350000Y-38227760D01*
X79233475Y-38053368D01*
X79026632Y-37846525D01*
X78783411Y-37684010D01*
X78513158Y-37572068D01*
X78226260Y-37515000D01*
X77933740Y-37515000D01*
X77646842Y-37572068D01*
X77376589Y-37684010D01*
X77133368Y-37846525D01*
X76926525Y-38053368D01*
X76810000Y-38227760D01*
X76693475Y-38053368D01*
X76486632Y-37846525D01*
X76243411Y-37684010D01*
X75973158Y-37572068D01*
X75686260Y-37515000D01*
X75393740Y-37515000D01*
X75106842Y-37572068D01*
X74836589Y-37684010D01*
X74593368Y-37846525D01*
X74386525Y-38053368D01*
X74270000Y-38227760D01*
X74153475Y-38053368D01*
X73946632Y-37846525D01*
X73703411Y-37684010D01*
X73433158Y-37572068D01*
X73146260Y-37515000D01*
X72853740Y-37515000D01*
X72566842Y-37572068D01*
X72296589Y-37684010D01*
X72053368Y-37846525D01*
X71846525Y-38053368D01*
X71730000Y-38227760D01*
X71613475Y-38053368D01*
X71406632Y-37846525D01*
X71163411Y-37684010D01*
X70893158Y-37572068D01*
X70606260Y-37515000D01*
X70313740Y-37515000D01*
X70026842Y-37572068D01*
X69756589Y-37684010D01*
X69660000Y-37748549D01*
X69660000Y-30725701D01*
X72215000Y-30725701D01*
X72215000Y-31274299D01*
X72322026Y-31812354D01*
X72531965Y-32319192D01*
X72836750Y-32775334D01*
X73224666Y-33163250D01*
X73680808Y-33468035D01*
X74187646Y-33677974D01*
X74725701Y-33785000D01*
X75274299Y-33785000D01*
X75812354Y-33677974D01*
X76319192Y-33468035D01*
X76775334Y-33163250D01*
X77163250Y-32775334D01*
X77468035Y-32319192D01*
X77677974Y-31812354D01*
X77785000Y-31274299D01*
X77785000Y-30725701D01*
X129215000Y-30725701D01*
X129215000Y-31274299D01*
X129322026Y-31812354D01*
X129531965Y-32319192D01*
X129836750Y-32775334D01*
X130224666Y-33163250D01*
X130680808Y-33468035D01*
X131187646Y-33677974D01*
X131725701Y-33785000D01*
X132274299Y-33785000D01*
X132812354Y-33677974D01*
X133319192Y-33468035D01*
X133775334Y-33163250D01*
X134163250Y-32775334D01*
X134468035Y-32319192D01*
X134677974Y-31812354D01*
X134785000Y-31274299D01*
X134785000Y-30725701D01*
X134677974Y-30187646D01*
X134468035Y-29680808D01*
X134163250Y-29224666D01*
X133775334Y-28836750D01*
X133319192Y-28531965D01*
X132812354Y-28322026D01*
X132274299Y-28215000D01*
X131725701Y-28215000D01*
X131187646Y-28322026D01*
X130680808Y-28531965D01*
X130224666Y-28836750D01*
X129836750Y-29224666D01*
X129531965Y-29680808D01*
X129322026Y-30187646D01*
X129215000Y-30725701D01*
X77785000Y-30725701D01*
X77677974Y-30187646D01*
X77468035Y-29680808D01*
X77163250Y-29224666D01*
X76775334Y-28836750D01*
X76319192Y-28531965D01*
X75812354Y-28322026D01*
X75274299Y-28215000D01*
X74725701Y-28215000D01*
X74187646Y-28322026D01*
X73680808Y-28531965D01*
X73224666Y-28836750D01*
X72836750Y-29224666D01*
X72531965Y-29680808D01*
X72322026Y-30187646D01*
X72215000Y-30725701D01*
X69660000Y-30725701D01*
X69660000Y-25660000D01*
X137340000Y-25660000D01*
X137340001Y-28967572D01*
G36*
X89850363Y-46259759D02*
G01*
X90050241Y-46459637D01*
X90285273Y-46616680D01*
X90546426Y-46724853D01*
X90823665Y-46780000D01*
X90995197Y-46780000D01*
X84535199Y-53240000D01*
X77267322Y-53240000D01*
X77229999Y-53236324D01*
X77192676Y-53240000D01*
X77192667Y-53240000D01*
X77081014Y-53250997D01*
X76937753Y-53294454D01*
X76805724Y-53365026D01*
X76689999Y-53459999D01*
X76666201Y-53488997D01*
X71008271Y-59146928D01*
X69845000Y-59146928D01*
X69720518Y-59159188D01*
X69660000Y-59177546D01*
X69660000Y-46389396D01*
X69730241Y-46459637D01*
X69965273Y-46616680D01*
X70226426Y-46724853D01*
X70503665Y-46780000D01*
X70786335Y-46780000D01*
X71063574Y-46724853D01*
X71324727Y-46616680D01*
X71559759Y-46459637D01*
X71759637Y-46259759D01*
X71915000Y-46027241D01*
X72070363Y-46259759D01*
X72270241Y-46459637D01*
X72505273Y-46616680D01*
X72766426Y-46724853D01*
X73043665Y-46780000D01*
X73326335Y-46780000D01*
X73603574Y-46724853D01*
X73864727Y-46616680D01*
X74099759Y-46459637D01*
X74299637Y-46259759D01*
X74455000Y-46027241D01*
X74610363Y-46259759D01*
X74810241Y-46459637D01*
X75045273Y-46616680D01*
X75306426Y-46724853D01*
X75583665Y-46780000D01*
X75866335Y-46780000D01*
X76143574Y-46724853D01*
X76404727Y-46616680D01*
X76639759Y-46459637D01*
X76839637Y-46259759D01*
X76995000Y-46027241D01*
X77150363Y-46259759D01*
X77350241Y-46459637D01*
X77585273Y-46616680D01*
X77846426Y-46724853D01*
X78123665Y-46780000D01*
X78406335Y-46780000D01*
X78683574Y-46724853D01*
X78944727Y-46616680D01*
X79179759Y-46459637D01*
X79379637Y-46259759D01*
X79535000Y-46027241D01*
X79690363Y-46259759D01*
X79890241Y-46459637D01*
X80125273Y-46616680D01*
X80386426Y-46724853D01*
X80663665Y-46780000D01*
X80946335Y-46780000D01*
X81223574Y-46724853D01*
X81484727Y-46616680D01*
X81719759Y-46459637D01*
X81919637Y-46259759D01*
X82075000Y-46027241D01*
X82230363Y-46259759D01*
X82430241Y-46459637D01*
X82665273Y-46616680D01*
X82926426Y-46724853D01*
X83203665Y-46780000D01*
X83486335Y-46780000D01*
X83763574Y-46724853D01*
X84024727Y-46616680D01*
X84259759Y-46459637D01*
X84459637Y-46259759D01*
X84615000Y-46027241D01*
X84770363Y-46259759D01*
X84970241Y-46459637D01*
X85205273Y-46616680D01*
X85466426Y-46724853D01*
X85743665Y-46780000D01*
X86026335Y-46780000D01*
X86303574Y-46724853D01*
X86564727Y-46616680D01*
X86799759Y-46459637D01*
X86999637Y-46259759D01*
X87155000Y-46027241D01*
X87310363Y-46259759D01*
X87510241Y-46459637D01*
X87745273Y-46616680D01*
X88006426Y-46724853D01*
X88283665Y-46780000D01*
X88566335Y-46780000D01*
X88843574Y-46724853D01*
X89104727Y-46616680D01*
X89339759Y-46459637D01*
X89539637Y-46259759D01*
X89695000Y-46027241D01*
X89850363Y-46259759D01*
G37*
X89850363Y-46259759D02*
X90050241Y-46459637D01*
X90285273Y-46616680D01*
X90546426Y-46724853D01*
X90823665Y-46780000D01*
X90995197Y-46780000D01*
X84535199Y-53240000D01*
X77267322Y-53240000D01*
X77229999Y-53236324D01*
X77192676Y-53240000D01*
X77192667Y-53240000D01*
X77081014Y-53250997D01*
X76937753Y-53294454D01*
X76805724Y-53365026D01*
X76689999Y-53459999D01*
X76666201Y-53488997D01*
X71008271Y-59146928D01*
X69845000Y-59146928D01*
X69720518Y-59159188D01*
X69660000Y-59177546D01*
X69660000Y-46389396D01*
X69730241Y-46459637D01*
X69965273Y-46616680D01*
X70226426Y-46724853D01*
X70503665Y-46780000D01*
X70786335Y-46780000D01*
X71063574Y-46724853D01*
X71324727Y-46616680D01*
X71559759Y-46459637D01*
X71759637Y-46259759D01*
X71915000Y-46027241D01*
X72070363Y-46259759D01*
X72270241Y-46459637D01*
X72505273Y-46616680D01*
X72766426Y-46724853D01*
X73043665Y-46780000D01*
X73326335Y-46780000D01*
X73603574Y-46724853D01*
X73864727Y-46616680D01*
X74099759Y-46459637D01*
X74299637Y-46259759D01*
X74455000Y-46027241D01*
X74610363Y-46259759D01*
X74810241Y-46459637D01*
X75045273Y-46616680D01*
X75306426Y-46724853D01*
X75583665Y-46780000D01*
X75866335Y-46780000D01*
X76143574Y-46724853D01*
X76404727Y-46616680D01*
X76639759Y-46459637D01*
X76839637Y-46259759D01*
X76995000Y-46027241D01*
X77150363Y-46259759D01*
X77350241Y-46459637D01*
X77585273Y-46616680D01*
X77846426Y-46724853D01*
X78123665Y-46780000D01*
X78406335Y-46780000D01*
X78683574Y-46724853D01*
X78944727Y-46616680D01*
X79179759Y-46459637D01*
X79379637Y-46259759D01*
X79535000Y-46027241D01*
X79690363Y-46259759D01*
X79890241Y-46459637D01*
X80125273Y-46616680D01*
X80386426Y-46724853D01*
X80663665Y-46780000D01*
X80946335Y-46780000D01*
X81223574Y-46724853D01*
X81484727Y-46616680D01*
X81719759Y-46459637D01*
X81919637Y-46259759D01*
X82075000Y-46027241D01*
X82230363Y-46259759D01*
X82430241Y-46459637D01*
X82665273Y-46616680D01*
X82926426Y-46724853D01*
X83203665Y-46780000D01*
X83486335Y-46780000D01*
X83763574Y-46724853D01*
X84024727Y-46616680D01*
X84259759Y-46459637D01*
X84459637Y-46259759D01*
X84615000Y-46027241D01*
X84770363Y-46259759D01*
X84970241Y-46459637D01*
X85205273Y-46616680D01*
X85466426Y-46724853D01*
X85743665Y-46780000D01*
X86026335Y-46780000D01*
X86303574Y-46724853D01*
X86564727Y-46616680D01*
X86799759Y-46459637D01*
X86999637Y-46259759D01*
X87155000Y-46027241D01*
X87310363Y-46259759D01*
X87510241Y-46459637D01*
X87745273Y-46616680D01*
X88006426Y-46724853D01*
X88283665Y-46780000D01*
X88566335Y-46780000D01*
X88843574Y-46724853D01*
X89104727Y-46616680D01*
X89339759Y-46459637D01*
X89539637Y-46259759D01*
X89695000Y-46027241D01*
X89850363Y-46259759D01*
G36*
X108985298Y-56820100D02*
G01*
X108594902Y-56820100D01*
X106174801Y-54400000D01*
X106346335Y-54400000D01*
X106528887Y-54363688D01*
X108985298Y-56820100D01*
G37*
X108985298Y-56820100D02*
X108594902Y-56820100D01*
X106174801Y-54400000D01*
X106346335Y-54400000D01*
X106528887Y-54363688D01*
X108985298Y-56820100D01*
G36*
X124284699Y-54539999D02*
G01*
X124260901Y-54568997D01*
X122009799Y-56820100D01*
X119479902Y-56820100D01*
X119584727Y-56776680D01*
X119819759Y-56619637D01*
X120019637Y-56419759D01*
X120176680Y-56184727D01*
X120284853Y-55923574D01*
X120340000Y-55646335D01*
X120340000Y-55363665D01*
X120284853Y-55086426D01*
X120176680Y-54825273D01*
X120019637Y-54590241D01*
X119906496Y-54477100D01*
X124361342Y-54477100D01*
X124284699Y-54539999D01*
G37*
X124284699Y-54539999D02*
X124260901Y-54568997D01*
X122009799Y-56820100D01*
X119479902Y-56820100D01*
X119584727Y-56776680D01*
X119819759Y-56619637D01*
X120019637Y-56419759D01*
X120176680Y-56184727D01*
X120284853Y-55923574D01*
X120340000Y-55646335D01*
X120340000Y-55363665D01*
X120284853Y-55086426D01*
X120176680Y-54825273D01*
X120019637Y-54590241D01*
X119906496Y-54477100D01*
X124361342Y-54477100D01*
X124284699Y-54539999D01*
G36*
X117633320Y-53644727D02*
G01*
X117790363Y-53879759D01*
X117990241Y-54079637D01*
X118222759Y-54235000D01*
X117990241Y-54390363D01*
X117790363Y-54590241D01*
X117633320Y-54825273D01*
X117525147Y-55086426D01*
X117470000Y-55363665D01*
X117470000Y-55646335D01*
X117525147Y-55923574D01*
X117633320Y-56184727D01*
X117790363Y-56419759D01*
X117990241Y-56619637D01*
X118225273Y-56776680D01*
X118330098Y-56820100D01*
X114157701Y-56820100D01*
X117545380Y-53432422D01*
X117633320Y-53644727D01*
G37*
X117633320Y-53644727D02*
X117790363Y-53879759D01*
X117990241Y-54079637D01*
X118222759Y-54235000D01*
X117990241Y-54390363D01*
X117790363Y-54590241D01*
X117633320Y-54825273D01*
X117525147Y-55086426D01*
X117470000Y-55363665D01*
X117470000Y-55646335D01*
X117525147Y-55923574D01*
X117633320Y-56184727D01*
X117790363Y-56419759D01*
X117990241Y-56619637D01*
X118225273Y-56776680D01*
X118330098Y-56820100D01*
X114157701Y-56820100D01*
X117545380Y-53432422D01*
X117633320Y-53644727D01*
G36*
X110170363Y-53879759D02*
G01*
X110370241Y-54079637D01*
X110602759Y-54235000D01*
X110370241Y-54390363D01*
X110170363Y-54590241D01*
X110032007Y-54797306D01*
X109505000Y-54270299D01*
X109505000Y-54183043D01*
X109659759Y-54079637D01*
X109859637Y-53879759D01*
X110015000Y-53647241D01*
X110170363Y-53879759D01*
G37*
X110170363Y-53879759D02*
X110370241Y-54079637D01*
X110602759Y-54235000D01*
X110370241Y-54390363D01*
X110170363Y-54590241D01*
X110032007Y-54797306D01*
X109505000Y-54270299D01*
X109505000Y-54183043D01*
X109659759Y-54079637D01*
X109859637Y-53879759D01*
X110015000Y-53647241D01*
X110170363Y-53879759D01*
G36*
X132553368Y-51073475D02*
G01*
X132727760Y-51190000D01*
X132553368Y-51306525D01*
X132346525Y-51513368D01*
X132217204Y-51706911D01*
X132175714Y-51710997D01*
X132032453Y-51754454D01*
X131900424Y-51825026D01*
X131784699Y-51919999D01*
X131760901Y-51948997D01*
X130752799Y-52957100D01*
X127431126Y-52957100D01*
X127485000Y-52686260D01*
X127485000Y-52393740D01*
X127427932Y-52106842D01*
X127356919Y-51935400D01*
X131031978Y-51935400D01*
X131069300Y-51939076D01*
X131106622Y-51935400D01*
X131106633Y-51935400D01*
X131218286Y-51924403D01*
X131361547Y-51880946D01*
X131493576Y-51810374D01*
X131609301Y-51715401D01*
X131633104Y-51686397D01*
X132399697Y-50919804D01*
X132553368Y-51073475D01*
G37*
X132553368Y-51073475D02*
X132727760Y-51190000D01*
X132553368Y-51306525D01*
X132346525Y-51513368D01*
X132217204Y-51706911D01*
X132175714Y-51710997D01*
X132032453Y-51754454D01*
X131900424Y-51825026D01*
X131784699Y-51919999D01*
X131760901Y-51948997D01*
X130752799Y-52957100D01*
X127431126Y-52957100D01*
X127485000Y-52686260D01*
X127485000Y-52393740D01*
X127427932Y-52106842D01*
X127356919Y-51935400D01*
X131031978Y-51935400D01*
X131069300Y-51939076D01*
X131106622Y-51935400D01*
X131106633Y-51935400D01*
X131218286Y-51924403D01*
X131361547Y-51880946D01*
X131493576Y-51810374D01*
X131609301Y-51715401D01*
X131633104Y-51686397D01*
X132399697Y-50919804D01*
X132553368Y-51073475D01*
G36*
X124166998Y-52957100D02*
G01*
X120340000Y-52957100D01*
X120340000Y-52823665D01*
X120285226Y-52548300D01*
X123758199Y-52548300D01*
X124166998Y-52957100D01*
G37*
X124166998Y-52957100D02*
X120340000Y-52957100D01*
X120340000Y-52823665D01*
X120285226Y-52548300D01*
X123758199Y-52548300D01*
X124166998Y-52957100D01*
G36*
X105090363Y-51339759D02*
G01*
X105290241Y-51539637D01*
X105522759Y-51695000D01*
X105290241Y-51850363D01*
X105090363Y-52050241D01*
X104935000Y-52282759D01*
X104779637Y-52050241D01*
X104579759Y-51850363D01*
X104347241Y-51695000D01*
X104579759Y-51539637D01*
X104779637Y-51339759D01*
X104935000Y-51107241D01*
X105090363Y-51339759D01*
G37*
X105090363Y-51339759D02*
X105290241Y-51539637D01*
X105522759Y-51695000D01*
X105290241Y-51850363D01*
X105090363Y-52050241D01*
X104935000Y-52282759D01*
X104779637Y-52050241D01*
X104579759Y-51850363D01*
X104347241Y-51695000D01*
X104579759Y-51539637D01*
X104779637Y-51339759D01*
X104935000Y-51107241D01*
X105090363Y-51339759D01*
G36*
X110170363Y-51339759D02*
G01*
X110370241Y-51539637D01*
X110602759Y-51695000D01*
X110370241Y-51850363D01*
X110170363Y-52050241D01*
X110015000Y-52282759D01*
X109859637Y-52050241D01*
X109659759Y-51850363D01*
X109427241Y-51695000D01*
X109659759Y-51539637D01*
X109859637Y-51339759D01*
X110015000Y-51107241D01*
X110170363Y-51339759D01*
G37*
X110170363Y-51339759D02*
X110370241Y-51539637D01*
X110602759Y-51695000D01*
X110370241Y-51850363D01*
X110170363Y-52050241D01*
X110015000Y-52282759D01*
X109859637Y-52050241D01*
X109659759Y-51850363D01*
X109427241Y-51695000D01*
X109659759Y-51539637D01*
X109859637Y-51339759D01*
X110015000Y-51107241D01*
X110170363Y-51339759D01*
G36*
X107630363Y-51339759D02*
G01*
X107830241Y-51539637D01*
X108062759Y-51695000D01*
X107830241Y-51850363D01*
X107630363Y-52050241D01*
X107475000Y-52282759D01*
X107319637Y-52050241D01*
X107119759Y-51850363D01*
X106887241Y-51695000D01*
X107119759Y-51539637D01*
X107319637Y-51339759D01*
X107475000Y-51107241D01*
X107630363Y-51339759D01*
G37*
X107630363Y-51339759D02*
X107830241Y-51539637D01*
X108062759Y-51695000D01*
X107830241Y-51850363D01*
X107630363Y-52050241D01*
X107475000Y-52282759D01*
X107319637Y-52050241D01*
X107119759Y-51850363D01*
X106887241Y-51695000D01*
X107119759Y-51539637D01*
X107319637Y-51339759D01*
X107475000Y-51107241D01*
X107630363Y-51339759D01*
G36*
X112365026Y-51424276D02*
G01*
X112377522Y-51439502D01*
X112459999Y-51540001D01*
X112465000Y-51544105D01*
X112465000Y-51601939D01*
X112504774Y-51801898D01*
X112582795Y-51990256D01*
X112696063Y-52159774D01*
X112741289Y-52205000D01*
X112503043Y-52205000D01*
X112399637Y-52050241D01*
X112199759Y-51850363D01*
X111967241Y-51695000D01*
X112199759Y-51539637D01*
X112347642Y-51391754D01*
X112365026Y-51424276D01*
G37*
X112365026Y-51424276D02*
X112377522Y-51439502D01*
X112459999Y-51540001D01*
X112465000Y-51544105D01*
X112465000Y-51601939D01*
X112504774Y-51801898D01*
X112582795Y-51990256D01*
X112696063Y-52159774D01*
X112741289Y-52205000D01*
X112503043Y-52205000D01*
X112399637Y-52050241D01*
X112199759Y-51850363D01*
X111967241Y-51695000D01*
X112199759Y-51539637D01*
X112347642Y-51391754D01*
X112365026Y-51424276D01*
G36*
X117790363Y-46259759D02*
G01*
X117990241Y-46459637D01*
X118225273Y-46616680D01*
X118486426Y-46724853D01*
X118592454Y-46745944D01*
X114381737Y-50956662D01*
X114303937Y-50840226D01*
X114159774Y-50696063D01*
X113990256Y-50582795D01*
X113801898Y-50504774D01*
X113760000Y-50496440D01*
X113760000Y-49037333D01*
X113763677Y-49000000D01*
X113749003Y-48851014D01*
X113705546Y-48707753D01*
X113634974Y-48575724D01*
X113540001Y-48459999D01*
X113424276Y-48365026D01*
X113292247Y-48294454D01*
X113148986Y-48250997D01*
X113037333Y-48240000D01*
X113000000Y-48236323D01*
X112962667Y-48240000D01*
X97474802Y-48240000D01*
X96014802Y-46780000D01*
X96186335Y-46780000D01*
X96463574Y-46724853D01*
X96724727Y-46616680D01*
X96959759Y-46459637D01*
X97159637Y-46259759D01*
X97315000Y-46027241D01*
X97470363Y-46259759D01*
X97670241Y-46459637D01*
X97905273Y-46616680D01*
X98166426Y-46724853D01*
X98443665Y-46780000D01*
X98726335Y-46780000D01*
X99003574Y-46724853D01*
X99264727Y-46616680D01*
X99499759Y-46459637D01*
X99699637Y-46259759D01*
X99855000Y-46027241D01*
X100010363Y-46259759D01*
X100210241Y-46459637D01*
X100445273Y-46616680D01*
X100706426Y-46724853D01*
X100983665Y-46780000D01*
X101266335Y-46780000D01*
X101543574Y-46724853D01*
X101804727Y-46616680D01*
X102039759Y-46459637D01*
X102239637Y-46259759D01*
X102395000Y-46027241D01*
X102550363Y-46259759D01*
X102750241Y-46459637D01*
X102985273Y-46616680D01*
X103246426Y-46724853D01*
X103523665Y-46780000D01*
X103806335Y-46780000D01*
X104083574Y-46724853D01*
X104344727Y-46616680D01*
X104579759Y-46459637D01*
X104779637Y-46259759D01*
X104935000Y-46027241D01*
X105090363Y-46259759D01*
X105290241Y-46459637D01*
X105525273Y-46616680D01*
X105786426Y-46724853D01*
X106063665Y-46780000D01*
X106346335Y-46780000D01*
X106623574Y-46724853D01*
X106884727Y-46616680D01*
X107119759Y-46459637D01*
X107319637Y-46259759D01*
X107475000Y-46027241D01*
X107630363Y-46259759D01*
X107830241Y-46459637D01*
X108065273Y-46616680D01*
X108326426Y-46724853D01*
X108603665Y-46780000D01*
X108886335Y-46780000D01*
X109163574Y-46724853D01*
X109424727Y-46616680D01*
X109659759Y-46459637D01*
X109859637Y-46259759D01*
X110015000Y-46027241D01*
X110170363Y-46259759D01*
X110370241Y-46459637D01*
X110605273Y-46616680D01*
X110866426Y-46724853D01*
X111143665Y-46780000D01*
X111426335Y-46780000D01*
X111703574Y-46724853D01*
X111964727Y-46616680D01*
X112199759Y-46459637D01*
X112399637Y-46259759D01*
X112555000Y-46027241D01*
X112710363Y-46259759D01*
X112910241Y-46459637D01*
X113145273Y-46616680D01*
X113406426Y-46724853D01*
X113683665Y-46780000D01*
X113966335Y-46780000D01*
X114243574Y-46724853D01*
X114504727Y-46616680D01*
X114739759Y-46459637D01*
X114939637Y-46259759D01*
X115095000Y-46027241D01*
X115250363Y-46259759D01*
X115450241Y-46459637D01*
X115685273Y-46616680D01*
X115946426Y-46724853D01*
X116223665Y-46780000D01*
X116506335Y-46780000D01*
X116783574Y-46724853D01*
X117044727Y-46616680D01*
X117279759Y-46459637D01*
X117479637Y-46259759D01*
X117635000Y-46027241D01*
X117790363Y-46259759D01*
G37*
X117790363Y-46259759D02*
X117990241Y-46459637D01*
X118225273Y-46616680D01*
X118486426Y-46724853D01*
X118592454Y-46745944D01*
X114381737Y-50956662D01*
X114303937Y-50840226D01*
X114159774Y-50696063D01*
X113990256Y-50582795D01*
X113801898Y-50504774D01*
X113760000Y-50496440D01*
X113760000Y-49037333D01*
X113763677Y-49000000D01*
X113749003Y-48851014D01*
X113705546Y-48707753D01*
X113634974Y-48575724D01*
X113540001Y-48459999D01*
X113424276Y-48365026D01*
X113292247Y-48294454D01*
X113148986Y-48250997D01*
X113037333Y-48240000D01*
X113000000Y-48236323D01*
X112962667Y-48240000D01*
X97474802Y-48240000D01*
X96014802Y-46780000D01*
X96186335Y-46780000D01*
X96463574Y-46724853D01*
X96724727Y-46616680D01*
X96959759Y-46459637D01*
X97159637Y-46259759D01*
X97315000Y-46027241D01*
X97470363Y-46259759D01*
X97670241Y-46459637D01*
X97905273Y-46616680D01*
X98166426Y-46724853D01*
X98443665Y-46780000D01*
X98726335Y-46780000D01*
X99003574Y-46724853D01*
X99264727Y-46616680D01*
X99499759Y-46459637D01*
X99699637Y-46259759D01*
X99855000Y-46027241D01*
X100010363Y-46259759D01*
X100210241Y-46459637D01*
X100445273Y-46616680D01*
X100706426Y-46724853D01*
X100983665Y-46780000D01*
X101266335Y-46780000D01*
X101543574Y-46724853D01*
X101804727Y-46616680D01*
X102039759Y-46459637D01*
X102239637Y-46259759D01*
X102395000Y-46027241D01*
X102550363Y-46259759D01*
X102750241Y-46459637D01*
X102985273Y-46616680D01*
X103246426Y-46724853D01*
X103523665Y-46780000D01*
X103806335Y-46780000D01*
X104083574Y-46724853D01*
X104344727Y-46616680D01*
X104579759Y-46459637D01*
X104779637Y-46259759D01*
X104935000Y-46027241D01*
X105090363Y-46259759D01*
X105290241Y-46459637D01*
X105525273Y-46616680D01*
X105786426Y-46724853D01*
X106063665Y-46780000D01*
X106346335Y-46780000D01*
X106623574Y-46724853D01*
X106884727Y-46616680D01*
X107119759Y-46459637D01*
X107319637Y-46259759D01*
X107475000Y-46027241D01*
X107630363Y-46259759D01*
X107830241Y-46459637D01*
X108065273Y-46616680D01*
X108326426Y-46724853D01*
X108603665Y-46780000D01*
X108886335Y-46780000D01*
X109163574Y-46724853D01*
X109424727Y-46616680D01*
X109659759Y-46459637D01*
X109859637Y-46259759D01*
X110015000Y-46027241D01*
X110170363Y-46259759D01*
X110370241Y-46459637D01*
X110605273Y-46616680D01*
X110866426Y-46724853D01*
X111143665Y-46780000D01*
X111426335Y-46780000D01*
X111703574Y-46724853D01*
X111964727Y-46616680D01*
X112199759Y-46459637D01*
X112399637Y-46259759D01*
X112555000Y-46027241D01*
X112710363Y-46259759D01*
X112910241Y-46459637D01*
X113145273Y-46616680D01*
X113406426Y-46724853D01*
X113683665Y-46780000D01*
X113966335Y-46780000D01*
X114243574Y-46724853D01*
X114504727Y-46616680D01*
X114739759Y-46459637D01*
X114939637Y-46259759D01*
X115095000Y-46027241D01*
X115250363Y-46259759D01*
X115450241Y-46459637D01*
X115685273Y-46616680D01*
X115946426Y-46724853D01*
X116223665Y-46780000D01*
X116506335Y-46780000D01*
X116783574Y-46724853D01*
X117044727Y-46616680D01*
X117279759Y-46459637D01*
X117479637Y-46259759D01*
X117635000Y-46027241D01*
X117790363Y-46259759D01*
G36*
X124165298Y-50415400D02*
G01*
X120340000Y-50415400D01*
X120340000Y-50283665D01*
X120287235Y-50018400D01*
X123768299Y-50018400D01*
X124165298Y-50415400D01*
G37*
X124165298Y-50415400D02*
X120340000Y-50415400D01*
X120340000Y-50283665D01*
X120287235Y-50018400D01*
X123768299Y-50018400D01*
X124165298Y-50415400D01*
G36*
X124846525Y-43406632D02*
G01*
X125053368Y-43613475D01*
X125227760Y-43730000D01*
X125053368Y-43846525D01*
X124846525Y-44053368D01*
X124721822Y-44240000D01*
X123248003Y-44240000D01*
X124268003Y-43220000D01*
X124721822Y-43220000D01*
X124846525Y-43406632D01*
G37*
X124846525Y-43406632D02*
X125053368Y-43613475D01*
X125227760Y-43730000D01*
X125053368Y-43846525D01*
X124846525Y-44053368D01*
X124721822Y-44240000D01*
X123248003Y-44240000D01*
X124268003Y-43220000D01*
X124721822Y-43220000D01*
X124846525Y-43406632D01*
M02*
