M48
; DRILL file {KiCad 5.1.6-c6e7f7d~87~ubuntu20.04.1} date Fri Aug 28 13:02:32 2020
; FORMAT={-:-/ absolute / metric / decimal}
; #@! TF.CreationDate,2020-08-28T13:02:32+02:00
; #@! TF.GenerationSoftware,Kicad,Pcbnew,5.1.6-c6e7f7d~87~ubuntu20.04.1
; #@! TF.FileFunction,Plated,1,2,PTH
FMAT,2
METRIC
T1C0.400
T2C1.000
T3C1.100
%
G90
G05
T1
X113.5Y-51.5
T2
X126.0Y-39.92
X126.0Y-42.46
X126.0Y-45.0
X70.68Y-66.0
X73.22Y-66.0
X75.76Y-66.0
X78.3Y-66.0
X80.84Y-66.0
X83.38Y-66.0
X85.92Y-66.0
X88.46Y-66.0
X91.0Y-66.0
X93.54Y-66.0
X96.08Y-66.0
X98.62Y-66.0
X101.16Y-66.0
X103.7Y-66.0
X106.24Y-66.0
X108.78Y-66.0
X111.32Y-66.0
X113.86Y-66.0
X116.4Y-66.0
X118.94Y-66.0
X70.46Y-39.0
X73.0Y-39.0
X75.54Y-39.0
X78.08Y-39.0
X80.62Y-39.0
X83.16Y-39.0
X85.7Y-39.0
X88.24Y-39.0
X90.78Y-39.0
X93.32Y-39.0
X95.86Y-39.0
X98.4Y-39.0
X100.94Y-39.0
X103.48Y-39.0
X106.02Y-39.0
X108.56Y-39.0
X111.1Y-39.0
X113.64Y-39.0
X116.18Y-39.0
X118.72Y-39.0
X133.5Y-49.92
X133.5Y-52.46
X133.5Y-55.0
X126.0Y-50.0
X126.0Y-52.54
X126.0Y-55.08
X126.0Y-61.0
X126.0Y-63.54
X126.0Y-66.08
T3
X70.645Y-45.345
X70.645Y-60.585
X73.185Y-45.345
X73.185Y-60.585
X75.725Y-45.345
X75.725Y-60.585
X78.265Y-45.345
X78.265Y-60.585
X80.805Y-45.345
X80.805Y-60.585
X83.345Y-45.345
X83.345Y-60.585
X85.885Y-45.345
X85.885Y-60.585
X88.425Y-45.345
X88.425Y-60.585
X90.965Y-45.345
X90.965Y-60.585
X93.505Y-45.345
X93.505Y-60.585
X96.045Y-45.345
X96.045Y-60.585
X98.585Y-45.345
X98.585Y-60.585
X101.125Y-45.345
X101.125Y-60.585
X103.665Y-45.345
X103.665Y-50.425
X103.665Y-52.965
X103.665Y-60.585
X106.205Y-45.345
X106.205Y-50.425
X106.205Y-52.965
X106.205Y-60.585
X108.745Y-45.345
X108.745Y-50.425
X108.745Y-52.965
X108.745Y-60.585
X111.285Y-45.345
X111.285Y-50.425
X111.285Y-52.965
X111.285Y-55.505
X111.285Y-60.585
X113.825Y-45.345
X113.825Y-60.585
X116.365Y-45.345
X116.365Y-60.585
X118.905Y-45.345
X118.905Y-50.425
X118.905Y-52.965
X118.905Y-55.505
X118.905Y-60.585
T0
M30
