%FSLAX45Y45*%
G04 Gerber Fmt 4.5, Leading zero omitted, Abs format (unit mm)*
G04 Created by KiCad (PCBNEW 5.1.6-c6e7f7d~87~ubuntu20.04.1) date 2020-08-28 13:02:30*
%MOMM*%
%LPD*%
G01*
G04 APERTURE LIST*
%TA.AperFunction,Profile*%
%ADD10C,0.050000*%
%TD*%
%ADD11C,0.200000*%
%ADD12C,0.300000*%
G04 APERTURE END LIST*
D10*
X6900000Y-8000000D02*
X13800000Y-8000000D01*
X13800000Y-2500000D02*
X13800000Y-2900000D01*
X6900000Y-2500000D02*
X13800000Y-2500000D01*
X6900000Y-3000000D02*
X6900000Y-2500000D01*
X13800000Y-2900000D02*
X13800000Y-8000000D01*
X6900000Y-3000000D02*
X6900000Y-8000000D01*
D11*
X7285000Y-2885000D02*
X7715000Y-3315000D01*
X7715000Y-2885000D02*
X7285000Y-3315000D01*
X7285000Y-7285000D02*
X7715000Y-7715000D01*
X7715000Y-7285000D02*
X7285000Y-7715000D01*
X12985000Y-7185000D02*
X13415000Y-7615000D01*
X13415000Y-7185000D02*
X12985000Y-7615000D01*
X12985000Y-2885000D02*
X13415000Y-3315000D01*
X13415000Y-2885000D02*
X12985000Y-3315000D01*
D12*
X6936428Y-8468214D02*
X6936428Y-8168214D01*
X7007857Y-8168214D01*
X7050714Y-8182500D01*
X7079286Y-8211071D01*
X7093571Y-8239643D01*
X7107857Y-8296786D01*
X7107857Y-8339643D01*
X7093571Y-8396786D01*
X7079286Y-8425357D01*
X7050714Y-8453929D01*
X7007857Y-8468214D01*
X6936428Y-8468214D01*
X7236428Y-8468214D02*
X7236428Y-8268214D01*
X7236428Y-8325357D02*
X7250714Y-8296786D01*
X7265000Y-8282500D01*
X7293571Y-8268214D01*
X7322143Y-8268214D01*
X7422143Y-8468214D02*
X7422143Y-8268214D01*
X7422143Y-8168214D02*
X7407857Y-8182500D01*
X7422143Y-8196786D01*
X7436428Y-8182500D01*
X7422143Y-8168214D01*
X7422143Y-8196786D01*
X7607857Y-8468214D02*
X7579286Y-8453929D01*
X7565000Y-8425357D01*
X7565000Y-8168214D01*
X7765000Y-8468214D02*
X7736428Y-8453929D01*
X7722143Y-8425357D01*
X7722143Y-8168214D01*
X8107857Y-8468214D02*
X8107857Y-8168214D01*
X8207857Y-8382500D01*
X8307857Y-8168214D01*
X8307857Y-8468214D01*
X8579286Y-8468214D02*
X8579286Y-8311071D01*
X8565000Y-8282500D01*
X8536429Y-8268214D01*
X8479286Y-8268214D01*
X8450714Y-8282500D01*
X8579286Y-8453929D02*
X8550714Y-8468214D01*
X8479286Y-8468214D01*
X8450714Y-8453929D01*
X8436429Y-8425357D01*
X8436429Y-8396786D01*
X8450714Y-8368214D01*
X8479286Y-8353929D01*
X8550714Y-8353929D01*
X8579286Y-8339643D01*
X8722143Y-8268214D02*
X8722143Y-8568214D01*
X8722143Y-8282500D02*
X8750714Y-8268214D01*
X8807857Y-8268214D01*
X8836429Y-8282500D01*
X8850714Y-8296786D01*
X8865000Y-8325357D01*
X8865000Y-8411072D01*
X8850714Y-8439643D01*
X8836429Y-8453929D01*
X8807857Y-8468214D01*
X8750714Y-8468214D01*
X8722143Y-8453929D01*
X8993571Y-8439643D02*
X9007857Y-8453929D01*
X8993571Y-8468214D01*
X8979286Y-8453929D01*
X8993571Y-8439643D01*
X8993571Y-8468214D01*
X8993571Y-8282500D02*
X9007857Y-8296786D01*
X8993571Y-8311071D01*
X8979286Y-8296786D01*
X8993571Y-8282500D01*
X8993571Y-8311071D01*
X6220000Y-8747500D02*
X6650000Y-9177500D01*
X6650000Y-8747500D02*
X6220000Y-9177500D01*
X7065000Y-8898214D02*
X7065000Y-9098214D01*
X6993571Y-8783929D02*
X6922143Y-8998214D01*
X7107857Y-8998214D01*
X7222143Y-9069643D02*
X7236428Y-9083929D01*
X7222143Y-9098214D01*
X7207857Y-9083929D01*
X7222143Y-9069643D01*
X7222143Y-9098214D01*
X7336428Y-8798214D02*
X7522143Y-8798214D01*
X7422143Y-8912500D01*
X7465000Y-8912500D01*
X7493571Y-8926786D01*
X7507857Y-8941072D01*
X7522143Y-8969643D01*
X7522143Y-9041072D01*
X7507857Y-9069643D01*
X7493571Y-9083929D01*
X7465000Y-9098214D01*
X7379286Y-9098214D01*
X7350714Y-9083929D01*
X7336428Y-9069643D01*
X7707857Y-8798214D02*
X7736428Y-8798214D01*
X7765000Y-8812500D01*
X7779286Y-8826786D01*
X7793571Y-8855357D01*
X7807857Y-8912500D01*
X7807857Y-8983929D01*
X7793571Y-9041072D01*
X7779286Y-9069643D01*
X7765000Y-9083929D01*
X7736428Y-9098214D01*
X7707857Y-9098214D01*
X7679286Y-9083929D01*
X7665000Y-9069643D01*
X7650714Y-9041072D01*
X7636428Y-8983929D01*
X7636428Y-8912500D01*
X7650714Y-8855357D01*
X7665000Y-8826786D01*
X7679286Y-8812500D01*
X7707857Y-8798214D01*
X7936428Y-9098214D02*
X7936428Y-8898214D01*
X7936428Y-8926786D02*
X7950714Y-8912500D01*
X7979286Y-8898214D01*
X8022143Y-8898214D01*
X8050714Y-8912500D01*
X8065000Y-8941072D01*
X8065000Y-9098214D01*
X8065000Y-8941072D02*
X8079286Y-8912500D01*
X8107857Y-8898214D01*
X8150714Y-8898214D01*
X8179286Y-8912500D01*
X8193571Y-8941072D01*
X8193571Y-9098214D01*
X8336428Y-9098214D02*
X8336428Y-8898214D01*
X8336428Y-8926786D02*
X8350714Y-8912500D01*
X8379286Y-8898214D01*
X8422143Y-8898214D01*
X8450714Y-8912500D01*
X8465000Y-8941072D01*
X8465000Y-9098214D01*
X8465000Y-8941072D02*
X8479286Y-8912500D01*
X8507857Y-8898214D01*
X8550714Y-8898214D01*
X8579286Y-8912500D01*
X8593571Y-8941072D01*
X8593571Y-9098214D01*
X9179286Y-8783929D02*
X8922143Y-9169643D01*
X9565000Y-8798214D02*
X9593571Y-8798214D01*
X9622143Y-8812500D01*
X9636429Y-8826786D01*
X9650714Y-8855357D01*
X9665000Y-8912500D01*
X9665000Y-8983929D01*
X9650714Y-9041072D01*
X9636429Y-9069643D01*
X9622143Y-9083929D01*
X9593571Y-9098214D01*
X9565000Y-9098214D01*
X9536429Y-9083929D01*
X9522143Y-9069643D01*
X9507857Y-9041072D01*
X9493571Y-8983929D01*
X9493571Y-8912500D01*
X9507857Y-8855357D01*
X9522143Y-8826786D01*
X9536429Y-8812500D01*
X9565000Y-8798214D01*
X9793571Y-9069643D02*
X9807857Y-9083929D01*
X9793571Y-9098214D01*
X9779286Y-9083929D01*
X9793571Y-9069643D01*
X9793571Y-9098214D01*
X10093571Y-9098214D02*
X9922143Y-9098214D01*
X10007857Y-9098214D02*
X10007857Y-8798214D01*
X9979286Y-8841072D01*
X9950714Y-8869643D01*
X9922143Y-8883929D01*
X10350714Y-8798214D02*
X10293571Y-8798214D01*
X10265000Y-8812500D01*
X10250714Y-8826786D01*
X10222143Y-8869643D01*
X10207857Y-8926786D01*
X10207857Y-9041072D01*
X10222143Y-9069643D01*
X10236429Y-9083929D01*
X10265000Y-9098214D01*
X10322143Y-9098214D01*
X10350714Y-9083929D01*
X10365000Y-9069643D01*
X10379286Y-9041072D01*
X10379286Y-8969643D01*
X10365000Y-8941072D01*
X10350714Y-8926786D01*
X10322143Y-8912500D01*
X10265000Y-8912500D01*
X10236429Y-8926786D01*
X10222143Y-8941072D01*
X10207857Y-8969643D01*
X10522143Y-9098214D02*
X10579286Y-9098214D01*
X10607857Y-9083929D01*
X10622143Y-9069643D01*
X10650714Y-9026786D01*
X10665000Y-8969643D01*
X10665000Y-8855357D01*
X10650714Y-8826786D01*
X10636429Y-8812500D01*
X10607857Y-8798214D01*
X10550714Y-8798214D01*
X10522143Y-8812500D01*
X10507857Y-8826786D01*
X10493571Y-8855357D01*
X10493571Y-8926786D01*
X10507857Y-8955357D01*
X10522143Y-8969643D01*
X10550714Y-8983929D01*
X10607857Y-8983929D01*
X10636429Y-8969643D01*
X10650714Y-8955357D01*
X10665000Y-8926786D01*
X10779286Y-8798214D02*
X10779286Y-8855357D01*
X10893571Y-8798214D02*
X10893571Y-8855357D01*
X11336428Y-9212500D02*
X11322143Y-9198214D01*
X11293571Y-9155357D01*
X11279286Y-9126786D01*
X11265000Y-9083929D01*
X11250714Y-9012500D01*
X11250714Y-8955357D01*
X11265000Y-8883929D01*
X11279286Y-8841072D01*
X11293571Y-8812500D01*
X11322143Y-8769643D01*
X11336428Y-8755357D01*
X11579286Y-8898214D02*
X11579286Y-9098214D01*
X11507857Y-8783929D02*
X11436428Y-8998214D01*
X11622143Y-8998214D01*
X11965000Y-9098214D02*
X11965000Y-8798214D01*
X12093571Y-9098214D02*
X12093571Y-8941072D01*
X12079286Y-8912500D01*
X12050714Y-8898214D01*
X12007857Y-8898214D01*
X11979286Y-8912500D01*
X11965000Y-8926786D01*
X12279286Y-9098214D02*
X12250714Y-9083929D01*
X12236428Y-9069643D01*
X12222143Y-9041072D01*
X12222143Y-8955357D01*
X12236428Y-8926786D01*
X12250714Y-8912500D01*
X12279286Y-8898214D01*
X12322143Y-8898214D01*
X12350714Y-8912500D01*
X12365000Y-8926786D01*
X12379286Y-8955357D01*
X12379286Y-9041072D01*
X12365000Y-9069643D01*
X12350714Y-9083929D01*
X12322143Y-9098214D01*
X12279286Y-9098214D01*
X12550714Y-9098214D02*
X12522143Y-9083929D01*
X12507857Y-9055357D01*
X12507857Y-8798214D01*
X12779286Y-9083929D02*
X12750714Y-9098214D01*
X12693571Y-9098214D01*
X12665000Y-9083929D01*
X12650714Y-9055357D01*
X12650714Y-8941072D01*
X12665000Y-8912500D01*
X12693571Y-8898214D01*
X12750714Y-8898214D01*
X12779286Y-8912500D01*
X12793571Y-8941072D01*
X12793571Y-8969643D01*
X12650714Y-8998214D01*
X12907857Y-9083929D02*
X12936428Y-9098214D01*
X12993571Y-9098214D01*
X13022143Y-9083929D01*
X13036428Y-9055357D01*
X13036428Y-9041072D01*
X13022143Y-9012500D01*
X12993571Y-8998214D01*
X12950714Y-8998214D01*
X12922143Y-8983929D01*
X12907857Y-8955357D01*
X12907857Y-8941072D01*
X12922143Y-8912500D01*
X12950714Y-8898214D01*
X12993571Y-8898214D01*
X13022143Y-8912500D01*
X13136428Y-9212500D02*
X13150714Y-9198214D01*
X13179286Y-9155357D01*
X13193571Y-9126786D01*
X13207857Y-9083929D01*
X13222143Y-9012500D01*
X13222143Y-8955357D01*
X13207857Y-8883929D01*
X13193571Y-8841072D01*
X13179286Y-8812500D01*
X13150714Y-8769643D01*
X13136428Y-8755357D01*
X13679286Y-9212500D02*
X13665000Y-9198214D01*
X13636428Y-9155357D01*
X13622143Y-9126786D01*
X13607857Y-9083929D01*
X13593571Y-9012500D01*
X13593571Y-8955357D01*
X13607857Y-8883929D01*
X13622143Y-8841072D01*
X13636428Y-8812500D01*
X13665000Y-8769643D01*
X13679286Y-8755357D01*
X13793571Y-8898214D02*
X13793571Y-9098214D01*
X13793571Y-8926786D02*
X13807857Y-8912500D01*
X13836428Y-8898214D01*
X13879286Y-8898214D01*
X13907857Y-8912500D01*
X13922143Y-8941072D01*
X13922143Y-9098214D01*
X14107857Y-9098214D02*
X14079286Y-9083929D01*
X14065000Y-9069643D01*
X14050714Y-9041072D01*
X14050714Y-8955357D01*
X14065000Y-8926786D01*
X14079286Y-8912500D01*
X14107857Y-8898214D01*
X14150714Y-8898214D01*
X14179286Y-8912500D01*
X14193571Y-8926786D01*
X14207857Y-8955357D01*
X14207857Y-9041072D01*
X14193571Y-9069643D01*
X14179286Y-9083929D01*
X14150714Y-9098214D01*
X14107857Y-9098214D01*
X14293571Y-8898214D02*
X14407857Y-8898214D01*
X14336428Y-8798214D02*
X14336428Y-9055357D01*
X14350714Y-9083929D01*
X14379286Y-9098214D01*
X14407857Y-9098214D01*
X14736428Y-8898214D02*
X14736428Y-9198214D01*
X14736428Y-8912500D02*
X14765000Y-8898214D01*
X14822143Y-8898214D01*
X14850714Y-8912500D01*
X14865000Y-8926786D01*
X14879286Y-8955357D01*
X14879286Y-9041072D01*
X14865000Y-9069643D01*
X14850714Y-9083929D01*
X14822143Y-9098214D01*
X14765000Y-9098214D01*
X14736428Y-9083929D01*
X15050714Y-9098214D02*
X15022143Y-9083929D01*
X15007857Y-9055357D01*
X15007857Y-8798214D01*
X15293571Y-9098214D02*
X15293571Y-8941072D01*
X15279286Y-8912500D01*
X15250714Y-8898214D01*
X15193571Y-8898214D01*
X15165000Y-8912500D01*
X15293571Y-9083929D02*
X15265000Y-9098214D01*
X15193571Y-9098214D01*
X15165000Y-9083929D01*
X15150714Y-9055357D01*
X15150714Y-9026786D01*
X15165000Y-8998214D01*
X15193571Y-8983929D01*
X15265000Y-8983929D01*
X15293571Y-8969643D01*
X15393571Y-8898214D02*
X15507857Y-8898214D01*
X15436428Y-8798214D02*
X15436428Y-9055357D01*
X15450714Y-9083929D01*
X15479286Y-9098214D01*
X15507857Y-9098214D01*
X15722143Y-9083929D02*
X15693571Y-9098214D01*
X15636428Y-9098214D01*
X15607857Y-9083929D01*
X15593571Y-9055357D01*
X15593571Y-8941072D01*
X15607857Y-8912500D01*
X15636428Y-8898214D01*
X15693571Y-8898214D01*
X15722143Y-8912500D01*
X15736428Y-8941072D01*
X15736428Y-8969643D01*
X15593571Y-8998214D01*
X15993571Y-9098214D02*
X15993571Y-8798214D01*
X15993571Y-9083929D02*
X15965000Y-9098214D01*
X15907857Y-9098214D01*
X15879286Y-9083929D01*
X15865000Y-9069643D01*
X15850714Y-9041072D01*
X15850714Y-8955357D01*
X15865000Y-8926786D01*
X15879286Y-8912500D01*
X15907857Y-8898214D01*
X15965000Y-8898214D01*
X15993571Y-8912500D01*
X16107857Y-9212500D02*
X16122143Y-9198214D01*
X16150714Y-9155357D01*
X16165000Y-9126786D01*
X16179286Y-9083929D01*
X16193571Y-9012500D01*
X16193571Y-8955357D01*
X16179286Y-8883929D01*
X16165000Y-8841072D01*
X16150714Y-8812500D01*
X16122143Y-8769643D01*
X16107857Y-8755357D01*
M02*
