%FSLAX45Y45*%
G04 Gerber Fmt 4.5, Leading zero omitted, Abs format (unit mm)*
G04 Created by KiCad (PCBNEW 5.1.6-c6e7f7d~87~ubuntu20.04.1) date 2020-08-28 13:02:30*
%MOMM*%
%LPD*%
G01*
G04 APERTURE LIST*
%TA.AperFunction,Profile*%
%ADD10C,0.050000*%
%TD*%
%ADD11C,0.200000*%
%ADD12C,0.300000*%
G04 APERTURE END LIST*
D10*
X6900000Y-8000000D02*
X13800000Y-8000000D01*
X13800000Y-2500000D02*
X13800000Y-2900000D01*
X6900000Y-2500000D02*
X13800000Y-2500000D01*
X6900000Y-3000000D02*
X6900000Y-2500000D01*
X13800000Y-2900000D02*
X13800000Y-8000000D01*
X6900000Y-3000000D02*
X6900000Y-8000000D01*
D11*
X11330000Y-5130000D02*
X11370000Y-5170000D01*
X11370000Y-5130000D02*
X11330000Y-5170000D01*
X12650000Y-3992000D02*
G75*
G03*
X12650000Y-3992000I-50000J0D01*
G01*
X12650000Y-4246000D02*
G75*
G03*
X12650000Y-4246000I-50000J0D01*
G01*
X12650000Y-4500000D02*
G75*
G03*
X12650000Y-4500000I-50000J0D01*
G01*
X7118000Y-6600000D02*
G75*
G03*
X7118000Y-6600000I-50000J0D01*
G01*
X7372000Y-6600000D02*
G75*
G03*
X7372000Y-6600000I-50000J0D01*
G01*
X7626000Y-6600000D02*
G75*
G03*
X7626000Y-6600000I-50000J0D01*
G01*
X7880000Y-6600000D02*
G75*
G03*
X7880000Y-6600000I-50000J0D01*
G01*
X8134000Y-6600000D02*
G75*
G03*
X8134000Y-6600000I-50000J0D01*
G01*
X8388000Y-6600000D02*
G75*
G03*
X8388000Y-6600000I-50000J0D01*
G01*
X8642000Y-6600000D02*
G75*
G03*
X8642000Y-6600000I-50000J0D01*
G01*
X8896000Y-6600000D02*
G75*
G03*
X8896000Y-6600000I-50000J0D01*
G01*
X9150000Y-6600000D02*
G75*
G03*
X9150000Y-6600000I-50000J0D01*
G01*
X9404000Y-6600000D02*
G75*
G03*
X9404000Y-6600000I-50000J0D01*
G01*
X9658000Y-6600000D02*
G75*
G03*
X9658000Y-6600000I-50000J0D01*
G01*
X9912000Y-6600000D02*
G75*
G03*
X9912000Y-6600000I-50000J0D01*
G01*
X10166000Y-6600000D02*
G75*
G03*
X10166000Y-6600000I-50000J0D01*
G01*
X10420000Y-6600000D02*
G75*
G03*
X10420000Y-6600000I-50000J0D01*
G01*
X10674000Y-6600000D02*
G75*
G03*
X10674000Y-6600000I-50000J0D01*
G01*
X10928000Y-6600000D02*
G75*
G03*
X10928000Y-6600000I-50000J0D01*
G01*
X11182000Y-6600000D02*
G75*
G03*
X11182000Y-6600000I-50000J0D01*
G01*
X11436000Y-6600000D02*
G75*
G03*
X11436000Y-6600000I-50000J0D01*
G01*
X11690000Y-6600000D02*
G75*
G03*
X11690000Y-6600000I-50000J0D01*
G01*
X11944000Y-6600000D02*
G75*
G03*
X11944000Y-6600000I-50000J0D01*
G01*
X7096000Y-3900000D02*
G75*
G03*
X7096000Y-3900000I-50000J0D01*
G01*
X7350000Y-3900000D02*
G75*
G03*
X7350000Y-3900000I-50000J0D01*
G01*
X7604000Y-3900000D02*
G75*
G03*
X7604000Y-3900000I-50000J0D01*
G01*
X7858000Y-3900000D02*
G75*
G03*
X7858000Y-3900000I-50000J0D01*
G01*
X8112000Y-3900000D02*
G75*
G03*
X8112000Y-3900000I-50000J0D01*
G01*
X8366000Y-3900000D02*
G75*
G03*
X8366000Y-3900000I-50000J0D01*
G01*
X8620000Y-3900000D02*
G75*
G03*
X8620000Y-3900000I-50000J0D01*
G01*
X8874000Y-3900000D02*
G75*
G03*
X8874000Y-3900000I-50000J0D01*
G01*
X9128000Y-3900000D02*
G75*
G03*
X9128000Y-3900000I-50000J0D01*
G01*
X9382000Y-3900000D02*
G75*
G03*
X9382000Y-3900000I-50000J0D01*
G01*
X9636000Y-3900000D02*
G75*
G03*
X9636000Y-3900000I-50000J0D01*
G01*
X9890000Y-3900000D02*
G75*
G03*
X9890000Y-3900000I-50000J0D01*
G01*
X10144000Y-3900000D02*
G75*
G03*
X10144000Y-3900000I-50000J0D01*
G01*
X10398000Y-3900000D02*
G75*
G03*
X10398000Y-3900000I-50000J0D01*
G01*
X10652000Y-3900000D02*
G75*
G03*
X10652000Y-3900000I-50000J0D01*
G01*
X10906000Y-3900000D02*
G75*
G03*
X10906000Y-3900000I-50000J0D01*
G01*
X11160000Y-3900000D02*
G75*
G03*
X11160000Y-3900000I-50000J0D01*
G01*
X11414000Y-3900000D02*
G75*
G03*
X11414000Y-3900000I-50000J0D01*
G01*
X11668000Y-3900000D02*
G75*
G03*
X11668000Y-3900000I-50000J0D01*
G01*
X11922000Y-3900000D02*
G75*
G03*
X11922000Y-3900000I-50000J0D01*
G01*
X13400000Y-4992000D02*
G75*
G03*
X13400000Y-4992000I-50000J0D01*
G01*
X13400000Y-5246000D02*
G75*
G03*
X13400000Y-5246000I-50000J0D01*
G01*
X13400000Y-5500000D02*
G75*
G03*
X13400000Y-5500000I-50000J0D01*
G01*
X12650000Y-5000000D02*
G75*
G03*
X12650000Y-5000000I-50000J0D01*
G01*
X12650000Y-5254000D02*
G75*
G03*
X12650000Y-5254000I-50000J0D01*
G01*
X12650000Y-5508000D02*
G75*
G03*
X12650000Y-5508000I-50000J0D01*
G01*
X12650000Y-6100000D02*
G75*
G03*
X12650000Y-6100000I-50000J0D01*
G01*
X12650000Y-6354000D02*
G75*
G03*
X12650000Y-6354000I-50000J0D01*
G01*
X12650000Y-6608000D02*
G75*
G03*
X12650000Y-6608000I-50000J0D01*
G01*
X7064500Y-4479500D02*
X7064500Y-4589500D01*
X7009500Y-4534500D02*
X7119500Y-4534500D01*
X7064500Y-6003500D02*
X7064500Y-6113500D01*
X7009500Y-6058500D02*
X7119500Y-6058500D01*
X7318500Y-4479500D02*
X7318500Y-4589500D01*
X7263500Y-4534500D02*
X7373500Y-4534500D01*
X7318500Y-6003500D02*
X7318500Y-6113500D01*
X7263500Y-6058500D02*
X7373500Y-6058500D01*
X7572500Y-4479500D02*
X7572500Y-4589500D01*
X7517500Y-4534500D02*
X7627500Y-4534500D01*
X7572500Y-6003500D02*
X7572500Y-6113500D01*
X7517500Y-6058500D02*
X7627500Y-6058500D01*
X7826500Y-4479500D02*
X7826500Y-4589500D01*
X7771500Y-4534500D02*
X7881500Y-4534500D01*
X7826500Y-6003500D02*
X7826500Y-6113500D01*
X7771500Y-6058500D02*
X7881500Y-6058500D01*
X8080500Y-4479500D02*
X8080500Y-4589500D01*
X8025500Y-4534500D02*
X8135500Y-4534500D01*
X8080500Y-6003500D02*
X8080500Y-6113500D01*
X8025500Y-6058500D02*
X8135500Y-6058500D01*
X8334500Y-4479500D02*
X8334500Y-4589500D01*
X8279500Y-4534500D02*
X8389500Y-4534500D01*
X8334500Y-6003500D02*
X8334500Y-6113500D01*
X8279500Y-6058500D02*
X8389500Y-6058500D01*
X8588500Y-4479500D02*
X8588500Y-4589500D01*
X8533500Y-4534500D02*
X8643500Y-4534500D01*
X8588500Y-6003500D02*
X8588500Y-6113500D01*
X8533500Y-6058500D02*
X8643500Y-6058500D01*
X8842500Y-4479500D02*
X8842500Y-4589500D01*
X8787500Y-4534500D02*
X8897500Y-4534500D01*
X8842500Y-6003500D02*
X8842500Y-6113500D01*
X8787500Y-6058500D02*
X8897500Y-6058500D01*
X9096500Y-4479500D02*
X9096500Y-4589500D01*
X9041500Y-4534500D02*
X9151500Y-4534500D01*
X9096500Y-6003500D02*
X9096500Y-6113500D01*
X9041500Y-6058500D02*
X9151500Y-6058500D01*
X9350500Y-4479500D02*
X9350500Y-4589500D01*
X9295500Y-4534500D02*
X9405500Y-4534500D01*
X9350500Y-6003500D02*
X9350500Y-6113500D01*
X9295500Y-6058500D02*
X9405500Y-6058500D01*
X9604500Y-4479500D02*
X9604500Y-4589500D01*
X9549500Y-4534500D02*
X9659500Y-4534500D01*
X9604500Y-6003500D02*
X9604500Y-6113500D01*
X9549500Y-6058500D02*
X9659500Y-6058500D01*
X9858500Y-4479500D02*
X9858500Y-4589500D01*
X9803500Y-4534500D02*
X9913500Y-4534500D01*
X9858500Y-6003500D02*
X9858500Y-6113500D01*
X9803500Y-6058500D02*
X9913500Y-6058500D01*
X10112500Y-4479500D02*
X10112500Y-4589500D01*
X10057500Y-4534500D02*
X10167500Y-4534500D01*
X10112500Y-6003500D02*
X10112500Y-6113500D01*
X10057500Y-6058500D02*
X10167500Y-6058500D01*
X10366500Y-4479500D02*
X10366500Y-4589500D01*
X10311500Y-4534500D02*
X10421500Y-4534500D01*
X10366500Y-4987500D02*
X10366500Y-5097500D01*
X10311500Y-5042500D02*
X10421500Y-5042500D01*
X10366500Y-5241500D02*
X10366500Y-5351500D01*
X10311500Y-5296500D02*
X10421500Y-5296500D01*
X10366500Y-6003500D02*
X10366500Y-6113500D01*
X10311500Y-6058500D02*
X10421500Y-6058500D01*
X10620500Y-4479500D02*
X10620500Y-4589500D01*
X10565500Y-4534500D02*
X10675500Y-4534500D01*
X10620500Y-4987500D02*
X10620500Y-5097500D01*
X10565500Y-5042500D02*
X10675500Y-5042500D01*
X10620500Y-5241500D02*
X10620500Y-5351500D01*
X10565500Y-5296500D02*
X10675500Y-5296500D01*
X10620500Y-6003500D02*
X10620500Y-6113500D01*
X10565500Y-6058500D02*
X10675500Y-6058500D01*
X10874500Y-4479500D02*
X10874500Y-4589500D01*
X10819500Y-4534500D02*
X10929500Y-4534500D01*
X10874500Y-4987500D02*
X10874500Y-5097500D01*
X10819500Y-5042500D02*
X10929500Y-5042500D01*
X10874500Y-5241500D02*
X10874500Y-5351500D01*
X10819500Y-5296500D02*
X10929500Y-5296500D01*
X10874500Y-6003500D02*
X10874500Y-6113500D01*
X10819500Y-6058500D02*
X10929500Y-6058500D01*
X11128500Y-4479500D02*
X11128500Y-4589500D01*
X11073500Y-4534500D02*
X11183500Y-4534500D01*
X11128500Y-4987500D02*
X11128500Y-5097500D01*
X11073500Y-5042500D02*
X11183500Y-5042500D01*
X11128500Y-5241500D02*
X11128500Y-5351500D01*
X11073500Y-5296500D02*
X11183500Y-5296500D01*
X11128500Y-5495500D02*
X11128500Y-5605500D01*
X11073500Y-5550500D02*
X11183500Y-5550500D01*
X11128500Y-6003500D02*
X11128500Y-6113500D01*
X11073500Y-6058500D02*
X11183500Y-6058500D01*
X11382500Y-4479500D02*
X11382500Y-4589500D01*
X11327500Y-4534500D02*
X11437500Y-4534500D01*
X11382500Y-6003500D02*
X11382500Y-6113500D01*
X11327500Y-6058500D02*
X11437500Y-6058500D01*
X11636500Y-4479500D02*
X11636500Y-4589500D01*
X11581500Y-4534500D02*
X11691500Y-4534500D01*
X11636500Y-6003500D02*
X11636500Y-6113500D01*
X11581500Y-6058500D02*
X11691500Y-6058500D01*
X11890500Y-4479500D02*
X11890500Y-4589500D01*
X11835500Y-4534500D02*
X11945500Y-4534500D01*
X11890500Y-4987500D02*
X11890500Y-5097500D01*
X11835500Y-5042500D02*
X11945500Y-5042500D01*
X11890500Y-5241500D02*
X11890500Y-5351500D01*
X11835500Y-5296500D02*
X11945500Y-5296500D01*
X11890500Y-5495500D02*
X11890500Y-5605500D01*
X11835500Y-5550500D02*
X11945500Y-5550500D01*
X11890500Y-6003500D02*
X11890500Y-6113500D01*
X11835500Y-6058500D02*
X11945500Y-6058500D01*
D12*
X6936428Y-8468214D02*
X6936428Y-8168214D01*
X7007857Y-8168214D01*
X7050714Y-8182500D01*
X7079286Y-8211071D01*
X7093571Y-8239643D01*
X7107857Y-8296786D01*
X7107857Y-8339643D01*
X7093571Y-8396786D01*
X7079286Y-8425357D01*
X7050714Y-8453929D01*
X7007857Y-8468214D01*
X6936428Y-8468214D01*
X7236428Y-8468214D02*
X7236428Y-8268214D01*
X7236428Y-8325357D02*
X7250714Y-8296786D01*
X7265000Y-8282500D01*
X7293571Y-8268214D01*
X7322143Y-8268214D01*
X7422143Y-8468214D02*
X7422143Y-8268214D01*
X7422143Y-8168214D02*
X7407857Y-8182500D01*
X7422143Y-8196786D01*
X7436428Y-8182500D01*
X7422143Y-8168214D01*
X7422143Y-8196786D01*
X7607857Y-8468214D02*
X7579286Y-8453929D01*
X7565000Y-8425357D01*
X7565000Y-8168214D01*
X7765000Y-8468214D02*
X7736428Y-8453929D01*
X7722143Y-8425357D01*
X7722143Y-8168214D01*
X8107857Y-8468214D02*
X8107857Y-8168214D01*
X8207857Y-8382500D01*
X8307857Y-8168214D01*
X8307857Y-8468214D01*
X8579286Y-8468214D02*
X8579286Y-8311071D01*
X8565000Y-8282500D01*
X8536429Y-8268214D01*
X8479286Y-8268214D01*
X8450714Y-8282500D01*
X8579286Y-8453929D02*
X8550714Y-8468214D01*
X8479286Y-8468214D01*
X8450714Y-8453929D01*
X8436429Y-8425357D01*
X8436429Y-8396786D01*
X8450714Y-8368214D01*
X8479286Y-8353929D01*
X8550714Y-8353929D01*
X8579286Y-8339643D01*
X8722143Y-8268214D02*
X8722143Y-8568214D01*
X8722143Y-8282500D02*
X8750714Y-8268214D01*
X8807857Y-8268214D01*
X8836429Y-8282500D01*
X8850714Y-8296786D01*
X8865000Y-8325357D01*
X8865000Y-8411072D01*
X8850714Y-8439643D01*
X8836429Y-8453929D01*
X8807857Y-8468214D01*
X8750714Y-8468214D01*
X8722143Y-8453929D01*
X8993571Y-8439643D02*
X9007857Y-8453929D01*
X8993571Y-8468214D01*
X8979286Y-8453929D01*
X8993571Y-8439643D01*
X8993571Y-8468214D01*
X8993571Y-8282500D02*
X9007857Y-8296786D01*
X8993571Y-8311071D01*
X8979286Y-8296786D01*
X8993571Y-8282500D01*
X8993571Y-8311071D01*
X6610000Y-8942500D02*
X6650000Y-8982500D01*
X6650000Y-8942500D02*
X6610000Y-8982500D01*
X6993571Y-8798214D02*
X7022143Y-8798214D01*
X7050714Y-8812500D01*
X7065000Y-8826786D01*
X7079286Y-8855357D01*
X7093571Y-8912500D01*
X7093571Y-8983929D01*
X7079286Y-9041072D01*
X7065000Y-9069643D01*
X7050714Y-9083929D01*
X7022143Y-9098214D01*
X6993571Y-9098214D01*
X6965000Y-9083929D01*
X6950714Y-9069643D01*
X6936428Y-9041072D01*
X6922143Y-8983929D01*
X6922143Y-8912500D01*
X6936428Y-8855357D01*
X6950714Y-8826786D01*
X6965000Y-8812500D01*
X6993571Y-8798214D01*
X7222143Y-9069643D02*
X7236428Y-9083929D01*
X7222143Y-9098214D01*
X7207857Y-9083929D01*
X7222143Y-9069643D01*
X7222143Y-9098214D01*
X7493571Y-8898214D02*
X7493571Y-9098214D01*
X7422143Y-8783929D02*
X7350714Y-8998214D01*
X7536428Y-8998214D01*
X7707857Y-8798214D02*
X7736428Y-8798214D01*
X7765000Y-8812500D01*
X7779286Y-8826786D01*
X7793571Y-8855357D01*
X7807857Y-8912500D01*
X7807857Y-8983929D01*
X7793571Y-9041072D01*
X7779286Y-9069643D01*
X7765000Y-9083929D01*
X7736428Y-9098214D01*
X7707857Y-9098214D01*
X7679286Y-9083929D01*
X7665000Y-9069643D01*
X7650714Y-9041072D01*
X7636428Y-8983929D01*
X7636428Y-8912500D01*
X7650714Y-8855357D01*
X7665000Y-8826786D01*
X7679286Y-8812500D01*
X7707857Y-8798214D01*
X7936428Y-9098214D02*
X7936428Y-8898214D01*
X7936428Y-8926786D02*
X7950714Y-8912500D01*
X7979286Y-8898214D01*
X8022143Y-8898214D01*
X8050714Y-8912500D01*
X8065000Y-8941072D01*
X8065000Y-9098214D01*
X8065000Y-8941072D02*
X8079286Y-8912500D01*
X8107857Y-8898214D01*
X8150714Y-8898214D01*
X8179286Y-8912500D01*
X8193571Y-8941072D01*
X8193571Y-9098214D01*
X8336428Y-9098214D02*
X8336428Y-8898214D01*
X8336428Y-8926786D02*
X8350714Y-8912500D01*
X8379286Y-8898214D01*
X8422143Y-8898214D01*
X8450714Y-8912500D01*
X8465000Y-8941072D01*
X8465000Y-9098214D01*
X8465000Y-8941072D02*
X8479286Y-8912500D01*
X8507857Y-8898214D01*
X8550714Y-8898214D01*
X8579286Y-8912500D01*
X8593571Y-8941072D01*
X8593571Y-9098214D01*
X9179286Y-8783929D02*
X8922143Y-9169643D01*
X9565000Y-8798214D02*
X9593571Y-8798214D01*
X9622143Y-8812500D01*
X9636429Y-8826786D01*
X9650714Y-8855357D01*
X9665000Y-8912500D01*
X9665000Y-8983929D01*
X9650714Y-9041072D01*
X9636429Y-9069643D01*
X9622143Y-9083929D01*
X9593571Y-9098214D01*
X9565000Y-9098214D01*
X9536429Y-9083929D01*
X9522143Y-9069643D01*
X9507857Y-9041072D01*
X9493571Y-8983929D01*
X9493571Y-8912500D01*
X9507857Y-8855357D01*
X9522143Y-8826786D01*
X9536429Y-8812500D01*
X9565000Y-8798214D01*
X9793571Y-9069643D02*
X9807857Y-9083929D01*
X9793571Y-9098214D01*
X9779286Y-9083929D01*
X9793571Y-9069643D01*
X9793571Y-9098214D01*
X9993571Y-8798214D02*
X10022143Y-8798214D01*
X10050714Y-8812500D01*
X10065000Y-8826786D01*
X10079286Y-8855357D01*
X10093571Y-8912500D01*
X10093571Y-8983929D01*
X10079286Y-9041072D01*
X10065000Y-9069643D01*
X10050714Y-9083929D01*
X10022143Y-9098214D01*
X9993571Y-9098214D01*
X9965000Y-9083929D01*
X9950714Y-9069643D01*
X9936429Y-9041072D01*
X9922143Y-8983929D01*
X9922143Y-8912500D01*
X9936429Y-8855357D01*
X9950714Y-8826786D01*
X9965000Y-8812500D01*
X9993571Y-8798214D01*
X10379286Y-9098214D02*
X10207857Y-9098214D01*
X10293571Y-9098214D02*
X10293571Y-8798214D01*
X10265000Y-8841072D01*
X10236429Y-8869643D01*
X10207857Y-8883929D01*
X10636429Y-8798214D02*
X10579286Y-8798214D01*
X10550714Y-8812500D01*
X10536429Y-8826786D01*
X10507857Y-8869643D01*
X10493571Y-8926786D01*
X10493571Y-9041072D01*
X10507857Y-9069643D01*
X10522143Y-9083929D01*
X10550714Y-9098214D01*
X10607857Y-9098214D01*
X10636429Y-9083929D01*
X10650714Y-9069643D01*
X10665000Y-9041072D01*
X10665000Y-8969643D01*
X10650714Y-8941072D01*
X10636429Y-8926786D01*
X10607857Y-8912500D01*
X10550714Y-8912500D01*
X10522143Y-8926786D01*
X10507857Y-8941072D01*
X10493571Y-8969643D01*
X10779286Y-8798214D02*
X10779286Y-8855357D01*
X10893571Y-8798214D02*
X10893571Y-8855357D01*
X11336428Y-9212500D02*
X11322143Y-9198214D01*
X11293571Y-9155357D01*
X11279286Y-9126786D01*
X11265000Y-9083929D01*
X11250714Y-9012500D01*
X11250714Y-8955357D01*
X11265000Y-8883929D01*
X11279286Y-8841072D01*
X11293571Y-8812500D01*
X11322143Y-8769643D01*
X11336428Y-8755357D01*
X11607857Y-9098214D02*
X11436428Y-9098214D01*
X11522143Y-9098214D02*
X11522143Y-8798214D01*
X11493571Y-8841072D01*
X11465000Y-8869643D01*
X11436428Y-8883929D01*
X11965000Y-9098214D02*
X11965000Y-8798214D01*
X12093571Y-9098214D02*
X12093571Y-8941072D01*
X12079286Y-8912500D01*
X12050714Y-8898214D01*
X12007857Y-8898214D01*
X11979286Y-8912500D01*
X11965000Y-8926786D01*
X12279286Y-9098214D02*
X12250714Y-9083929D01*
X12236428Y-9069643D01*
X12222143Y-9041072D01*
X12222143Y-8955357D01*
X12236428Y-8926786D01*
X12250714Y-8912500D01*
X12279286Y-8898214D01*
X12322143Y-8898214D01*
X12350714Y-8912500D01*
X12365000Y-8926786D01*
X12379286Y-8955357D01*
X12379286Y-9041072D01*
X12365000Y-9069643D01*
X12350714Y-9083929D01*
X12322143Y-9098214D01*
X12279286Y-9098214D01*
X12550714Y-9098214D02*
X12522143Y-9083929D01*
X12507857Y-9055357D01*
X12507857Y-8798214D01*
X12779286Y-9083929D02*
X12750714Y-9098214D01*
X12693571Y-9098214D01*
X12665000Y-9083929D01*
X12650714Y-9055357D01*
X12650714Y-8941072D01*
X12665000Y-8912500D01*
X12693571Y-8898214D01*
X12750714Y-8898214D01*
X12779286Y-8912500D01*
X12793571Y-8941072D01*
X12793571Y-8969643D01*
X12650714Y-8998214D01*
X12893571Y-9212500D02*
X12907857Y-9198214D01*
X12936428Y-9155357D01*
X12950714Y-9126786D01*
X12965000Y-9083929D01*
X12979286Y-9012500D01*
X12979286Y-8955357D01*
X12965000Y-8883929D01*
X12950714Y-8841072D01*
X12936428Y-8812500D01*
X12907857Y-8769643D01*
X12893571Y-8755357D01*
X6650000Y-9358500D02*
G75*
G03*
X6650000Y-9358500I-50000J0D01*
G01*
X7093571Y-9494214D02*
X6922143Y-9494214D01*
X7007857Y-9494214D02*
X7007857Y-9194214D01*
X6979286Y-9237072D01*
X6950714Y-9265643D01*
X6922143Y-9279929D01*
X7222143Y-9465643D02*
X7236428Y-9479929D01*
X7222143Y-9494214D01*
X7207857Y-9479929D01*
X7222143Y-9465643D01*
X7222143Y-9494214D01*
X7422143Y-9194214D02*
X7450714Y-9194214D01*
X7479286Y-9208500D01*
X7493571Y-9222786D01*
X7507857Y-9251357D01*
X7522143Y-9308500D01*
X7522143Y-9379929D01*
X7507857Y-9437072D01*
X7493571Y-9465643D01*
X7479286Y-9479929D01*
X7450714Y-9494214D01*
X7422143Y-9494214D01*
X7393571Y-9479929D01*
X7379286Y-9465643D01*
X7365000Y-9437072D01*
X7350714Y-9379929D01*
X7350714Y-9308500D01*
X7365000Y-9251357D01*
X7379286Y-9222786D01*
X7393571Y-9208500D01*
X7422143Y-9194214D01*
X7707857Y-9194214D02*
X7736428Y-9194214D01*
X7765000Y-9208500D01*
X7779286Y-9222786D01*
X7793571Y-9251357D01*
X7807857Y-9308500D01*
X7807857Y-9379929D01*
X7793571Y-9437072D01*
X7779286Y-9465643D01*
X7765000Y-9479929D01*
X7736428Y-9494214D01*
X7707857Y-9494214D01*
X7679286Y-9479929D01*
X7665000Y-9465643D01*
X7650714Y-9437072D01*
X7636428Y-9379929D01*
X7636428Y-9308500D01*
X7650714Y-9251357D01*
X7665000Y-9222786D01*
X7679286Y-9208500D01*
X7707857Y-9194214D01*
X7936428Y-9494214D02*
X7936428Y-9294214D01*
X7936428Y-9322786D02*
X7950714Y-9308500D01*
X7979286Y-9294214D01*
X8022143Y-9294214D01*
X8050714Y-9308500D01*
X8065000Y-9337072D01*
X8065000Y-9494214D01*
X8065000Y-9337072D02*
X8079286Y-9308500D01*
X8107857Y-9294214D01*
X8150714Y-9294214D01*
X8179286Y-9308500D01*
X8193571Y-9337072D01*
X8193571Y-9494214D01*
X8336428Y-9494214D02*
X8336428Y-9294214D01*
X8336428Y-9322786D02*
X8350714Y-9308500D01*
X8379286Y-9294214D01*
X8422143Y-9294214D01*
X8450714Y-9308500D01*
X8465000Y-9337072D01*
X8465000Y-9494214D01*
X8465000Y-9337072D02*
X8479286Y-9308500D01*
X8507857Y-9294214D01*
X8550714Y-9294214D01*
X8579286Y-9308500D01*
X8593571Y-9337072D01*
X8593571Y-9494214D01*
X9179286Y-9179929D02*
X8922143Y-9565643D01*
X9565000Y-9194214D02*
X9593571Y-9194214D01*
X9622143Y-9208500D01*
X9636429Y-9222786D01*
X9650714Y-9251357D01*
X9665000Y-9308500D01*
X9665000Y-9379929D01*
X9650714Y-9437072D01*
X9636429Y-9465643D01*
X9622143Y-9479929D01*
X9593571Y-9494214D01*
X9565000Y-9494214D01*
X9536429Y-9479929D01*
X9522143Y-9465643D01*
X9507857Y-9437072D01*
X9493571Y-9379929D01*
X9493571Y-9308500D01*
X9507857Y-9251357D01*
X9522143Y-9222786D01*
X9536429Y-9208500D01*
X9565000Y-9194214D01*
X9793571Y-9465643D02*
X9807857Y-9479929D01*
X9793571Y-9494214D01*
X9779286Y-9479929D01*
X9793571Y-9465643D01*
X9793571Y-9494214D01*
X9993571Y-9194214D02*
X10022143Y-9194214D01*
X10050714Y-9208500D01*
X10065000Y-9222786D01*
X10079286Y-9251357D01*
X10093571Y-9308500D01*
X10093571Y-9379929D01*
X10079286Y-9437072D01*
X10065000Y-9465643D01*
X10050714Y-9479929D01*
X10022143Y-9494214D01*
X9993571Y-9494214D01*
X9965000Y-9479929D01*
X9950714Y-9465643D01*
X9936429Y-9437072D01*
X9922143Y-9379929D01*
X9922143Y-9308500D01*
X9936429Y-9251357D01*
X9950714Y-9222786D01*
X9965000Y-9208500D01*
X9993571Y-9194214D01*
X10193571Y-9194214D02*
X10379286Y-9194214D01*
X10279286Y-9308500D01*
X10322143Y-9308500D01*
X10350714Y-9322786D01*
X10365000Y-9337072D01*
X10379286Y-9365643D01*
X10379286Y-9437072D01*
X10365000Y-9465643D01*
X10350714Y-9479929D01*
X10322143Y-9494214D01*
X10236429Y-9494214D01*
X10207857Y-9479929D01*
X10193571Y-9465643D01*
X10522143Y-9494214D02*
X10579286Y-9494214D01*
X10607857Y-9479929D01*
X10622143Y-9465643D01*
X10650714Y-9422786D01*
X10665000Y-9365643D01*
X10665000Y-9251357D01*
X10650714Y-9222786D01*
X10636429Y-9208500D01*
X10607857Y-9194214D01*
X10550714Y-9194214D01*
X10522143Y-9208500D01*
X10507857Y-9222786D01*
X10493571Y-9251357D01*
X10493571Y-9322786D01*
X10507857Y-9351357D01*
X10522143Y-9365643D01*
X10550714Y-9379929D01*
X10607857Y-9379929D01*
X10636429Y-9365643D01*
X10650714Y-9351357D01*
X10665000Y-9322786D01*
X10779286Y-9194214D02*
X10779286Y-9251357D01*
X10893571Y-9194214D02*
X10893571Y-9251357D01*
X11336428Y-9608500D02*
X11322143Y-9594214D01*
X11293571Y-9551357D01*
X11279286Y-9522786D01*
X11265000Y-9479929D01*
X11250714Y-9408500D01*
X11250714Y-9351357D01*
X11265000Y-9279929D01*
X11279286Y-9237072D01*
X11293571Y-9208500D01*
X11322143Y-9165643D01*
X11336428Y-9151357D01*
X11593571Y-9194214D02*
X11450714Y-9194214D01*
X11436428Y-9337072D01*
X11450714Y-9322786D01*
X11479286Y-9308500D01*
X11550714Y-9308500D01*
X11579286Y-9322786D01*
X11593571Y-9337072D01*
X11607857Y-9365643D01*
X11607857Y-9437072D01*
X11593571Y-9465643D01*
X11579286Y-9479929D01*
X11550714Y-9494214D01*
X11479286Y-9494214D01*
X11450714Y-9479929D01*
X11436428Y-9465643D01*
X11722143Y-9222786D02*
X11736428Y-9208500D01*
X11765000Y-9194214D01*
X11836428Y-9194214D01*
X11865000Y-9208500D01*
X11879286Y-9222786D01*
X11893571Y-9251357D01*
X11893571Y-9279929D01*
X11879286Y-9322786D01*
X11707857Y-9494214D01*
X11893571Y-9494214D01*
X12250714Y-9494214D02*
X12250714Y-9194214D01*
X12379286Y-9494214D02*
X12379286Y-9337072D01*
X12365000Y-9308500D01*
X12336428Y-9294214D01*
X12293571Y-9294214D01*
X12265000Y-9308500D01*
X12250714Y-9322786D01*
X12565000Y-9494214D02*
X12536428Y-9479929D01*
X12522143Y-9465643D01*
X12507857Y-9437072D01*
X12507857Y-9351357D01*
X12522143Y-9322786D01*
X12536428Y-9308500D01*
X12565000Y-9294214D01*
X12607857Y-9294214D01*
X12636428Y-9308500D01*
X12650714Y-9322786D01*
X12665000Y-9351357D01*
X12665000Y-9437072D01*
X12650714Y-9465643D01*
X12636428Y-9479929D01*
X12607857Y-9494214D01*
X12565000Y-9494214D01*
X12836428Y-9494214D02*
X12807857Y-9479929D01*
X12793571Y-9451357D01*
X12793571Y-9194214D01*
X13065000Y-9479929D02*
X13036428Y-9494214D01*
X12979286Y-9494214D01*
X12950714Y-9479929D01*
X12936428Y-9451357D01*
X12936428Y-9337072D01*
X12950714Y-9308500D01*
X12979286Y-9294214D01*
X13036428Y-9294214D01*
X13065000Y-9308500D01*
X13079286Y-9337072D01*
X13079286Y-9365643D01*
X12936428Y-9394214D01*
X13193571Y-9479929D02*
X13222143Y-9494214D01*
X13279286Y-9494214D01*
X13307857Y-9479929D01*
X13322143Y-9451357D01*
X13322143Y-9437072D01*
X13307857Y-9408500D01*
X13279286Y-9394214D01*
X13236428Y-9394214D01*
X13207857Y-9379929D01*
X13193571Y-9351357D01*
X13193571Y-9337072D01*
X13207857Y-9308500D01*
X13236428Y-9294214D01*
X13279286Y-9294214D01*
X13307857Y-9308500D01*
X13422143Y-9608500D02*
X13436428Y-9594214D01*
X13465000Y-9551357D01*
X13479286Y-9522786D01*
X13493571Y-9479929D01*
X13507857Y-9408500D01*
X13507857Y-9351357D01*
X13493571Y-9279929D01*
X13479286Y-9237072D01*
X13465000Y-9208500D01*
X13436428Y-9165643D01*
X13422143Y-9151357D01*
X6595000Y-9699500D02*
X6595000Y-9809500D01*
X6540000Y-9754500D02*
X6650000Y-9754500D01*
X7093571Y-9890214D02*
X6922143Y-9890214D01*
X7007857Y-9890214D02*
X7007857Y-9590214D01*
X6979286Y-9633072D01*
X6950714Y-9661643D01*
X6922143Y-9675929D01*
X7222143Y-9861643D02*
X7236428Y-9875929D01*
X7222143Y-9890214D01*
X7207857Y-9875929D01*
X7222143Y-9861643D01*
X7222143Y-9890214D01*
X7522143Y-9890214D02*
X7350714Y-9890214D01*
X7436428Y-9890214D02*
X7436428Y-9590214D01*
X7407857Y-9633072D01*
X7379286Y-9661643D01*
X7350714Y-9675929D01*
X7707857Y-9590214D02*
X7736428Y-9590214D01*
X7765000Y-9604500D01*
X7779286Y-9618786D01*
X7793571Y-9647357D01*
X7807857Y-9704500D01*
X7807857Y-9775929D01*
X7793571Y-9833072D01*
X7779286Y-9861643D01*
X7765000Y-9875929D01*
X7736428Y-9890214D01*
X7707857Y-9890214D01*
X7679286Y-9875929D01*
X7665000Y-9861643D01*
X7650714Y-9833072D01*
X7636428Y-9775929D01*
X7636428Y-9704500D01*
X7650714Y-9647357D01*
X7665000Y-9618786D01*
X7679286Y-9604500D01*
X7707857Y-9590214D01*
X7936428Y-9890214D02*
X7936428Y-9690214D01*
X7936428Y-9718786D02*
X7950714Y-9704500D01*
X7979286Y-9690214D01*
X8022143Y-9690214D01*
X8050714Y-9704500D01*
X8065000Y-9733072D01*
X8065000Y-9890214D01*
X8065000Y-9733072D02*
X8079286Y-9704500D01*
X8107857Y-9690214D01*
X8150714Y-9690214D01*
X8179286Y-9704500D01*
X8193571Y-9733072D01*
X8193571Y-9890214D01*
X8336428Y-9890214D02*
X8336428Y-9690214D01*
X8336428Y-9718786D02*
X8350714Y-9704500D01*
X8379286Y-9690214D01*
X8422143Y-9690214D01*
X8450714Y-9704500D01*
X8465000Y-9733072D01*
X8465000Y-9890214D01*
X8465000Y-9733072D02*
X8479286Y-9704500D01*
X8507857Y-9690214D01*
X8550714Y-9690214D01*
X8579286Y-9704500D01*
X8593571Y-9733072D01*
X8593571Y-9890214D01*
X9179286Y-9575929D02*
X8922143Y-9961643D01*
X9565000Y-9590214D02*
X9593571Y-9590214D01*
X9622143Y-9604500D01*
X9636429Y-9618786D01*
X9650714Y-9647357D01*
X9665000Y-9704500D01*
X9665000Y-9775929D01*
X9650714Y-9833072D01*
X9636429Y-9861643D01*
X9622143Y-9875929D01*
X9593571Y-9890214D01*
X9565000Y-9890214D01*
X9536429Y-9875929D01*
X9522143Y-9861643D01*
X9507857Y-9833072D01*
X9493571Y-9775929D01*
X9493571Y-9704500D01*
X9507857Y-9647357D01*
X9522143Y-9618786D01*
X9536429Y-9604500D01*
X9565000Y-9590214D01*
X9793571Y-9861643D02*
X9807857Y-9875929D01*
X9793571Y-9890214D01*
X9779286Y-9875929D01*
X9793571Y-9861643D01*
X9793571Y-9890214D01*
X9993571Y-9590214D02*
X10022143Y-9590214D01*
X10050714Y-9604500D01*
X10065000Y-9618786D01*
X10079286Y-9647357D01*
X10093571Y-9704500D01*
X10093571Y-9775929D01*
X10079286Y-9833072D01*
X10065000Y-9861643D01*
X10050714Y-9875929D01*
X10022143Y-9890214D01*
X9993571Y-9890214D01*
X9965000Y-9875929D01*
X9950714Y-9861643D01*
X9936429Y-9833072D01*
X9922143Y-9775929D01*
X9922143Y-9704500D01*
X9936429Y-9647357D01*
X9950714Y-9618786D01*
X9965000Y-9604500D01*
X9993571Y-9590214D01*
X10350714Y-9690214D02*
X10350714Y-9890214D01*
X10279286Y-9575929D02*
X10207857Y-9790214D01*
X10393571Y-9790214D01*
X10479286Y-9590214D02*
X10665000Y-9590214D01*
X10565000Y-9704500D01*
X10607857Y-9704500D01*
X10636429Y-9718786D01*
X10650714Y-9733072D01*
X10665000Y-9761643D01*
X10665000Y-9833072D01*
X10650714Y-9861643D01*
X10636429Y-9875929D01*
X10607857Y-9890214D01*
X10522143Y-9890214D01*
X10493571Y-9875929D01*
X10479286Y-9861643D01*
X10779286Y-9590214D02*
X10779286Y-9647357D01*
X10893571Y-9590214D02*
X10893571Y-9647357D01*
X11336428Y-10004500D02*
X11322143Y-9990214D01*
X11293571Y-9947357D01*
X11279286Y-9918786D01*
X11265000Y-9875929D01*
X11250714Y-9804500D01*
X11250714Y-9747357D01*
X11265000Y-9675929D01*
X11279286Y-9633072D01*
X11293571Y-9604500D01*
X11322143Y-9561643D01*
X11336428Y-9547357D01*
X11593571Y-9590214D02*
X11450714Y-9590214D01*
X11436428Y-9733072D01*
X11450714Y-9718786D01*
X11479286Y-9704500D01*
X11550714Y-9704500D01*
X11579286Y-9718786D01*
X11593571Y-9733072D01*
X11607857Y-9761643D01*
X11607857Y-9833072D01*
X11593571Y-9861643D01*
X11579286Y-9875929D01*
X11550714Y-9890214D01*
X11479286Y-9890214D01*
X11450714Y-9875929D01*
X11436428Y-9861643D01*
X11722143Y-9618786D02*
X11736428Y-9604500D01*
X11765000Y-9590214D01*
X11836428Y-9590214D01*
X11865000Y-9604500D01*
X11879286Y-9618786D01*
X11893571Y-9647357D01*
X11893571Y-9675929D01*
X11879286Y-9718786D01*
X11707857Y-9890214D01*
X11893571Y-9890214D01*
X12250714Y-9890214D02*
X12250714Y-9590214D01*
X12379286Y-9890214D02*
X12379286Y-9733072D01*
X12365000Y-9704500D01*
X12336428Y-9690214D01*
X12293571Y-9690214D01*
X12265000Y-9704500D01*
X12250714Y-9718786D01*
X12565000Y-9890214D02*
X12536428Y-9875929D01*
X12522143Y-9861643D01*
X12507857Y-9833072D01*
X12507857Y-9747357D01*
X12522143Y-9718786D01*
X12536428Y-9704500D01*
X12565000Y-9690214D01*
X12607857Y-9690214D01*
X12636428Y-9704500D01*
X12650714Y-9718786D01*
X12665000Y-9747357D01*
X12665000Y-9833072D01*
X12650714Y-9861643D01*
X12636428Y-9875929D01*
X12607857Y-9890214D01*
X12565000Y-9890214D01*
X12836428Y-9890214D02*
X12807857Y-9875929D01*
X12793571Y-9847357D01*
X12793571Y-9590214D01*
X13065000Y-9875929D02*
X13036428Y-9890214D01*
X12979286Y-9890214D01*
X12950714Y-9875929D01*
X12936428Y-9847357D01*
X12936428Y-9733072D01*
X12950714Y-9704500D01*
X12979286Y-9690214D01*
X13036428Y-9690214D01*
X13065000Y-9704500D01*
X13079286Y-9733072D01*
X13079286Y-9761643D01*
X12936428Y-9790214D01*
X13193571Y-9875929D02*
X13222143Y-9890214D01*
X13279286Y-9890214D01*
X13307857Y-9875929D01*
X13322143Y-9847357D01*
X13322143Y-9833072D01*
X13307857Y-9804500D01*
X13279286Y-9790214D01*
X13236428Y-9790214D01*
X13207857Y-9775929D01*
X13193571Y-9747357D01*
X13193571Y-9733072D01*
X13207857Y-9704500D01*
X13236428Y-9690214D01*
X13279286Y-9690214D01*
X13307857Y-9704500D01*
X13422143Y-10004500D02*
X13436428Y-9990214D01*
X13465000Y-9947357D01*
X13479286Y-9918786D01*
X13493571Y-9875929D01*
X13507857Y-9804500D01*
X13507857Y-9747357D01*
X13493571Y-9675929D01*
X13479286Y-9633072D01*
X13465000Y-9604500D01*
X13436428Y-9561643D01*
X13422143Y-9547357D01*
M02*
